<?xml version="1.0" encoding="UTF-8"?>
<svg xmlns="http://www.w3.org/2000/svg" viewBox="0 0 287.6 236.02">
  <defs>
    <style>
      .cls-1 {
        isolation: isolate;
      }

      .cls-2 {
        fill: #c23d31;
      }

      .cls-3 {
        mix-blend-mode: multiply;
        opacity: .5;
      }
    </style>
  </defs>
  <g class="cls-1">
    <g id="_图层_1" data-name="图层_1">
      <g class="cls-3">
        <path class="cls-2" d="M85.55,147.59c-.81-.58-1.25-1.19-1.59-1.14-1.93.27-1.92.32-1.77-1.27.01-.13.19-.33.15-.38-2.25-2.73.41-5.13.52-7.69.01-.29-.09-.83-.18-.83-1.77-.18-1.59-.9-.68-2.02.78-.95.54-1.6-.78-1.75-.15-.02-.26-.49-.38-.76,2.56-.03.49-1.36.6-2.09.08-.56.1-1.22.41-1.64,1.35-1.85-.33-2.18-1.34-2.86-.24-.31-.43-.69-.74-.9-.33-.23-1.39.17-.73-.84.68-1.04.75-2.62,2.39-2.87.1.26.2.51.3.77.21-.26.41-.51.62-.77.46,0,1.01.16,1.36-.04.52-.29.89-.83,1.33-1.26-.48-.18-.96-.37-1.45-.55-1.15-.42-2.06-.85-3.22.48-2.53,2.92-5.6,5.35-7.32,8.97-.37.77-1.58,1.1-2.32,1.74-.7.61-1.91,1.22-.42,2.33.11.08-.17,1.1-.36,1.13-.89.15-1.82.18-2.72.09-.23-.02-.61-.93-.56-.98,1.17-.93-.67-3.33,1.98-3.66,2.34-.29,3.41-2.34,4.49-4.27.98-1.77,2.23-3.38,3.36-5.06.65-.96,1.42-1.86,1.91-2.9.28-.6.4-1.83.06-2.08-1.55-1.18-1.89-2.66-1.71-4.43,0-.03-.72-.26-.81-.15-.3.36-.46.83-.68,1.26-.11-.42-.36-.86-.28-1.24.1-.49.37-1.22.72-1.32.84-.25,2.4.07,2.55-.3.43-1.05.31-2.33.39-3.52.13-1.79.09-3.62.43-5.37.17-.89-.2-1.77.39-2.76.53-.88.5-1.22,1.29-.34.72.8,1.67,1.43,2.23,2.32.55.88.51,2.19,2,2.2-.34-1.05-.62-2.13-1.04-3.14-.33-.79-.83-1.5-1.28-2.23-.53-.86-1.08-2.42-1.62-2.42-1.63,0-1.15-1.87-1.91-1.95-1.82-.2-2.35-1.81-3.5-2.7-.76-.59-2.3.68-2.51-1.09.31-.31.62-.62,1.19-1.35.09-.28-.09-.13-.27.01.14.14.27.27.41.41.14-.18.3-.36.41-.56.02-.03-.18-.19-.55.13-.58.73-.88,1.04-1.19,1.35-2.61.48-5.45-1.07-7.88.92-1.62-.44-2.51.65-3.46,1.63-1.64,1.7-3.88,3.14-4.26,5.55-.3,1.88-2.21,3.67-.59,5.87.31.42-.4,1.66-.79,2.46-.08.16-.78.03-1.2.03.12-.32.35-.66.32-.97-.02-.25-.31-.52-.54-.71-.27-.23-.6-.39-.9-.58,1.63-1.68.55-3.76.77-5.64.08-.67-.24-1.41-.44-2.1-.1-.36-1.33-4.99-1.37-5.55,1.5-.94,1.88-2.38,1.85-4.03-.01-.76.11-1.49-1.06-1.54-1.08-.05-.73-.63-.18-1.03.67-.48,1.4-.88,2.1-1.31-1.13-.87-.87-2.9-2.74-3.21-.52-.09-.96-.62-1.47-.88-.37-.19-.8-.28-1.21-.41.5-.18,1-.35,1.49-.53.4-.14.8-.3,1.2-.44-.21-.22-.41-.44-.62-.65-.95-.96-1.77-2.01-3.46-1.72-1.34.23-2.76.08-4.13.03-.95-.03-1.77.04-2.4.91-.7.96-1.86,1.72-2.2,2.77-.25.77.51,1.86.81,2.8-.64.31-1.33.54-1.9.95-.39.28-.9,1.1-.83,1.18,1.02,1.09.85,1.62-.65,1.72-.11,0-.29.19-.31.32-.13.72-.23,1.44-.34,2.16-1.23-.47-.41-1.49-.58-2.24-.22-1-.26-2.04-.38-3.06-1.09.92-.52,2.17-.53,3.24-.11,7.98,1.73,15.49,5.51,22.53-1.26.33-2.07-.42-2.66-1.31-.95-1.43-2.02-2.86-2.55-4.46-.6-1.77-1.8,1.2-2.19-.48-.22-.97-.48-1.96-.94-2.83-.47-.9-1.36-1.59-1.76-2.5-.28-.64-.05-1.51.21-2.7.09-.28-.09-.13-.27.01.14.14.27.27.41.41.14-.18.3-.36.41-.56.02-.03-.18-.19-.55.13-1.49-.95-2.86-2.24-3.86-3.77-.31-.47-.73-1.74.97-2.39,2.77-1.06,3.73-3.86,4.42-6.58.04-.15-.57-.46-.88-.7-1.32-2.23-3.19-1.79-5-.9-1.66.82-3.24,1.83-4.76,2.88-.27.18-.32,1.15-.09,1.5,1.05,1.58,2.4,2.97,3.32,4.61.61,1.08.72,2.46.95,3.72.06.32-.3.71-.47,1.07-.22-.22-.51-.39-.64-.66-.73-1.56-2.39-.04-3.47-1.03-.3-.27-1.97.82-2.9,1.46-.41.28-.71.96-.76,1.48-.12,1.06.08,2.15-.06,3.21-.43,3.35,1.76,5.7,3.13,8.36.52,1.02,1.32,1.89,1.9,2.89.26.45.28,1.03.4,1.56-.74-.21-1.72-.2-2.17-.68-1.2-1.27-2.89-2.65-3.09-4.16-.43-3.18-2.14-1.27-3.39-1.29-.46,0-.92,0-1.58,0-.07,0,.07,0,.21,0-.09-.24-.13-.51-.28-.7-.04-.06-.37.1-.56.15.14.18.28.36.63.55-.41.49-1.47.91-1.55,1.47-.15,1.06-.84,2.04-.86,2.84-.02,1.12-.13,2.34.01,3.36.15,1.08,1.34,1.93-.08,3.05-.08.06,1.12,1.55,1.49,2.47.26.63.45,1.76.11,2.1-1.3,1.27.64,1.94.36,2.94,1.72.09,2,1.98,3.44,2.63,3.09,1.4,3.14,3.1,1.53,6-.83,1.5-1.3,1.63-2.58.89-.35-.2-.91-.09-1.36-.01-.41.07-.8.28-1.2.42.2.22.43.42.6.66.42.59,1.07,1.16,1.16,1.81.12.83-.21,1.72-.35,2.59-.79-.29-1.57-.58-2.36-.87-.34-1.69-1.69-1.05-2.4-.72-.84.39-.24,1.14.15,1.82.2.35-.32,1.11-.52,1.89,0,.07,0-.07,0-.21-.24.09-.51.13-.7.28-.06.04.1.37.15.56.18-.14.36-.28.55-.63,1.93.49,2.25,2.27,2.77,3.91.75,2.35,1.85,2.95,4.75,2.7.25-.02.74.23.75.38.03.58.04,1.23-.18,1.75-.32.78-.11,2.03.49,1.91.86-.17,1.59-1,1.77.75.05.42,1.89.47,2.66,1.04,1.07.78,2.24,1.7,1.8,3.4-.03.1.68.57,1.01.54,1.1-.1.56-.52.21-1.06-.29-.46-.29-1.12-.33-1.69-.02-.25.21-.52.32-.78.19.3.48.58.57.9.28,1.09.98,1.08,1.63.53.39-.33.47-1.01.68-1.54.43.18,1.01.63,1.28.49,1.02-.53,1.93-1.26,2.88-1.91-1.19-.97-2.21-.63-3.15.4-.18-.19-.52-.39-.5-.55.05-.41.25-1.15.41-1.15,2.3-.08,4.61-.13,6.91-.04,1.15.04,2.06,2.73,1.34,3.75-.42.6-.87,1.18-1.12,2.1-.3-.07-.46-.31-.61-.31-.4.01-.8.14-1.19.21.05.2.11.58.16.58.5,0,.99-.07,1.65-.49.25-.33.85-.14,1.08-.36,1.79-1.63,1.48-.1,1.51.95-.31.23-.62.47-.92.7.31.38.62.77.92,1.15-.09.79.27,1.49-1.08,1.95-1.84.63-1.39-2.16-2.56-1.47-1.91,1.14-2.16-.42-2.56-1.83.09-.28-.09-.13-.27.01.14.14.27.27.41.41.14-.18.3-.36.41-.56.02-.03-.18-.19-.55.13-1.94.78-3.8-.32-5.39,1.25-.32.32-1.58-.25-2.38-.49-1.91-.58-2.82-.31-3.52,1.31-.09.21.56.75.87,1.13.17,1.24-.06,2.08-1.62,1.88-.35-.05-.75.29-1.13.45.4.15.87.2,1.17.46,1.08.94,1.04,2.38-.39,3.23-1.01.6-1.91,1.06-2.15,2.27-.06.3-.01.63-.01.95,1.19-.09,2.38,1.09,1.94,1.51-1.23,1.19.76,1.44.34,2.39,0,.07,0-.07,0-.21-.24.09-.51.13-.7.28-.06.04.1.37.15.56.18-.14.36-.28.55-.63,1.27.02,1.13.7.57,1.54-.22.33-.38.69-.58,1.24,0,.07,0-.07,0-.21-.24.09-.51.13-.7.28-.06.04.1.37.15.56.18-.14.36-.28.55-.63,1.57-.39,3.14,1.46,4.71-.21.2.24.59.52.55.7-.12.54-.58,1.03-.59,1.55-.01.48.38.96.6,1.45.4-.3,1.08-.55,1.15-.91.2-1.13.91-1.18,1.55-.73.33.23.25,1.07.44,2.05-.15.1-.33-.16-.52-.42-.16.21-.47.43-.46.64.02.38.22.76.35,1.13.21-.28.43-.55.63-1.35.48-.31,1.51-.28,1.55-.08.49,2.94,1.6.65,1.97.13.73-1.02.95-2.42,1.73-3.39.73-.92,1.2-1.35.08-2.36-1.52-1.36-1.31-1.51-2.68-5.93-.88-2.84-.97-6.02-3.28-8.32-.12-.12.07-.69.26-.94.32-.41.56-.89,1.32-.27,1.1.9,2.42,1.53,3.65,2.27,2.65-1.55,3.8.76,5.26,2.11,1.74,1.61,1.69,1.66,2.41,5.41.05.28.2.71.39.77,2.04.58,3.41,1.66,4.47,3.67,1,1.9,3.35,1.32,4.83.51,2.3-1.25,3.51.43,5.08,1.27.22.12.52.6.5.61-2.13,1.95.21,3.87,0,5.72-.21,1.94-1.14,3.8-1.76,5.69-.09.27-.11.74-.26.79-2.74.81-2.1,4.39-4.5,5.43-.52.23-1.13.31-1.7.31-.25,0-.76-.47-.72-.6.81-2.57,1.69-5.13,2.82-8.11.09-.28-.09-.13-.27.01.14.14.27.27.41.41.14-.18.3-.36.41-.56.02-.03-.18-.19-.55.13-1.61.23-3.14,1.91-4.36-.27-.41-.74-2.04-1.02-3.13-1.09-1.16-.07-1.97-.41-2.76-1.22-.52-.54-1.57-1.34-1.88-1.16-1.95,1.12-.52-1.27-1.35-1.2-.41.03-1.06-.19-1.21,0-1.4,1.83-2.74,3.71-4.03,5.62-.47.7-.58,1.78-1.2,2.23-1.42,1.03.65,1.4.26,2.14-1.38.08-.78,1.15-.92,2.05,0,.07,0-.07,0-.21-.24.09-.51.13-.7.28-.06.04.1.37.15.56.18-.14.36-.28.55-.63.31-.21.62-.21.92-.21-.43,3.12-2.1,5.99-1.8,9.46-.17.04-.31-.19-.48-.2-.73-.07-1.49-.08-1.4.99.02.25.22.48.33.72.52-.42,1.03-.83,1.55-1.51.26,0,.73.14.84.43.39.99.65,2.03.95,3.05-.31.31-.62.62-.92.92-.31.31-.62.62-.92,1.13,0,.07,0-.07,0-.21-.24.09-.51.13-.7.28-.06.04.1.37.15.56.18-.14.36-.28.55-.63.31-.51.62-.82.92-1.13.31-.31.62-.62.92-.92,1.73,1.02,3.54,1.37,5.45.55.39-.17.76-.5,1.16-.52,1.04-.05,2.52-.32.89,1.46-.18.2.95,1.64,1.55,2.45.17.23.63.25.95.37.05-.29.22-.63.12-.85-.18-.39-.72-.69-.75-1.06-.04-.48.14-1.24.47-1.42.6-.33,1.86-.14,2.02-.5.54-1.31.73-2.77,1.06-4.17h1.85c0,3.5-.06,7.01.03,10.51.03,1.12-1.52,2.23-.03,3.35-.31.31-.62.62-.83,1.34-.15.1-.33-.16-.52-.42-.16.21-.47.43-.46.64.02.38.22.76.35,1.13.21-.28.43-.55.63-1.35.22-.42.52-.42.83-.42,2.24,2.06,1.88,4.77,1.94,7.81-.15.1-.33-.16-.52-.42-.16.21-.47.43-.46.64.02.38.22.76.35,1.13.21-.28.43-.55.63-1.35,1.98-.81,1.89.99,2.46,2.11-1.4,1.08.14,1.63.58,1.85.41.21,1.27-.27,1.83-.61.51-.31.85-.88,1.32-1.25.25-.2.64-.24.96-.35.05.29.07.58.15.85.15.53.32,1.05.49,1.57l3.2-1.71c.66-1.88.79-3.77,0-5.65.56-.52,1.65-1.43,1.59-1.51-1.12-1.56,2.1-3.71-.66-4.96-.58-1.12,1.51-2.18.09-3.32.32-.32.59-.75.98-.95,1.05-.54.84.52.74.81-.45,1.32,2.31,2.51.16,3.94-.07.05.63,1.45,1.12,2.11.64.87.84,2.09.82,3.25-.02,1.14-1.23,2.64.71,3.4-.15.98.1,1.78.97,2.37.68.46,1.08,1.01.11,1.62.33.44.65.87.98,1.31.24-.36.41-.78.73-1.04.19-.16.59-.07.9-.1v2.31c-1.84,1.4-1.85,1.42-.44,2.77.39.38.91.62,1.37.93.07.83-.39,1.95,1.18,1.89.21,0,.63.62.61.94-.01.3-.42.75-.74.84-1.39.38-2.8.65-4.21.95-1.12-1.71-2.18.41-3.39.08-.89-.25-2.12-.48-2.93.59-.14.18-.62.33-.79.23-2.94-1.76-6.81-1.46-9.29-4.26-.66-.75-1.22-1.34-.29-2.26.11-.11,0-.69-.18-.83-.45-.33-1.19-.39-1.48-.8-.95-1.32-3.02-1.83-2.94-3.88.06-1.58-2.01-2.28-1.53-4.14.14-.53-.97-1.37-1.51-2.08-2.01,1.7-.55-1.51-1.62-1.15-.17-2.07-3.1.34-3.34-2.17-.13-1.4-1.88-1.63-3.26-1.7-.12,0-.22-.49-.33-.75.31-.31.62-.62.92-.92.31-.31.62-.62.92-.92.31,0,.62,0,2.03.28.39-.01.08-.19-.25-.27-.27-.06-.57-.01-.86-.01.21.31.37.79.65.88.32.11.76-.13.46-.6-1.42-.59-1.73-.9-2.24-1.2-.07,0,.07,0,.21,0-.09-.24-.13-.51-.28-.7-.04-.06-.37.1-.56.15.14.18.28.36.63.55.21.31.21.62.21.92-.31.31-.62.62-.92.92s-.62.62-.92.92c-.46,0-1.23.16-1.33-.03-.45-.84-.71-1.78-1.03-2.69-1.22,1.71-1.78-.03-2.2-.6-.57-.77-.51-2.02-1.11-2.74-2.24-2.67-1.62-6.1-2.62-9.09-.19-.55,0-1.22-.03-1.84-.07-1.97.43-4.25-.42-5.81-.78-1.43-3.2-1.87-4.56-3.12-3.64-3.33-7.96-6.05-9.85-11.02-.6-1.59-2.16-2.84-2.65-4.43-1.28-4.14-1.64-8.37-.1-12.62.72-1.98,1.98-3.54,3.26-5.11.58-.72.64-1.26-.02-1.92-1.39-1.41-2.86-2.77-4.11-4.31-1.93-2.37-2.83-5.4-3.53-8.2-.63-2.48-1.46-5.09-1.2-7.89.37-3.97,1.31-7.5,4.39-10.22.58-.51,1.08-1.1,1.64-1.62.67-.63.57-1.13.11-1.93-.7-1.23-1.01-2.77-1.6-3.93-.84-1.66-.17-3.41-.88-4.71-.68-1.24-.07-2.26-.32-3.35-.73-3.24,1.47-6.1,1.36-9.28,1.69-1.4,1.48-4.62,4.71-4.66.94-.01,2.58-.78.84-2.28-.68-5.78,1.73-10.08,6.34-13.34.59-.42,1.16-.92,1.82-1.19.79-.32,1.68-.67,2.48-.59,1.4.14,1.35.28,1.4-.99.01-.26.4-.5.62-.75,1.09,1.43,1.89-.48,3.03-.32.96.14,2-1.21,3.29-.79,1.33.44,2.2-.71,3.32-.89,1.16-.18,2.31,0,3.37-.89.32-.27,1.89-.7,2.05.85-1.7.62-3.44,1.16-5.09,1.9-1.36.61-1.45,1.9-.16,2.48,1.08.49,2.17.77,2.94,3.04.1.08.03-1.13-1.38-.93-.34.05-.72.4-.9.71-.16.27,2.04,2.08,2.36,1.91.2-.11.26-.48-.07-1.7.75-1.04,2.16-.41,2.59-2.49.14-.69,1.69-.99,2.41-1.66,2.75-2.54,2.63-3.31-1.01-4.74-1.4-.55-2.94-1.37-4.62-.43-.36.2-1.08-.22-1.64-.36.49-.22.97-.45,1.47-.64,1.46-.55,2.9-1.42,4.39-1.53,2.07-.15,4-.8,6-1.06,1.73-.22,3.59-.42,4.95,1.42.36.49,1.67.27,2.55.37v.92c-1.43-.15-2.41.39-2.59,2.18-.3-.07-.46-.31-.61-.31-.4.01-.8.14-1.19.21.05.2.11.58.16.58.5,0,.99-.07,1.65-.49,1.25-.18,2.23-.72,2.59-2.18.77,0,1.87-.33,2.24.06,1.59,1.65,3.49.52,5.2.84.23.04.51-.22.77-.34-.15-.22-.26-.48-.45-.64-.72-.61-1.47-1.18-2.22-1.77.66-.2,1.32-.39,1.98-.6.86-.27,2.32-1.21.98.93-.13.21,3.32,2.13,4.42,2.44.74,1.56,1.62,2.98,2.81,4.3,1.51,1.68,2.58,3.74,3.89,5.6.31.44.84.72,1.26,1.07.42-.58,1.09-1.11,1.21-1.75.11-.61-.37-1.32-.55-2-.14-.55-.21-1.12-.31-1.69.3,0,.61.04.9-.01.27-.05.52-.19.78-.29-.26-.21-.49-.49-.79-.6-.26-.1-.6-.02-.9-.02.31-.8.69-1.57.89-2.4.09-.36-.09-1.04-.36-1.18-1.88-1.02-3.79-1.98-5.73-2.87-.64-.29-1.41-.3-2.13-.43.6-.48,1.2-.96,1.79-1.44.46,0,1.02.17,1.36-.03,1.28-.76,1.9,2.32,3.05.52.19-.3-1.06-1.54-1.64-2.34,1.73-.04,3.24.79,4.18,2,.96,1.24,2.76,1.24,3.41,3.09.5,1.44,2.24,2.44,3.45,3.62.17.17.43.26.64.39.11-.26.33-.53.31-.78-.09-1.01.38-2.09-.58-3-.25-.24.01-1,.04-1.53.33.26.65.52.98.78.53-1.01,1.21-2.04-.42-2.73-2.16-1.54-4.31-3.08-6.47-4.62,1.85.31,3.7.62,6.65,1.2.39-.01.08-.19-.25-.27-.27-.06-.57-.01-.86-.01.21.31.37.79.65.88.32.11.76-.13.46-.6-1.81-.9-2.52-1.5-3.19-2.14-.27-.26-.46-.61-.69-.92,2.24-.23,3.98.75,5.5,2.27,1.84,1.84,3.68,3.69,5.53,5.52.53.52,1.06,1.12,1.72,1.4.48.2,1.25.09,1.7-.19.22-.13.19-1.13-.07-1.48-.87-1.18-.89-1.55.74-2.1,1.09-.37.87-2.77-.21-3.86-1.2-1.21-2.54-2.27-3.83-3.4,1.14-.05,2.21.12,3.3-.81.65-.56,1.83-.04.54,1.13.57.2,1.13.41,1.7.61.1.87-.1,1.94.34,2.56,1.34,1.9,2.9,3.66,4.44,5.41.23.26.79.24,1.2.34,0-.32.06-.65-.02-.95-.71-2.57-2.73-4.31-4.12-6.45.56.1,1.13.17,1.69.31.68.17,1.34.41,2.43.88.28.09.13-.09-.01-.27-.14.14-.27.27-.41.41.18.14.36.3.56.41.03.02.19-.18-.13-.55-.73-1.19-1.04-2.12-1.35-3.04.66-.14,1.71.45,1.81-.73.06-.66-.1-1.65-.54-1.98-1.13-.84-2.54-1.31-3.73-2.09-1.76-1.16-3.3-1.11-4.74.46.78,1.37-3.57-.38-1.19,1.96-.33.18-.74.58-.99.5-.81-.25-1.71-1.15-2.3-.96-1.85.6.17-3.77-2.71-1.88-1.08.71-3.5-.5-4.43.25-1.8,1.44-3.17.68-4.37-.2-1.26-.94-2.51-.77-3.82-.87-.23-.02-.44-.31-.67-.47.22-.22.45-.42.65-.66.82-.96,1.9-1.03,2.8-.39,1.16.82,1.98.62,3.22.05,1.15-.53,2.66-.21,3.99-.4.46-.06.88-.51,1.31-.77-.36-.35-.67-.79-1.09-1.01-.5-.26-1.1-.32-1.65-.46.42-.44.78-.93,1.26-1.29,1.68-1.28,3.46.13,5.18-.12-.4.55-.82,1.09-1.19,1.67-.18.27-.26.6-.39.91.26.07.52.17.78.19.57.03,1.15,0,1.72,0v1.85c-.31,0-.62,0-1.34.09-.1-.15.16-.33.42-.52-.21-.16-.43-.47-.64-.46-.38.02-.76.22-1.13.35.28.21.55.43,1.35.63.52.16.62.42.72.68.21-.26.41-.51.62-.77.31-.23.62-.47.92-.7-.31-.38-.62-.77-.92-1.15,0-.15-.04-.43,0-.44,3.55-1.13,6.94-.52,10.23.99.78.36,1.48.86,2.22,1.3.63-1.38-.87-1.53-1.37-2.23-.28-.39-1.17-.33-1.48-.72-.32-.4-.26-1.1-.37-1.67.65-.12,1.33.26,1.9-.66,1.03-1.66,2.15-1.94,3.84-1.47.41.12.85.32,1.24.25,2.1-.35,3.99.51,6.38,1.21.28.09.13-.09-.01-.27l-.41.41c.18.14.36.3.56.41.03.02.19-.18-.13-.55-1.59-2.47-3.42-3.67-5.88-3.98-.32-.04-.6-.36-.9-.55.25-.12.51-.34.76-.33.87.04,1.92-.13,2.58.29,2.18,1.39,4.37,1.51,6.7.61-.11.88-.21,1.76-.33,2.63-.05.33-.32.81-.19.95.81.92,1.76,1.73,2.57,2.65.84.96,1.45,2.67,2.4,2.86,1.71.34.85,2.25,2.12,2.57.42.11.83.23,1.24.35.11-.52.49-1.34.3-1.5-1.54-1.31-.42-2.12.48-2.92.89-.79.95-1.53-.02-2.23-1.19-.86-1.68-2.66-3.53-2.62-.66-1.99-3.2-1.15-4.13-2.74,1.72-.89,3.3-1.61,5.21-.07,1.02.82,2.62.94,3.95,1.38-1.79,2.03.93,2.14,1.42,3.2.59,1.28,1.57,2.39,2.34,3.59.14.22.03.71.19.81.35.2.9.42,1.19.28.28-.14.57-.86.44-1.1-.95-1.74-2-3.43-3.02-5.13-.22-.36-.43-.73-.64-1.1,2.53.02,3.45,2.03,4.62,3.74.24.36.4.79.7,1.08.24.23.64.31.96.45.06-.28.27-.64.16-.83-.54-1-1.28-1.62-.18-3.07,1.01-1.32-.43-2.94-1.45-4.12-.55-.64-1.41-1.01-2.13-1.49-2.41-1.63-2.65-1.61-4.78.33-1.59,1.45-1.71,1.55-3.17-.04-1.14-1.24-2.3-1.69-3.98-1.64-2.72.08-4.54-2.36-7.09-2.9-.11-.02-.18-.21-.27-.32.25-.14.49-.29.74-.43,1.09-.61,1.81,1.02,3.1.4,1-.49,2.33-.29,3.52-.4l.92.92c.87.48-2.68,1.78.34,1.84,1.23.03,2.46.03,3.69,0,3.12-.07,6.24-.26,8.92,1.83.19.15.6.02,4.17,3.68,3.17,3.21,3.2,2.55,2.91,2.1-.89-1.33-1.82-2.64-2.89-3.81-.87-.94-1.56-2.36-3.28-1.95.62.81,1.26,1.6,1.84,2.43,1.23,1.77,2.41,3.56,3.63,5.33.14.2.42.3.63.45.12-.25.24-.51-2.84-4.56-4.22-5.85-6.17-6.7-8.26-7.36-.53-.17-1.1-.31-1.56-.59-.31-.19-.46-.62-.69-.94.26-.11.51-.29.78-.3,1.59-.06,3.14.1,4.67-.84.54-.33,1.8.51,3.15,1.09.28.09.13-.09-.01-.27l-.41.41c.18.14.36.3.56.41.03.02.19-.18-.13-.55-.19-.58.02-1.12.29-1.15,1.05-.1,2.12.01,3.17-.06.85-.06,1.7-.27,2.55-.41-.74-1.01-1.61-1.66-2.98-1.44-.74.12-1.53.13-2.26-.02-.44-.09-.8-.56-1.19-.86.38-.32.78-.61,1.13-.96.27-.27.48-.61.72-.92.61,0,1.21,0,1.82,0,.72,0,2.21-1.9,1.87.73-.22,1.68,1.83.68,2.07,1.79.54-.37,1.21-.66,1.55-1.16.15-.22-.31-.95-.62-1.35-.3-.38-.76-.63-1.15-.94.77,0,1.54-.03,2.3,0,1.39.06,1.72-.29.56-1.3.33-.18.84-.6.95-.51,1.48,1.19,2.74.91,4.38.06,1.4-.73,2.6.94,3.94,1.4.2.07.58.11.62.03.13-.25.27-.63.16-.83-1.13-2.1-2.88-2.94-5.26-2.57-.37.06-.79-.28-1.19-.43.39-.15.78-.36,1.19-.46,1.4-.33,2.83-.91,4.22-.86,1.57.06,2.8-.83,4.23-.97.71-.07,1.7-.11,2.14.3,1.25,1.15,2.64.31,4.35.86.28.09.13-.09-.01-.27l-.41.41c.18.14.36.3.56.41.03.02.19-.18-.13-.55-.82-.58-1.18-.95-1.61-1.18-.91-.48-.94-1.13-.27-1.74.39-.36,1.11-.35,1.53-.69.82-.67,1.42-1.75,2.34-2.13,1.31-.55,2.91.49,4.35-.66.45-.36,1.87.17,2.63.64,1.06.66,2.09.96,3.32.93.37,0,1.13.64,1.09.9-.19,1.29.62,1.92,1.37,2.69,1.77,1.8,3.8,3.38,4.9,5.77.12.27.62.36.95.53.05-.41.28-.92.12-1.23-1.27-2.43-2.72-4.76-4.51-6.86.31,0,.8.12.89-.02.54-.87,1.7,2.7,1.96-.29.03-.39,1.11-.68,1.71-1.02-.59-.32-1.63-.57-1.69-.98-.31-1.92-1.77-1.8-3.07-2.47-1.81-.93-3.17.17-3.35.87-.53,2.12-1.09.21-1.61.25-1.58.13-2.75-.76-4.02-1.4-.39-.19-.66-.63-.98-.95.39-.15.78-.43,1.18-.44,1.53-.05,3.06-.1,4.58,0,1.12.08,2-.63,3.28-.48,1.25.14,2.54,1.07,3.89.46,0,.3-.13.7.02.89,1.75,2.24,3.45,4.53,6.02,6.97.33.19.13-.14-.07-.47-.14.14-.43.33-.41.42.12.46.34.9.52,1.35.13-.23.26-.47-.05-1.3-1.14-3.84-3.18-6.33-6.04-7.87-.1-.57-.2-1.13-.31-1.7-.07-.33-.17-.65-.25-.97.41.03,1.15-.03,1.19.12.49,1.65,1.02,2.31,2.61.77,1.84-1.78,4.04-1.17,6.17-.4.53.19,1.13.22,3.54,2.8,1.37.43.16-1.14-1.4-2.47-.09-.07-.42-.02-.42,0-.02.3-.14.67,0,.89.91,1.43,1.86,2.84,2.82,4.24.1.14.41.16.62.17.07,0,.15-.22-1.62-2.81-2.28-3.07-2.67-3.7-3.16-4.23-.57-.62-.59-.94.34-1.02.88-.08,1.77-.14,2.64-.29.84-.15,1.66-.41,2.49-.63-.23.85-.46,1.7-.71,2.55-.1.33-.46.86-.36.95,2.47,2.39,2.94,5.89,4.85,8.58.22.31.64.49.96.74.11-.41.25-.82.33-1.24.05-.3-.12-.72.03-.9,1.06-1.28-1.62-2.19-.28-3.5,1.52-1.47,3.1-2.7,5.39-2.57.4.02.82-.22,1.23-.34-.45-.22-.94-.38-1.36-.66-1.09-.73-2.22-1.42-3.17-2.3-.46-.42-.95-1.45-.74-1.82.48-.86,1.18-.35,1.85.15.41.31,1.11.25,1.68.36.32,1.8,1.7.75,2.58.89,1.92.31,4.48-.86,4.96,2.43.03.18.85.15,1.17.39,1.45,1.1,3.56,1.52,3.92,3.79.04.26.61.43.94.64.1-.42.41-.97.26-1.24-.88-1.49-.51-3.48-1.94-4.74-.27-.24-.41-.64-.61-.97.27-.09.54-.19.81-.27,3.89-1.15,6.15,1.51,7.92,4.04,1.26,1.81,2.13,3.45,4.57,3.49.13,0,.25.77.37,1.18-.31.02-.71.18-.92.04-2.41-1.59-4.54.42-6.81.6-.51.04-1.16,1.5-1.28,2.36-.1.76,1.95,1.61,2.86,1.36,1.66-.44,3.49-.58,4.95-1.38,1.53-.84,2.62-.7,4.15-.1,1.33.53,2.95.3,4.44.41,1.03,1.24.84,2.73.96,4.19.2,2.5,1.57,3.72,4.06,4.15.82.14,1.58.59,2.86,1.37.33.19.13-.14-.07-.47-.14.14-.43.33-.41.42.12.46.34.9.52,1.35.13-.23.26-.47-.05-1.3-.54-1.65-.2-2.86-1.44-3.81-.63-.48-.8-1.53-1.37-2.16-.58-.65-1.39-1.11-2.09-1.66,1.54-.86-.6-1.35-.22-2.09,2.65-1.45,2.79-1.42,5.07,2.36.14.44.09-.74-.52-1.37-.53-.54-1.7-.46-2.58-.65.24.63.44,1.28.74,1.87.38.76.77,1.53,1.3,2.18.18.22.81.15,1.19.06.17-.04.24-.48-.13-2.1.21-1.3,1.41-1.86,1.34-.72-.1,1.46.67,2.24,1.55,3.07,1.05,1,1.79,1.65,2.31-.55.3-1.26,2.61-1.29,3.42-.16.49.68.91,1.49,1.07,2.3.32,1.56-.86,3.7,1.81,4.24.47,2.25,2.23,2.29,3.99,2.42.25.02.74.77.66.89-1.93,3.05,1.48,3.06,2.49,3.51,1.39.62,1.24.66.42,1.56-.14.16.23,1.13.6,1.34.72.42,1.59.62,2.42.79.13.03.6-.74.56-.79-1.06-1.1-.91-2.46-.87-3.79,0-.25.26-.5.4-.75.22.19.48.35.64.58,1.05,1.43,2.02,2.91,1.69,4.81-.11.62-.64,1.69-.57,1.72,1.17.57,1.61.01,1.56-1.17,0-.07.52-.28.6-.21.68.62,1.86,1.28,1.87,1.93.02,2.13,1.84,2.99,2.6,4.49.88,1.74,2.82,3,2.33,5.51-.54,2.75.86,5.92-1.91,8.16.17-1.28-.97-2.41-.09-3.89.57-.96-.84-4.69-2.09-6.09.07-.3.31-.46.31-.61-.01-.4-.14-.8-.21-1.19-.2.05-.58.11-.58.16,0,.5.07.99.49,1.65.33,2.13.28,4.43.34,6.74.05,2.1-.03,4.1-1.27,5.95-.45.67-.48,1.66-.56,2.52-.04.38.35,1.16.39,1.15,3.35-.86,1.76,4.33,4.74,3.86-.07.33-.04.86-.22.95-1.7.79-.86,1.93-.28,2.8.75,1.11,1.77,2.05,2.69,3.05.16.18.43.26.65.38.11-.26.3-.52.31-.79.03-1.23.01-2.46.01-3.69,1.59.93.78,3.42,2.71,4.22.18.07.11,1.57-.28,2.05-1.14,1.41-.35,2.94-.56,4.38,2.76,1.13,2.16,2.87.94,4.81-.14.22.33.76.4,1.17.19,1.16.46,2.33.44,3.49-.02.92-.89,2.37-.56,2.66,1.38,1.23-.99,1.59-.39,2.69.48.9-.76,2.18-.68,2.79.19,1.47.37,2.62-1.01,3.53,2.01,2.21-.71,3.51-1.06,5.26-.39,1.94-1.1,3.84-1.82,5.7-.72,1.85-1.65,3.62-2.43,5.45-.59,1.37-.97,2.88-3,2.65-.31-.04-.82.31-.99.62-.97,1.74-1.78,3.58-2.83,5.28-.56.91-.94,1.31-.36,2.65,1.18,2.71.09,5.44-1.65,7.75-2.21,2.96-4.51,5.75-7.69,7.89-2.02,1.36-3.26,3.84-4.99,5.69-1.83,1.97-4.11,3.52-6,5.36-2.16,2.11-4.18,4.16-6.81,5.77-3.18,1.95-3.02,2.2-6.73,2.77-.45.07-.96.24-1.29.54-1.66,1.49-3.09,3.18-5.15,4.28-2.19,1.17-3.69,1.31-6.65,1.59-2.72.26-5.67.93-7.85,2.74-4.57,3.82-10.15,5.2-15.54,7.08-.67.23-1.36.97-1.92.86-4.58-.93-7.56,2.08-10.6,4.49-1.54,1.22-3.53,1.11-5.01,2.7-1.05,1.13-2.78,2.63-4.9,2.44-.1,0-.22.3-.32.3-2.59-.1-4.9.82-6.87,2.33-1.91,1.47-4.29,1.57-6.32,2.6-2.79,1.42-5.6,2.79-8.54,3.89-2.4.9-4.75,1.84-7.03,3.13-1.79,1.01-4.5.4-6.3,1.4-2.48,1.38-4.9,1.83-7.61,1.77-.64-.01-1.49.39-1.9.88-3.59,4.4-9.33,5.13-13.73,8.13-1.75-.86-3.39.68-5.17.21-1.61-.43-3.04.09-3.95,1.53-1.49,2.36-4.58,1.91-6.32,3.63-1.16,1.15-2.5-1.52-3.23.4-.43,1.15-1.49,1.54-2.18,2.29-2.33,2.57-5.36,2.84-8.42,3.19-.91.11-1.84.02-2.77.02-1.38,0-2.91-.36-4.11.12-.89.35-1.4,1.76-2.01,2.74-1.16,1.86-2.96,1.93-4.81,1.73-.52-.06-.98-.67-1.51-.76-.4-.06-.86.33-1.3.48-.14.05-4.6-2.3-4.78-2.46.31-.31.62-.62.92-.92,1.04.8,2.05,1,2.68-.41.28-.64.1-1.48.38-2.12.19-.44.77-.92,1.25-1,2.09-.35,2.1-.3,2.17-2.02,1.78-.57.32-2.84,1.85-3.54-.28-.49-.45-1.17-.88-1.44-.94-.6-2.02-1-3.03-1.5-.25-.12-.47-.31-.71-.47.24-.15.48-.43.73-.43,1.83-.04,3.66,0,5.49-.04.39-.01.78-.29,1.16-.45-.39-.15-.79-.31-1.18-.45-.51-.18-1.03-.34-1.54-.5.43-.43.79-1.09,1.31-1.25,2.19-.68,4.21-1.63,6.14-2.85,1.37-.86,2.81-1.59.83-3.26.3-2.69-1.63-5.11-.92-7.85,2.74-.11,2.87-.12,2.74-2.11-.15-2.19-.55-4.37-.92-6.53-.07-.38-.5-.79-.86-1-1.91-1.11-2.86-2.9-3.91-4.76-1.36-2.4-3.2-4.52-4.8-6.79-.16-.23-.08-.64-.1-.97.42.1,1.08.06,1.21.31,1.49,2.81,4.36,4.21,6.53,6.31,1.25,1.21,3.23,1.9,4.99,2.26,1.25.25,2.7-.44,4.05-.73.13-.03.22-.21.33-.32-1.72-.82.37-1.71-.03-2.45-.5-.92-.52-1.42.14-2.46.96-1.51,1.5-3.46,1.62-5.26.07-1.12-.79-2.45-1.56-3.43-.69-.88-.96-1.7-1.18-2.78-.3-1.5-1.22-2.86-1.73-4.34-.17-.49.13-1.14.22-1.72.22.39.37.85.68,1.15.48.46,1.06.8,1.6,1.19.34-.74,1.02-1.53.93-2.22-.19-1.39-.58-2.85-1.29-4.05-.69-1.17.24-1.54.45-2.3.12-.44-1.58-1.34.45-1.42.22,0,.66-.86.57-.97-.54-.64-1.13-1.56-1.83-1.68-1.49-.25-3.06-.08-4.8-.08-.07,0,.07,0,.21,0-.09-.24-.13-.51-.28-.7-.04-.06-.37.1-.56.15.14.18.28.36.63.55.21.46.21.92.21,1.38-.43-.12-1.05-.1-1.27-.39-1.22-1.59-2.78-2.22-4.74-1.92-.85.13-1.87-.38-2.49.65-.45-.52-.8-1.33-1.36-1.5-.84-.26-1.82-.03-2.74-.09-.41-.03-.81-.25-1.21-.39.35-.17.7-.35,1.06-.52,2.44-1.16,5.14-1.81,7.63-3.43.28.09.13-.09-.01-.27-.14.14-.27.27-.41.41.18.14.36.3.56.41.03.02.19-.18-.13-.55ZM113.69,154.32c-.14-.18-.29-.36-.44-.54l-.41.41c.18.14.36.3.56.41.03.02.19-.18-.56-.82-.31-.31-.62-.62-1.34-.92h.41c-.09-.24-.13-.51-.28-.7-.04-.06-.37.1-.56.15.14.18.28.36.84.55.31.31.62.62,1.77,1.46ZM152.16,52.16h.41c-.09-.24-.13-.51-.28-.7-.04-.06-.37.1-.56.15.14.18.28.36.84.55.31.31.62.62.92.92,0,2.52,2.04,3.42,3.7,4.62-.15,1.43.39,2.41,2.84,3.72-.17-.28-.36-.61-.56-.95-.14.14-.43.33-.41.42.12.46.34.9.52,1.35.13-.23.26-.47-.54-1.77.15-1.43-.39-2.41-1.85-2.77,0-2.52-2.04-3.42-3.7-4.62-.31-.31-.62-.62-1.34-.92ZM138.64,147.86c-.14-.18-.29-.36-.44-.54-.14.14-.27.27-.41.41.18.14.36.3.56.41.03.02.19-.18-.56-.82-.31-.31-.62-.62-.92-.92-.31-.31-.62-.62-.92-.92-.31-.31-.62-.62-1.34-.92h.41c-.09-.24-.13-.51-.28-.7-.04-.06-.37.1-.56.15.14.18.28.36.84.55.31.31.62.62.92.92l.92.92c.31.31.62.62,1.77,1.46ZM243.11,54l-.92-.92c0-.62,0-1.23-5.61-9.76-.11-.11-.22-.22-.33-.33-.18.19-.48.35-.51.56-.33,2.15.09,3.83,2.29,4.99,3.22,1.7,6.39,3.57,9.34,5.7,1.32.96,1.58-.02,1.97-.54.48-.63.5-1.46-.68-1.54-.84-.05-1.09-.31-.42-.97.32-.31.66-.82,1.02-.84,2.09-.12.94-1.09.27-1.4-2.58-1.18-5.24-2.18-7.87-3.26-1.05-.43-2.09-.89-3.13-1.34.5-2.52-1.67,0,3.65,6.89-.56.09-1.11.19-1.67.28.3.42.57.87.92,1.25.17.18.5.22.75.32.31.31.62.62.92.92l.92.92c.14.7-.46,1.77,1.77,2.39-.14-.18-.29-.36-.44-.54l-.41.41c.18.14.36.3.56.41.03.02.19-.18-.56-.82-.14-.7.46-1.77-.92-1.85-.31-.31-.62-.62-.92-.92ZM263.05,135.38c-.18.14-.36.29-.54.44.14.14.27.27.41.41.14-.18.3-.36.41-.56.02-.03-.18-.19-.82.97v-.41c-.24.09-.51.13-.7.28-.06.04.1.37.15.56.18-.14.36-.28,1.08-1.69ZM176.52,124.76c-.14-.18-.29-.36-.44-.54-.14.14-.27.27-.41.41.18.14.36.3.56.41.03.02.19-.18-.56-.82-.31-.31-.62-.62-.92-.92.28-1.51-.34-2.13-2.26-1.85h.41c-.09-.24-.13-.51-.28-.7-.04-.06-.37.1-.56.15.14.18.28.36.84.55.62.62,1.23,1.23,1.85,1.85.31.31.62.62,1.77,1.46ZM74.55,66.01h.41c-.09-.24-.13-.51-.28-.7-.04-.06-.37.1-.56.15.14.18.28.36.84.55.31.31.62.62,6.47,9.18,0-.75.17-1.3-.03-1.65-1.35-2.45-2.88-4.78-5.07-6.59-.09-.08-.43-.02-.43,0-.02.46-.2,1.03,0,1.35,1.49,2.3,3.05,4.54,4.59,6.8.21.31.36.67.54,1.01.17-.39.33-.78-5.15-9.17-.31-.31-.62-.62-1.34-.92ZM179.87,74.33h.41c-.09-.24-.13-.51-.28-.7-.04-.06-.37.1-.56.15.14.18.28.36.84.55.31.31.62.62.92.92.94,2.34,2.36,4.3,4.62,5.54-.15,1.43.39,2.41,2.84,3.72-.17-.28-.36-.61-.56-.95-.14.14-.43.33-.41.42.12.46.34.9.52,1.35.13-.23.26-.47-.54-1.77.15-1.43-.39-2.41-1.85-2.77.49-2.55-2.93-2.93-2.95-5.22,0-.11-.48-.26-.76-.31-.3-.05-.61-.01-.92-.01-.31-.31-.62-.62-1.34-.92ZM114.28,75.25h.41c-.09-.24-.13-.51-.28-.7-.04-.06-.37.1-.56.15.14.18.28.36.84.55l.92.92c-.14,2.03,1.29,2.88,2.77,3.7.31.31.62.62.92.92.14.7-.46,1.77,1.77,2.39-.14-.18-.29-.36-.44-.54-.14.14-.27.27-.41.41.18.14.36.3.56.41.03.02.19-.18-.56-.82-.14-.7.46-1.77-.92-1.85-.31-.31-.62-.62-.92-.92.14-2.03-1.29-2.88-2.77-3.7-.31-.31-.62-.62-1.34-.92ZM153.42,101.66c-.14-.18-.29-.36-.44-.54-.14.14-.27.27-.41.41.18.14.36.3.56.41.03.02.19-.18-.56-.82-.31-.31-.62-.62-.92-.92s-.62-.62-.92-.92v-1.85l.77-.3-.77-.62c0-.45.18-1.17-.03-1.3-1.82-1.16-.42-2.23.56-4.16-.18.14-.36.29-.54.44.14.14.27.27.41.41.14-.18.3-.36.41-.56.02-.03-.18-.19-.82.56-.56-.1-1.49-.04-1.63-.33-.52-1.14-.93-2.38-1.1-3.62-.13-.99-.09-1.78-1.45-1.61-1.08.14-2.59-.49-2.31,1.62.2,1.54-1.01,1.04-1.81,1.19-.35.07-.84.39-.89.67-.06.34.15.94.44,1.12,2.17,1.33,4.47,2.47,5.97,4.65h-1.85c-.08-1.38-1.15-.78-1.85-.92-.23-.31-.47-.62-.7-.92-.38.31-.77.62-1.15.92-.31.31-.62.62,2.77,9.5,0-.15.07-.37,0-.45-2.03-2.17-2.42-5.14-3.73-7.65-.43-.83-1.35-1.41-2.04-2.1-.43.59-.76,1.31-1.32,1.75-1.29,1.03-1.29,1.45.38,2.06.86.31,1.41,1.49,2.09,2.28,1.26,1.47,2.52,2.94,3.8,4.39.11.13.42.11.63.09.07,0,.13-.24-3.51-8.94.31-.31.62-.62.92-.92h1.85c.08,1.38,1.15.78,1.85.92.08,1.38,1.15.78,1.85.92.1.26.2.51.3.77.21-.26.41-.51.62-.77h1.85v.92c-.31.23-.62.47-.92.7.31.38.62.77.92,1.15.31.31.62.62.92.92s.62.62,1.77,1.46ZM226.48,96.5c.31.31.62.62.92.92-.14,2.03,1.29,2.88,3.62,4.23-.14-.18-.29-.36-.44-.54-.14.14-.27.27-.41.41.18.14.36.3.56.41.03.02.19-.18-.56-.82.14-2.03-1.29-2.88-2.77-3.7-.31-.31-.62-.62-1.34-.92h.41c-.09-.24-.13-.51-.28-.7-.04-.06-.37.1-.56.15.14.18.28.36.84.55ZM239.34,95.19c-.14-.18-.29-.36-.44-.54l-.41.41c.18.14.36.3.56.41.03.02.19-.18-.56-.82-.31-.31-.62-.62-1.41-.92.18,0,.46.01.46,0,.02-.3.08-.62,0-.91-.27-1.1-.9-1.84-2.13-1.85-.12,0-.25.12-.37.19.47.64.93,1.29,1.41,1.93.18.24.42.44,1.1.64.31.31.62.62,1.77,1.46ZM170.97,95.19c-.14-.18-.29-.36-.44-.54-.14.14-.27.27-.41.41.18.14.36.3.56.41.03.02.19-.18-.56-.82-.31-.31-.62-.62-.92-.92.15-1.43-.39-2.41-1.85-2.77-.31-.31-.62-.62-.92-.92s-.62-.62-1.36-.83c.18-.22.4-.36.42-.53.07-.73.08-1.49-.99-1.4-.25.02-.48.22-.72.33.42.52.83,1.03,1.73,1.5.31.31.62.62.92.92.31.31.62.62.92.92-.15,1.43.39,2.41,1.85,2.77.31.31.62.62,1.77,1.46ZM107.3,82.64c-.31-.31-.62-.62-1.58-.56.4-.49.64-.64.64-.8-.01-.4-.14-.8-.21-1.19-.2.05-.58.11-.58.16,0,.5.07.99.82,1.47.31.31.62.62.92.92s.62.62.92.92c.14.7-.46,1.77,1.77,2.39-.14-.18-.29-.36-.44-.54-.14.14-.27.27-.41.41.18.14.36.3.56.41.03.02.19-.18-.56-.82-.14-.7.46-1.77-.92-1.85-.31-.31-.62-.62-.92-.92ZM158.96,91.5c-.14-.18-.29-.36-.44-.54-.14.14-.27.27-.41.41.18.14.36.3.56.41.03.02.19-.18-.56-.82-.31-.31-.62-.62-.92-.92-.19-2.07-.7-2.58-3.18-2.77h.41c-.09-.24-.13-.51-.28-.7-.04-.06-.37.1-.56.15.14.18.28.36.84.55.11.74-.43,1.74,1,1.89.61.06,1.18.57,1.77.88.31.31.62.62,1.77,1.46ZM94.29,90.57c-.14-.18-.29-.36-.44-.54-.14.14-.27.27-.41.41.18.14.36.3.56.41.03.02.19-.18-.97-.82h.41c-.09-.24-.13-.51-.28-.7-.04-.06-.37.1-.56.15.14.18.28.36,1.69,1.08ZM179.29,88.73c-.14-.18-.29-.36-.44-.54l-.41.41c.18.14.36.3.56.41.03.02.19-.18-.56-.82-.14-.7.46-1.77-.92-1.85-.14-.7.46-1.77-1.4-1.85h.48c0-.3.11-.67-.02-.9-1.58-2.84-3.54-5.38-6.13-7.38-.19-.15-.94.11-1.12.39-.17.26,0,1.12.13,1.15,1.62.33,2.13,1.55,2.91,2.83.92,1.51,2.48,2.63,4.23,3.91.14.7-.46,1.77.92,1.85.14.7-.46,1.77,1.77,2.39ZM200.54,84.11c-.14-.18-.29-.36-.44-.54-.14.14-.27.27-.41.41.18.14.36.3.56.41.03.02.19-.18-.56-.82-.14-.7.46-1.77-.92-1.85-.14-.7.46-1.77-.92-1.85-.31-.31-.62-.62-.92-.92.11-.93-.11-1.65-.88-2.32-.74-.64-1.27-1.53-1.89-2.3.93-.11,1.82,0,2.27.91.81,1.64,1.57-.06,2.35.01,0,.75-.07,1.51.02,2.24.06.46.36.89.55,1.34.42-.42,1.21-.87,1.19-1.27-.04-.79-.54-1.55-.31-3.17-.18.14-.36.29-.54.44.14.14.27.27.41.41.14-.18.3-.36.41-.56.02-.03-.18-.19-.82.56h-.92c0-.62,0-1.23.54-2.7-.18.14-.36.29-.54.44l.41.41c.14-.18.3-.36.41-.56.02-.03-.18-.19-.82.56-.48-.87-1.82,2.68-1.82-.34,0-1.15.11-2.41.58-3.43.79-1.74.19-3.12-.61-4.55.68.22,1.5.26,2.01.68,1.85,1.55,3.6,3.23,8.35,8.59-.78-1.16-1.64-2.45-2.52-3.72-.05-.07-.42-.02-.42,0-.02.3-.13.66,0,.9.59,1.12,1.23,2.22,1.9,3.3.09.14.41.17.63.17.07,0,.15-.22-2.54-4.37,0-.46.2-1.1-.03-1.35-1.34-1.47-2.72-2.9-4.19-4.23-.96-.87-2.03-1.96-3.19-2.18-1.51-.28-2.97-.32-4.19-1.44-.13-.12-1.25.42-1.26.69-.06,1.56-1.18.98-1.97,1.12-.27.05-.51.23-.77.35.32.19.61.43.95.55.54.18,1.11.28,1.66.42-.28.32-.56.66-.86.97-.53.55-1.09,1.08-1.62,1.63-1.26,1.3-1.18,1.23.24,2.62,1.01.99,2.96.84,3.21,2.7h-1.38c.02.33-.08.72.07.97.69,1.12,1.87,1.73,2.42,3.16.41,1.07,2.29,1.58,3.51,2.34.31.31.62.62.92.92.14.7-.46,1.77.92,1.85.14.7-.46,1.77,1.77,2.39ZM99.84,129.38c-.14-.18-.29-.36-.44-.54l-.41.41c.18.14.36.3.56.41.03.02.19-.18-.56-.82-.14-.7.46-1.77-.92-1.85-.55-2.08-.63-4.55-4.97-4.62h1.27c-.4-.55-.8-1.11-1.2-1.66-.22.22-.65.49-.61.64.11.43.41.8,1.81,1.02,0,2.52,2.04,3.42,3.7,4.62.14.7-.46,1.77,1.77,2.39ZM38.38,212.65c-.49-.4-.64-.64-.8-.64-.4.01-.8.14-1.19.21.05.2.11.58.16.58.5,0,.99-.07,2-1.67-.18.14-.36.29-.54.44.14.14.27.27.41.41.14-.18.3-.36.41-.56.02-.03-.18-.19-.46,1.21ZM132.31,78.05c-.17-.28-.36-.61-.56-.95-.14.14-.43.33-.41.42.12.46.34.9.52,1.35.13-.23.26-.47-.54-1.77-.14-.7.46-1.77-.92-1.85-.81-2.68-2.04-5.07-4.64-6.45-.24-.13-.6-.02-1.31-.02h.41c-.09-.24-.13-.51-.28-.7-.04-.06-.37.1-.56.15.14.18.28.36.84.55,2.04,1.99,2.74,5.13,5.54,6.47.14.7-.46,1.77,1.91,2.8ZM143.33,108.51c-.14-.7.46-1.77-1.39-1.85h.47c0-.31.08-.64-.01-.91-1.23-3.59-4.45-5.54-6.83-8.17-.02-.03-.69.4-.91.72-.16.23-.18.89-.1.92,2.66,1.01,4.2,3.08,5.49,5.48.41.78,1.26,1.32,2.37,1.97.14.7-.46,1.77,1.91,2.8-.17-.28-.36-.61-.56-.95-.14.14-.43.33-.41.42.12.46.34.9.52,1.35.13-.23.26-.47-.54-1.77ZM134.02,113.67c-.14-.18-.29-.36-.44-.54-.14.14-.27.27-.41.41.18.14.36.3.56.41.03.02.19-.18-.56-.82-.14-.7.46-1.77-.92-1.85.14-2.03-1.29-2.88-3.35-3.7.27,0,.55.01.56,0,.02-.3.14-.69,0-.89-.69-.94-1.46-1.82-2.21-2.71-.02-.03-.27.06-.3.14-.11.26-.32.65-.22.79.7.94,1.47,1.83,2.75,2.67-.14,2.03,1.29,2.88,2.77,3.7.14.7-.46,1.77,1.77,2.39ZM195.99,114.06c-.31-.31-.62-.62-1.36-.83.18-.22.4-.36.42-.53.07-.73.08-1.49-.99-1.4-.25.02-.48.22-.72.33.42.52.83,1.03,1.73,1.5.31.31.62.62,1.91,1.87-.17-.28-.36-.61-.56-.95-.14.14-.43.33-.41.42.12.46.34.9.52,1.35.13-.23.26-.47-.54-1.77ZM140.48,71.17c-.14-.18-.29-.36-.44-.54-.14.14-.27.27-.41.41.18.14.36.3.56.41.03.02.19-.18-.56-.82-.14-.7.46-1.77-.92-1.85-.07-2.08-1.58-3.27-2.85-4.6-.14-.14-.56-.02-1.42.21.3-.36.51-.51.56-.7.32-1.16-.75-1.53-1.28-2.22-.19.17-.56.42-.53.49.36.78.77,1.53,1.82,2.19.87,1.83,1.59,3.78,3.7,4.62.14.7-.46,1.77,1.77,2.39ZM216.32,66.94c-.31-.31-.62-.62-1.39-.92.16,0,.45.01.45,0,.02-.3.15-.74,0-.89-1.53-1.58-3.1-3.11-4.67-4.64-.07-.07-.37-.04-.42.04-.12.18-.27.54-.19.62,1.59,1.64,3.22,3.26,5.3,4.87.31.31.62.62.92.92.14.7-.46,1.77.92,1.85-.15,1.43.39,2.41,2.84,3.72-.17-.28-.36-.61-.56-.95-.14.14-.43.33-.41.42.12.46.34.9.52,1.35.13-.23.26-.47-.54-1.77.15-1.43-.39-2.41-1.85-2.77-.14-.7.46-1.77-.92-1.85ZM183.57,115.91h.41c-.09-.24-.13-.51-.28-.7-.04-.06-.37.1-.56.15.14.18.28.36,2.86,1.2-.55-.22-1.06-.46-1.6-.63-.09-.03-.28.26-.42.41.5.43,1,.87,1.5,1.3.12-.24.23-.48-1.92-1.73ZM29.42,204.43c-.22.55-.46,1.06-.63,1.6-.03.09.26.28.41.42.43-.5.87-1,1.3-1.5-.24-.12-.48-.23-1.73,1.92v-.41c-.24.09-.51.13-.7.28-.06.04.1.37.15.56.18-.14.36-.28,1.2-2.86ZM200.34,109.26c-.22.55-.46,1.06-.63,1.6-.03.09.26.28.41.42.43-.5.87-1,1.3-1.5-.24-.12-.48-.23-1.55,2.34-.24-.32-.42-.58-.61-.83-.16.21-.47.43-.46.64.02.38.22.76.35,1.13.21-.28.43-.55,1.19-3.79ZM101.35,156.56h.41c-.09-.24-.13-.51-.28-.7-.04-.06-.37.1-.56.15.14.18.28.36.84.55.62.62,1.23,1.23,2.7,2.39-.14-.18-.29-.36-.44-.54-.14.14-.27.27-.41.41.18.14.36.3.56.41.03.02.19-.18-.56-.82.28-1.51-.34-2.13-2.26-1.85ZM230.1,65.63c-.14-.18-.29-.36-.44-.54l-.41.41c.18.14.36.3.56.41.03.02.19-.18-.56-.82-.35-.91.86-2.34-.92-2.77.07-1.58.2-3.18-1.85-3.7v-.92c1.66-.69,1.17-1.96.4-2.74-1.31-1.34-2.9-2.41-4.43-3.53-.11-.08-.69.33-.91.62-.18.23-.16.62-.23.95,1.79-.34,1.31,1.57,2.15,2.23.83.65,1.4,1.63,2.08,2.47l.92.92c-.07,1.58.64,2.76,1.85,3.7.35.91-.86,2.34,1.77,3.31ZM150.79,66.96c-.17-.28-.36-.61-.56-.95-.14.14-.43.33-.41.42.12.46.34.9.52,1.35.13-.23.26-.47-.54-1.77.15-1.43-.39-2.41-1.85-2.77,0-2.52-2.04-3.42-4.53-4.44.32-.24.58-.42.83-.61-.21-.16-.43-.47-.64-.46-.38.02-.76.22-1.13.35.28.21.55.43,1.77.54,0,2.52,2.04,3.42,3.7,4.62-.15,1.43.39,2.41,2.84,3.72ZM47.52,178.17c.4-.49.64-.64.64-.8-.01-.4-.14-.8-.21-1.19-.2.05-.58.11-.58.16,0,.5.07.99,2.04,3.25-.35-.81-.57-1.29-.79-1.78-.44.75-.89,1.5-1.29,2.28-.03.06.44.51.53.46.51-.25.96-.58-.34-2.38ZM134.94,109.98c-.15-.18-.29-.36-.44-.54l-.41.41c.18.14.36.3.56.41.03.02.19-.18-.56-.82.15-1.43-.39-2.41-1.85-2.77.21-.67.44-1.33.61-2.01.14-.55.21-1.12.31-1.69.31-.24.87-.46.88-.71.09-1.72-1.31-3.58-2.83-3.91-1.42-.31-3.9.91-4.46,2.3-.13.32,0,.96.25,1.2,1.71,1.64,3.48,3.22,5.24,4.82-.15,1.43.39,2.41,2.7,3.31ZM216.89,101.12h1.27c-.4-.55-.8-1.11-1.2-1.66-.22.22-.65.49-.61.64.11.43.41.8,1.81,1.02-.15,1.43.39,2.41,2.7,3.31-.14-.18-.29-.36-.44-.54-.14.14-.27.27-.41.41.18.14.36.3.56.41.03.02.19-.18-.56-.82.15-1.43-.39-2.41-3.12-2.77ZM225.72,61.47c-.48-.59-1.01-1.26-1.56-1.91-.07-.08-.43-.02-.43,0-.02.3-.12.66,0,.91.25.51.6.99.96,1.43.12.14.42.17.63.18.07,0,.15-.22-1.62-2.52.15-1.43-.39-2.41-2.4-2.55.29-.35.56-.63.54-.66-.39-.45-.75-1-1.25-1.26-1.07-.54-1.23-2.7-3.11-1.77.69.85,1.33,1.74,2.1,2.52.47.48,1.13.77,2.29.94-.15,1.43.39,2.41,3.86,4.69ZM158.04,136.77c-.14-.18-.29-.36-.44-.54-.14.14-.27.27-.41.41.18.14.36.3.56.41.03.02.19-.18-1.04-.82.18,0,.46.01.46,0,.02-.3.08-.62,0-.91-.27-1.1-.9-1.84-2.13-1.85-.12,0-.25.12-.37.19.47.64.93,1.29,1.41,1.93.18.24.42.44,1.95,1.18ZM53.64,71.17c-.14-.18-.29-.36-.44-.54-.14.14-.27.27-.41.41.18.14.36.3.56.41.03.02.19-.18-3.08.26.56-.3,1.32-.68,2.06-1.09.18-.1.31-.3.46-.45-.24-.15-.54-.49-.72-.43-.81.24-1.6.56-2.38.91-.21.09-.34.36-.51.54.26.12.51.25,4.45-.02ZM44.48,218.86c-.06-.17-.25-.75-.44-1.32-.16.52-.34,1.03-.47,1.56-.07.27-.04.57-.11.84-.11.42-.26.84-.4,1.25.14.01.34.09.42.03.36-.32.73-.65.99-1.04.13-.21.02-.58.56-3.49-.18.14-.36.29-.54.44.14.14.27.27.41.41.14-.18.3-.36.41-.56.02-.03-.18-.19-.82,1.88ZM127.79,147.39c-.48-.59-1.01-1.26-1.56-1.91-.07-.08-.43-.02-.43,0-.02.3-.12.66,0,.91.25.51.6.99.96,1.43.12.14.42.17.63.18.07,0,.15-.22-2-2.52.11-.13.37-.3.36-.46-.04-.42-.06-1.05-.32-1.21-.66-.4-1.45-.6-2.2-.86-.03-.01-.19.22-.22.35-.19,1.09.96,2.17,4.78,4.1ZM151.57,39.76c-.14-.18-.29-.36-.44-.54-.14.14-.27.27-.41.41.18.14.36.3.56.41.03.02.19-.18-.56-.82.14-2.03-1.29-2.88-4.04-3.7h1.27c-.4-.55-.8-1.11-1.2-1.66-.22.22-.65.49-.61.64.11.43.41.8,1.81,1.02-.14,2.03,1.29,2.88,3.62,4.23ZM133.09,54.93c.45,0,.91.07,1.34-.02.49-.1.96-.34,1.43-.52-.4-.13-.79-.36-1.19-.37-1.2-.05-2.39-.04-3.59,0-.24,0-.46.3-.69.45.15.15.29.42.45.43.75.05,1.5.02-1.91,1.1.48-.21.97-.43,1.46-.64-.29-.15-.61-.44-.87-.41-.62.08-1.22.33-1.82.51.37.16.74.32,5.39-.54ZM69.49,77.12c-.17-.28-.36-.61-.56-.95-.14.14-.43.33-.41.42.12.46.34.9.52,1.35.13-.23.26-.47-.54-1.77-.36-2.44-1.15-3.49-3.18-3.7h.41c-.09-.24-.13-.51-.28-.7-.04-.06-.37.1-.56.15.14.18.28.36.84.55.97,1.2.84,3.22,3.76,4.64ZM235.64,57.31c-.14-.18-.29-.36-.44-.54-.14.14-.27.27-.41.41.18.14.36.3.56.41.03.02.19-.18-1.13-.82.27,0,.55.01.56,0,.02-.3.14-.69,0-.89-.69-.94-1.46-1.82-2.21-2.71-.02-.03-.27.06-.3.14-.11.26-.32.65-.22.79.7.94,1.47,1.83,3.6,3.21ZM173.74,29.59c-.14-.18-.29-.36-.44-.54-.14.14-.27.27-.41.41.18.14.36.3.56.41.03.02.19-.18-.56-.82.14-2.03-1.29-2.88-2.91-3.68.04-.28.25-.74.11-.91-.81-.97-1.68-1.9-2.61-2.77-.1-.1-.97.28-1.01.52-.19,1.15,1.84,3.08,3.65,3.14-.14,2.03,1.29,2.88,3.62,4.23ZM251.35,91.5c-.14-.18-.29-.36-.44-.54-.14.14-.27.27-.41.41.18.14.36.3.56.41.03.02.19-.18-1.05-.82.2,0,.48.01.48,0,.02-.3.12-.64,0-.89-.62-1.35-1.42-2.54-3.05-2.79-.11-.02-.24.12-.37.19.67.85,1.34,1.71,2.03,2.55.28.35.62.65,2.25,1.49ZM106.47,75.43c.32-.24.58-.42.83-.61-.21-.16-.43-.47-.64-.46-.38.02-.76.22-1.13.35.28.21.55.43,1.77.54.31.62.62,1.23,3.5,4.96-.02-.02-.19-.27-.41-.32-1.27-.28-1.8-1.01-2.31-2.27-.31-.76-2.04-.95-3.13-1.4-.5,1.37.93,1.54,1.45,2.25.81,1.08,1.84,1.99,2.73,3.02.26.3-.18,1.45.77.78.49-.34.57-1.25-1.68-5.16.46.31.9.66,1.4.9.24.12.72.14.84,0,.16-.18.16-.62.06-.88-.25-.63-.6-1.23-.89-1.85-.77-1.66-1.56.06-3.16.16ZM148.8,139.54c-.15-.18-.29-.36-.44-.54-.14.14-.27.27-.41.41.18.14.36.3.56.41.03.02.19-.18-1.06-.82h.5c0-.3.11-.66-.02-.89-.93-1.66-2.05-3.13-3.98-3.72-.09-.03-.24.12-.36.19.98,1.16,1.96,2.33,2.96,3.48.29.34.61.65,2.25,1.48ZM159.86,133.8c.51-1.73-.63-2.41-1.44-3.26-.25-.26-.51-.52-.77-.78-.16.39-.39.76-.46,1.17-.3,1.69,1.32,2.19,2.1,3.2.02.03.49-.29-.63-6.59-.29.72-.47,1.03-.55,1.36-.06.27-.01.57-.01.86.31-.21.79-.37.88-.65.11-.32-.13-.76.87,4.69ZM179.29,121.99c-.14-.18-.29-.36-.44-.54-.14.14-.27.27-.41.41.18.14.36.3.56.41.03.02.19-.18-.56-2.16-.23-.83-.55-2.07-.94-3.28-.18-.56.62-1.66-.62-1.57-.37.03-1.08,1.41-.89,1.75.76,1.31.15,3.17,1.67,4.13.23.15.52.22.78.32,0-.3,0-.61.85.54ZM258.82,88.23c-.31-.79-.43-1.78-.99-2.3-.48-.45-1.59-.68-2.2-.44-.83.32-.7,1.17-.03,1.79.66.61,1.3,1.25,2.01,1.8.16.13.62.04.83-.11.2-.14.25-.49,1.45-6.78-.22-.41-.45-.87-.69-1.33-.21.52-.33,1.13-.68,1.53-.23.27-1.02.12-1.15.37-.22.42-.19,1.03-.1,1.53.07.39.4.74.61,1.11.48-.32,1.12-.54,1.39-.99.35-.59.4-1.36-.46,3.81ZM85.22,63.42c.32-.24.58-.42.83-.61-.21-.16-.43-.47-.64-.46-.38.02-.76.22-1.13.35.28.21.55.43,6.39,6.18-.61-2.45-2.5-3.97-4.17-5.63-.08-.08-.43-.02-.43,0-.02.3-.14.7,0,.91,1.27,1.79,2.57,3.54,3.9,5.29.06.08.43-.04.62-.14.08-.04.05-.27-5.37-5.87ZM180.21,50.84c-.14-.18-.29-.36-.44-.54-.14.14-.27.27-.41.41.18.14.36.3.56.41.03.02.19-.18-.56-.82-.35-3-2.14-4.98-5.03-6.47h.41c-.09-.24-.13-.51-.28-.7-.04-.06-.37.1-.56.15.14.18.28.36.84.55.48,1.69,2.54,4.58,5.47,7ZM44.99,66.01h.41c-.09-.24-.13-.51-.28-.7-.04-.06-.37.1-.56.15.14.18.28.36,4.42,1.12-.14-.19-.28-.55-.42-.55-1.5-.02-2.9.07-4.37.79-1.08.52-2.11.17-.63,1.55.91.84,1.52,1.79,2.62.16.53-.78,1.17-1.81,2.46-1.63.09.01.21-.2-3.66-.89ZM133.09,145.08c-.14-.18-.29-.36-.44-.54-.14.14-.27.27-.41.41.18.14.36.3.56.41.03.02.19-.18-1.96,2.85.16-.22.27-.55.49-.65,1.45-.68-3.01-3.14.92-3.03,0-.15.04-.32,0-.45-.35-.87-1.94-1.69-2.46-1.18-.64.63-1.97,1.14-.86,2.49.53.64.84,1.45,1.29,2.17.16.25.42.43,2.88-2.49ZM208.07,22.09c-.19-.16-.38-.27-.51-.43-.87-1.1-1.93-1.32-3.1-.58-1.09.68-2.13,1.45-3.14,2.24-.24.19-.28.62-.42.94.28.06.65.27.82.16,1.82-1.21,3.76-2.01,5.98-1.99.11,0,.22-.19,3.01.12,1.52,0,1.98.02,2.43-.01.12,0,.33-.27.31-.3-.14-.21-.29-.51-.49-.54-.45-.08-.94.07-1.37-.05-.4-.12-.69-.56-1.09-.7-1.46-.52-3.12.24-2.44.66,1.06.66,2.4.87.02.5ZM100.42,113.13h.41c-.09-.24-.13-.51-.28-.7-.04-.06-.37.1-.56.15.14.18.28.36.84.55-.25,2.11,2.75,1.12,2.97,3.26.14,1.35,1.75,2.56,2.74,3.8.15.19.5.22,1.61.86-.14-.18-.29-.36-.44-.54l-.41.41c.18.14.36.3.56.41.03.02.19-.18-.56-.82-.32-1.09-.32-2.47-1.01-3.2-1.57-1.66-2.34-4.51-5.86-4.19ZM113.86,106.85c.32-.24.58-.42.83-.61-.21-.16-.43-.47-.64-.46-.38.02-.76.22-1.13.35.28.21.55.43,1.77.54,0,.3-.13.71.02.88,2.17,2.46,3.35,5.78,7.44,8.38-.17-.28-.36-.61-.56-.95-.14.14-.43.33-.41.42.12.46.34.9.52,1.35.13-.23.26-.47-.54-1.77,0-.3.12-.68-.02-.89-1.78-2.79-3.41-5.72-7.28-7.24ZM114.85,64.17c-1.31,0-2.23-.05-3.14.02-.56.05-1.09.29-1.64.45.46.15.91.43,1.38.44,3.51.1,7.13-.46,10.27,1.83.21.15.79-.21,1.2-.33-.26-.32-.46-.78-.8-.95-2.41-1.2-4.95-1.76-11.68.13-.49-.4-.64-.64-.8-.64-.4.01-.8.14-1.19.21.05.2.11.58.16.58.5,0,.99-.07,6.25-1.74ZM156.78,86.34h.41c-.09-.24-.13-.51-.28-.7-.04-.06-.37.1-.56.15.14.18.28.36.84.55.66,2,2.07,3.4,3.7,5.03v-.41c-.24.09-.51.13-.7.28-.06.04.1.37.15.56.18-.14.36-.28.55-.84.57-.42,1.31-.72,1.67-1.28.4-.62.39-1.44-.74-1.49-1.08-1.76-2.8-1.93-5.03-1.85ZM231.1,93.73c.11-.57.2-1.14.32-1.7.07-.33.32-.86.21-.94-.71-.55-2.24.1-2.39.9-.59,3.06.86,5.4,2.67,7.6.16.2.63.16.95.23.03-.29.18-.66.06-.87-.76-1.37-1.9-2.56-1.83-4.29.26-.1.51-.2.77-.3-.26-.21-.51-.41-.77-.62ZM220.01,25.36q1.81-1.41.68-2.56c-.53-.54-1.03-1.11-1.62-1.59-.31-.25-.89-.57-1.13-.44-1.12.6-2.17,1.34-3.24,2.03.68.53,1.35,1.07,2.05,1.59.46.34.94.64,1.41.96,2.05,3,5.04,5.32,6.49,8.77.06.15.41.19.63.28.09-.27.31-.57.25-.8-.16-.68-.29-1.45-.69-1.99-1.56-2.13-3.21-4.18-4.83-6.26ZM168.79,43.84h.41c-.09-.24-.13-.51-.28-.7-.04-.06-.37.1-.56.15.14.18.28.36.84.55-1.17.97-1.28,1.03-1.8-.01-.29-.58-.8-1.17-.85-.42-.08,1.35-.86,1.3-1.66,1.51.43.64.77,1.37,1.3,1.89,1.26,1.22,2.61,2.34,4.92,4.45-.17-.28-.36-.61-.56-.95-.14.14-.43.33-.41.42.12.46.34.9.52,1.35.13-.23.26-.47-.54-1.77.09-1.41-1.27-2.89.07-4.2,1.79-1.76-.15-1.74-1.41-2.26ZM276.29,46.23c-.14-.18-.29-.36-.44-.54-.14.14-.27.27-.41.41.18.14.36.3.56.41.03.02.19-.18-1.47.86-.09-3.07-.09-3.06-1.73-3.54-.4-.12-.8-.56-1.15-.51-1.17.2-2.32.55-3.47.84.44,1.24,1.57.21,2.19.67.28.21.21,1.04.46,1.13,1.91.71,2.2,2.9,3.73,3.92.18.12.43.13.64.19.08-.28.29-.6.2-.82-.31-.79-.71-1.53.87-3.03ZM212.55,109.98c-.14-.18-.29-.36-.44-.54-.14.14-.27.27-.41.41.18.14.36.3.56.41.03.02.19-.18-.73-.56.08-.54.19-.87.16-1.18-.05-.57,0-1.3-.33-1.68-1.16-1.37-.62-2.94-.48-4.34.12-1.21,1.33,1.36,1.72-.16.28-1.08.03-2.29-1.08-2.66-.45-.15-1.36.69-1.88,1.25-.46.5-.54,1.37-1.02,1.83-1.1,1.04-.89,2.56-.49,3.37.63,1.3,2.04,2.21,4.42,3.84ZM244.03,90.78c0-.68.25-1.52-.05-1.85-.61-.68-1.48-1.38-2.34-1.52-.83-.13-2.49,2.67-2.2,3.56.52,1.61,1.08,3.23,1.87,4.72.54,1.02,1.09,2.31,2.65,2.27-.38-1.04-.76-2.09-1.12-3.14-.23-.67-.43-1.35-.64-2.03,1.96.49,1.99-.72,1.85-2.03ZM142.33,67.48c-.14-.18-.29-.36-.44-.54l-.41.41c.18.14.36.3.56.41.03.02.19-.18-.98-.76.15-.18.38-.33.41-.52.3-1.73-.61-3.6.62-5.22.09-.12.21-.22.32-.32-1.15-.53-2.32-1.01-3.42-1.64-.26-.15-.16-1.1-.35-1.14-.79-.19-1.64-.17-2.46-.23.19.43.37.86.56,1.29-.71.11-1.44.19-2.13.37-.08.02-.16.72,0,.88,2.01,2.07,4.06,4.11,6.11,6.15.11.11.21.22,1.63.86ZM254.19,44.76c0,.62,0,1.23,2.77,6.57-.92-1.58-1.8-3.18-2.83-4.69-.13-.19-1.11.06-1.6.31-.17.09-.13,1.1-.04,1.13,2.01.55,2.1,2.97,3.77,3.8.15.08.44-.05.62-.15.08-.04.05-.27-2.69-5.13.98-.15,1.81.09,2.36.98.54.86,1.03,1.75,1.65,2.54.31.39.85.6,1.28.89.33-.63,1.03-1.36.91-1.88-.34-1.46-1.26-2.8-1.53-4.26-.37-2.06-1.15.08-1.6-.28-.6-.47.03-1.91-1.54-1.71-2.14.27-1.4-.61-.49-1.5.27-.26.41-.64.61-.97-.42-.09-.84-.22-1.27-.27-1.53-.17-1.87,1.39-2.86,2,.45.65.86,1.34,1.38,1.94.27.31.72.45,1.1.67ZM133.09,67.48c-.14-.18-.29-.36-.44-.54-.14.14-.27.27-.41.41.18.14.36.3.56.41.03.02.19-.18-1.9,2.87.15-.36.43-.7.39-1-.07-.59-.58-1.57-.43-1.66,2.34-1.51.49-2.83-.26-3.98-.97-1.49-3.08-2.2-4.29-1.64-1.03.48-1.4,2.03-2.88,1.86.04.32-.04.78.14.94.42.37.97.84,1.45.83,1.65-.05,2.78-.02,2.77,2.27,0,.75,1.91,1.51,5.3-.77ZM217.96,59.03c-.09-.11-.25-.52-.54-.66-.64-.3-1.66-.27-1.94-.72-.34-.56.2-1.67-.15-2.21-.43-.66-1.46-.89-2.1-1.46-1.15-1.01-1.69-1.01-1.52.7.11,1.09-.54,1.17-1.41,1.21-.46.02-.91.46-1.36.71.34.36.65.76,1.03,1.09.44.38.95.68,1.4,1.06,2.05,1.73,4.07,3.51,6.17,5.17.29.23,1.02-.12,1.54-.19-.23-.47-.45-1.34-.68-1.34-1.58-.03-1.13-1.15-1.11-1.96,0-.39.36-.77.69-1.4ZM106.82,45.69c-1.02,0-1.17-.02-1.32,0-.67.12-1.68-.43-1.84.68-.06.46.39,1.08.76,1.49,2.36,2.59,5.44,4.45,7.42,7.43.14.21.42.31.64.47.12-.41.42-.86.33-1.22-.2-.82-.63-1.58-.88-2.39-.24-.77.11-1.04.91-.95.22.02.49-.39.74-.61-1.66-1.24-2.56-3.37-4.78-4-.94-.26-1.79-.81-1.98-.9ZM123.93,110.36c.26-.1.51-.2.77-.3l-.77-.62c-.3-.26-.41-1.65-.2-2.12.11-.26.29-.68.18-.81-.97-1.14-1.91-2.34-3.06-3.29-.44-.36-1.56-.38-2.08-.07-.86.52-.39,1.28.24,1.83.11.09.28.23.26.32-.45,2.12-.19,2.02.15,2.93,1.26,3.36,5.48,4.64,5.9,8.56.04.34.61.63.93.94.15-.4.36-.78.43-1.19.44-2.66-1.66-4.2-2.76-6.18ZM165.43,35.14c-.14-.18-.29-.36-.44-.54-.14.14-.27.27-.41.41.18.14.36.3.56.41.03.02.19-.18-1.02-.82h.46c0-.31.08-.64-.01-.92-.65-1.85-1.76-3.38-3.24-4.65-1.45-1.23-1.87-1.85.67-1.94.92-.03,1.14-2.1,2.59-2.29.03,0,.05-.6-.06-.86-.13-.31-3.48-.92-4.09-1.49-1.31-1.23-2.19-.86-2.91.34-.56.94-.78,2.08-1.16,3.13.54-.07,1.52-.31,1.56-.19.25.67.1,1.52.43,2.12.71,1.27,2.6,1.71,2.57,3.55,1.74.18,1.81,2.03,2.88,2.88.12.09.22.22,1.64.86ZM170.13,89.03c-.05-1.43-.59-2.02-1.41-1.75-.17.06-.41.27-.42.43-.08.8,1.07,2.46,1.45,2.19.28-.2.33-.72-1.47-2.63.23-.31.41-.69.71-.9.32-.24.76-.33,1.14-.48-.38-.15-.82-.24-1.14-.48-.3-.22-.48-.6-.17-1.75-.18.14-.36.29-.54.44.14.14.27.27.41.41.14-.18.3-.36.41-.56.02-.03-.18-.19-.82.56-1.66-.24-1.66-1.88-2.41-2.89-.11-.15-.05-.43-.07-.64.42,0,.86-.08,1.24.04.16.05.2.5.31.76.11.26.23.52.35.78.19-.16.55-.31.54-.47-.02-1.32.03-2.5-.94-3.79-1.19-1.58-3.3-.58-4.27-2.1-.41.29-.93.51-1.21.9-.41.57-.7,1.24-.93,1.91-.28.79-1.22,1.49.09,2.44,2.52,1.82,4.87,3.87,9.14,7.6ZM122.81,71.04c-.09-.12-.36-.38-.53-.69-1.22-2.3-4.03-.94-5.69-2.39-.16-.14-1.55,1.13-2.36,1.76-.35.28-.65.63-1.01.91-.33.26-.7.48-1.06.71.33.33.72.98.97.93,3.01-.6,3.77,2.11,5.37,3.57.68.62,1.26,1.35,1.98,1.92.28.22.93.32,1.19.14.28-.19.52-1.01.38-1.13-1.59-1.49-.81-2.9.03-4.33.22-.37.4-.76.73-1.38ZM185,70.82c.32-.24.58-.42.83-.61-.21-.16-.43-.47-.64-.46-.38.02-.76.22-1.13.35.28.21.55.43,1.77.54-.32.79-.47,1.74-1.01,2.32-.87.94-.93,1.44-.16,2.63,2.06,3.18,3.81,6.55,6.58,9.21.21.2.64.18.96.26-.04-.42.02-.88-.15-1.24-.48-1.03-1.06-2.01-1.6-3.02.88-.51,2.31-.29,1.11-2.34-1.34-2.29-1.69-3.69-4.21-6-.17-.16-.14-.57-.16-.87-.02-.32,0-.64.01-.96-.46,0-.91,0-2.2.18ZM152.57,56.9c0-.4.03-.56,0-.71-.56-2.39-2.64-3.24-4.54-3.93-.87-.32-2.83-1.89-3.39.82-.08.39-.89.7-1.42.9-1.44.54-.93,1.34-.21,1.97,1.11.95,2.26,2.32,3.53,2.5,2.01.28,1.32,2.98,2.88,2.85,1.68-.14.87,1.66,1.88,1.82.11-1.03.24-2.06.33-3.09,0-.1-.19-.22-.29-.33-1.02-1.05-1.19-1.8.61-2.04.28-.04.49-.59.62-.76ZM86.05,91.88c.45,0,1.06-.19,1.33.03.84.68,1.38,1.39,2.59.3,1.43-1.29.23-2.09-.25-2.96-1.2-2.19-5.97-3.58-8.22-2.52-1.6.76-.08,1.58-.06,2.38-.31.39-.96.96-.86,1.15.33.64.81,1.38,1.43,1.67,2.92,1.41,4.51,3.93,5.91,6.65.12.24.32.45.48.67.15-.4.52-.89.4-1.18-.86-2.09-1.81-4.13-2.74-6.19ZM200.2,62.32h.41c-.09-.24-.13-.51-.28-.7-.04-.06-.37.1-.56.15.14.18.28.36,9.08,2.94-.16-.22-.44-.42-.47-.65-.28-2.28-1.16-3.59-3.8-3.96-1.4-.2-2.11-1.04-2.16,1.03,0,.41-.51.89-.89,1.18-1.01.75-1.23,1.25-.58,1.72.8.58,1.95.95,2.38,1.72,1.2,2.15,2.75,3.82,4.95,4.92.18.09.34.71.24.8-1.6,1.49.91,2.26.59,3.51.42.08.93.36,1.23.21,1.77-.88,1.73-3.19.26-4.59-1.34-1.28-2.38-2.89-3.47-4.41-.07-.09.58-.74.95-1.08.2-.19.5-.26-7.88-2.78ZM102.59,119.97c-.2-.2-.57-.39-.61-.63-.51-3.73-3.47-5.57-5.97-7.75-.27-.24-1.11-.34-1.18-.22-.94,1.63-2.75,1.55-4.14,2.29-.75.4-1.56,1.22-.54,2.17,1.09,1.01,2.27,1.91,3.41,2.86,2.12,1.78,4.7,3.26,6.2,5.47,1.16,1.7,1.52.18,1.58-.06.2-.78.45-1.91.05-2.42-1-1.3-.03-1.02.66-1.16.21-.04.36-.35-4.38-9.14-.18.14-.36.29-.54.44.14.14.27.27.41.41.14-.18.3-.36.41-.56.02-.03-.18-.19,4.63,8.31ZM87.9,119.6c-1.3.36-1.88,1.18-1.89,2.55,0,.38-.57.76-1.32,1.24.18-.22.4-.36.42-.53.07-.73.08-1.49-.99-1.4-.25.02-.48.22-.72.33.42.52.83,1.03,1.73,1.5-.08,1.38-1.15.78-2.26.92h.41c-.09-.24-.13-.51-.28-.7-.04-.06-.37.1-.56.15.14.18.28.36.84.55.86,1.94,1.92,3.83,2.51,5.85.3,1.02,1.27,2.62-1.08,3.39h.41c-.09-.24-.13-.51-.28-.7-.04-.06-.37.1-.56.15.14.18.28.36.84.55.62.82,1.66,1.59,1.75,2.47.16,1.51,1.11,1.43,1.87,1.16.74-.26,1.78-1,1.84-1.62.21-2.19.32-4.43-1.05-6.43-.71-1.04-.58-1.09.97-1.15.37-.01,1.01-.31,1.04-.54.26-1.84,1.16-3.8-.77-5.34-.98-.78-1.92-1.6-2.34-3.26-.18.14-.36.29-.54.44.14.14.27.27.41.41.14-.18.3-.36.41-.56.02-.03-.18-.19-.82.56ZM210.77,35.59c-.09-.26-.16-.54-.27-.79-1.27-2.78-3.72-4.55-5.79-6.63-.23-.23-.88-.03-1.33-.03.1.26.15.58.32.77,2.12,2.25,4.62,4.17,6.08,7,.1.2.41.3.63.44.12-.25.24-.5-13.06-10.98-3.49,0-3.48.02-7.44,1.83-1.03.47-2.29.49-2.88,1.68,1.28.67,2.16-.37,3.24-.67,1.03-.29,1.35.3.42,1.11-.07.06.14.61.18.6,2.33-.31,3.83.21,3.32,3.04-.03.18.54.53.89.71.88.46,2.38.7,2.57,1.34.66,2.27,2.77,3.13,4.04,4.77.35.45,1.06.63,1.6.93-.04-.72.21-1.69-.16-2.12-1.28-1.47-.81-2.01.84-2.33.11-.02.06-.98.02-1.51-.02-.33-.26-.67-.22-.97.3-2-1.18-4.04-3.13-4.29-1.03-.13-2.06-.36-3.1-.41-1.38-.07-2.76.02-4.14-.04-.36-.02-.7-.32-1.05-.5.4-.13.83-.23,1.21-.41,2.76-1.27,4.87-1.26,8.45-.01.41.14.91.02,1.37.02-.22-.37-.35-.84-.66-1.09-1.67-1.35-3.55-2.07,8.05,8.55ZM172.9,34.6h5.54c.24.31.57.91.71.87.67-.19,1.28-.79,1.93-.83,1.37-.08.55.46.41,1.18-.23,1.2,1.03.35,1.56.62,1.92,3.78,4.32,7.22,8.38,11.11-.17-.28-.36-.61-.56-.95-.14.14-.43.33-.41.42.12.46.34.9.52,1.35.13-.23.26-.47-.54-1.77-.11-.57-.06-1.24-.35-1.69-1.24-1.96-2.59-3.84-3.86-5.78-.23-.34-.47-1.09-.37-1.16.44-.3,1.02-.6,1.51-.56.43.04,1.01.46,1.19.86.53,1.16.72,2.49,1.35,3.57.8,1.36,1.91,2.53,2.89,3.78.45-1.35.88-2.7,1.35-4.05.16-.45.39-.88.58-1.32-2.31.26-.19-2.09-1.63-2.71-1.1-.47-1.78-1.93-2.65-2.96.96-.13,1.67.16,2.36.93,1.31,1.47,2.79,2.78,4.14,4.2,1.26,1.33,2.45,2.74,4.66,5.06-.17-.28-.36-.61-.56-.95-.14.14-.43.33-.41.42.12.46.34.9.52,1.35.13-.23.26-.47-.54-1.77-.57-3.13-2.24-5.74-4.58-7.66-1.47-1.2-2.92-2.47-4.45-3.59-2.34-1.72-5-3.29-8.02-2.48-.91.24-1.96.47-2.83.86-2.63,1.16-5.65,1.52-9.3,4.71.48-.21.97-.43,1.46-.64-.29-.15-.61-.44-.87-.41-.62.08-1.22.33-1.82.51.37.16.74.32,2.7-.54ZM148.87,46.61c0,.62,0,1.23-6.66.96-2.02-1.27-3.59.93-5.56,1.81-.25.11-.47.31-.7.47.4.15.84.49,1.19.41.82-.19,1.63-.51,2.38-.9.83-.43.9,1.06,2.2.47,1.9-.86,4.32-1.08,6.46.19.36.22,1.03-.07,1.55-.13-.44-.48-.81-1.07-1.34-1.42-1.71-1.11-3.67-1,.47-.02,1.12.32,6.62,3.31,7.08,3.85.1.11.27.21.3.33.57,2.6,3.15,3.51,4.56,5.41.14.18.7.25.93.13.38-.21.66-.61.99-.94-1.99-1.12-.15-2.22-.03-3.35.07-.67,1.64-1.18.21-2.07-.46-.28,1.8-1.27-.27-1.53-2-.26.73-1.17-.19-1.67-.55-.3-1.05-.72-1.57-1.08,2.32-.44,3.47.99,4.65,2.67,1.39,1.98,2.46,4.25,5.58,6.59-.17-.28-.36-.61-.56-.95-.14.14-.43.33-.41.42.12.46.34.9.52,1.35.13-.23.26-.47-.54-1.77-.11-.57-.07-1.21-.34-1.69-2.08-3.71-4.57-6.96-8.29-9.38-4.88-3.17-9.72-2.57-14.73-.91-.59.2-.99.95-1.48,1.45.74.43,1.45.92,2.23,1.25.39.16.9.03,1.36.03ZM156.37,30.52c-.78-.47-1.92-.98-1.87-1.15.62-2.24-1.53-2.23-2.52-2.99-.41-.31-1.62.62-2.4.51-.52-.07-.88-1.02-1.39-1.5-.13-.12-.78,0-.81.12-.48,1.9-2.69,2.05-3.54,3.53-.14.25-.16.84-.01.94,2.63,1.78,5.28,3.53,8,5.16.16.1,1.38-1.15,1.35-1.19-1.1-1.43-.97-2.06,1-2.17.73-.04,1.42-.79,2.19-1.25ZM145.18,37.39c-.32-.66-.58-2.29-1.34-2.57-1.73-.63-3.1-2-5.1-2.13-1.95-.13-2.8,1.25-3.57,2.36-.77,1.1.75,1.75,1.41,2.47,1.35,1.45,2.79,2.83,4.2,4.22.42.42.84.9,1.36,1.13.28.12,1.1-.21,1.12-.4.16-1.51-.38-3.31,1.91-3.76.06-.01,0-.57,0-1.32ZM108.07,106.66c-.16.05-.36.06-.43.15-1.05,1.41-2.09,2.82-3.09,4.26-.12.17.02.59.15.84,1.22,2.47,3.83,5.04,6.69,6.82.31.19.35.99.33,1.5,0,.33-.55.88-.48.95.71.69,1.49,1.3,2.25,1.94.09-.89.3-1.78.25-2.65-.11-1.82-.78-3.81-2.38-4.39-1.17-.42-1.15-1.06-1.51-1.76-.61-1.19-.41-1.45,1.19-1.59.29-.02.58-.13.87-.2-.24-.74.63-1.96-.88-2.15-.72-.09-1.11-.15-.51-.98.27-.38.4-1.37.22-1.49-.82-.53-1.79-.85-2.68-1.24ZM170.41,15.94c-2.03-.75-1.81,1.7-2.91,2-1.85.5-1.32,1.35-.34,2.11,2.18,1.68,4.47,3.23,6.67,4.89.72.54,1.37.71,1.77-.16.12-.25-.4-.94-.77-1.24-1.13-.92-1.16-.89.31-1.87,1.25-.84,1.5-2.66.25-3.42-1.55-.95-3.32-1.55-4.99-2.3ZM65.15,80.56c-.43-.86-.59-1.25-.81-1.61-.52-.86-1.09-1.69-1.61-2.55-.18-.3-.27-.65-.41-.97.42,0,.85-.1,1.24,0,.35.08.66.36.98.56.07-.42.28-.87.17-1.24-.16-.53-.54-1-.83-1.49-1.19-2.01-2.25-2.39-4.78-1.7-1.1.3-2.18.69-3.3.9-.89.17-1.57.17-.5,1.17,1.34,1.25,2.56,2.65,3.93,3.87,1.17,1.05,2.5,1.92,3.72,2.92.32.26.61,1.06.68,1.03.56-.23,1.06-.59,1.53-.88ZM216.32,34.6c-.24-1.12-.93-2.7-.84-4.23.14-2.29-.67-3.52-2.81-4.11-.53-.15-.95-.71-1.48-.86-.35-.1-1.18.2-1.17.31.03,1.6-1.02,1.52-2.12,1.54-.27,0-.74.51-.76.81-.02.32.33.73.62.98.19.16.66,0,.83.17,1.26,1.22,1.91,3.41,4.4,2.67.08-.02.62.89.53.99-2.23,2.52.38,3.28,1.65,4.46.14.13,1.02-.19,1.1-.44.17-.56.05-1.21.05-2.29ZM269.91,50.53c.22-1.57-2.68-2.48-.95-4.39,0,0-.2-.29-.31-.3-1.71-.16-2.37-1.73-3.54-2.62-2.41-1.85-4.72-2.52-7.41-2.13-.26.04-.49.29-.73.45.24.15.54.49.72.43,1.65-.51,1.75.88,2.49,1.74,1.25,1.45,2.71,3.1,4.42,3.7,2.1.73,2.16,3.04,3.9,3.79.26.11.64.12.89.01.23-.1.35-.43.52-.67ZM113.77,147.59c-.07,1.57-.12,3.09,1.99,3.47.51.09.93.7,1.41,1.04.3.21.65.37.97.55.08-.43.19-.85.24-1.28.19-1.75-.73-3.05-1.66-4.4-.19-.28.22-.98.36-1.49.44.27.91.49,1.29.82.26.23.39.6.58.91.42-.74,1.17-1.49,1.16-2.23-.01-.75-.63-1.93-1.24-2.13-1.11-.36-2.62-.53-3.57-.03-.8.42-1.12,1.88-1.49,2.93-.19.55-.03,1.22-.03,1.83ZM177.08,37.99c-.89.37-1.77.98-2.71,1.09-1.85.22-1.23.63-.5,1.69.93,1.34,2.55.79,3.44,1.61.9.83,1.39,2.12,2.03,3.22.14.24.1.61.28.78.18.17.54.25.8.21.26-.03.69-.24.71-.4.09-.74.14-1.51.05-2.25-.08-.69-.49-1.36-.5-2.05-.01-.58.44-1.16.48-1.75.02-.29-.37-.75-.69-.89-1.03-.45-2.11-.79-3.4-1.26ZM90.71,83.04c.29.33.78.62.81.95.14,1.98,2.78-.17,3.02,1.99.27,2.52,3,2.09,4.53,3.13.09.06.37.03.42-.05.11-.19.23-.59.19-.62-2.05-1.13-1.57-3.08-1.6-4.87,0-.31.04-.62,0-.92-.24-1.64-1.78-1.8-2.87-2.37-1.13-.59-1.62.67-1.67,1.25-.15,1.55-1.19.99-1.98,1.13-.27.05-.51.23-.83.38ZM229.12,26.5c.88,2.02.93,4.51,3.1,6,1.13.78,1.83-.12,2.16-.81.33-.68.1-1.63.12-2.46-.22.11-.45.19-.65.33-.9.66-1.67.84-1.81-.6-.09-.89-.23-1.89,1.28-1.76.83.07,2.12.22.73-1.23-.58-.6-.79-1.55-1.34-2.18-1.65-1.88-2.27-1.7-3.17.86-.19.55-.25,1.14-.41,1.86ZM189.52,11.94c-.43,3.44,2.1,5.81,3.18,8.71.04.12.57.15.84.07.2-.06.34-.34.51-.53-1.49-.94-.34-2.61-1-3.67-.45-.72-.79-1.06.02-1.66,1.16-.84,1.02-1.51.35-2.91-.77-1.64-2.14-1.55-3.21-2.26-.1-.06-.64.25-.67.44-.09.59-.03,1.21-.03,1.82ZM223.71,22.63c.02-1.32-1.82-3.76-3.14-4.68-2.68-1.88-5.63-.41-8.41-.88-.09-.01-.23.19-.32.31-.57.76-1.13,1.52-1.69,2.28.83-.11,1.7-.11,2.49-.35,4.23-1.29,7.7-.38,10.04,2.75.15.2,0,.61.12.87.09.2.36.32.55.48.12-.26.24-.52.35-.78ZM139.37,134.27c-.42.22-1.06.45-1.56.86-.29.24-.28.81-.54,1.13q-2.97,3.65.34,6.7c.23.21.81.41.93.3.36-.34.86-.88.8-1.25-.16-.96-.38-2.04-.96-2.78-.71-.91-.86-1.49.04-2.27.58-.5,1.1-1.06,1.62-1.62.16-.18.25-.43.37-.64-.26-.11-.52-.21-1.05-.43ZM274.52,74.03c-.65.39-1.15.69-1.64.98,1.37.21-1.3,2.19.98,2.16.76-.01,1.66.57,2.25,1.14,1.13,1.07,2.25,2.02,3.89,2.09.26-1.89-2.26-2.3-2.22-4.13,0-.32-.56-.72-.94-.96-.71-.45-1.48-.82-2.32-1.27ZM124.17,57.54c-.87.29-2.11.63-3.31,1.09-1.12.43-2.19.99-3.28,1.49,1.18.12,2.35.25,3.53.33.26.02.54-.17.8-.27,2.12-.86,4.21-1.23,6.27.25.21.15.79-.2,1.2-.33-.26-.32-.45-.81-.79-.95-1.3-.55-2.65-.98-4.42-1.62ZM220.95,100.06c-.41,1.4.59,2.17,1.45,2.98.29.27.64.49.96.74.12-.56.24-1.11.35-1.67.19-1-2.66-2.6.6-3,.03,0,.08-.44,0-.61-.39-.75-.79-1.5-1.28-2.19-.18-.26-.7-.54-.92-.45-.39.16-.66.6-.98.92,1.24,1.15-.58,2.13-.17,3.28ZM108.4,152.67c-.54-.51-1.11-1.16-1.79-1.62-.2-.13-.97.15-1.12.44-1.2,2.25-.54,5.54,1.35,6.87.2.14.62.11.89,0,.16-.06.37-.53.32-.58-1.66-1.68-.69-3.25.36-5.13ZM103.95,49.53c-.12.12-.31.21-.33.33-.05.3-.15.75,0,.89,2.2,2,3.71,4.5,5.18,7.03.18.31.63.47.95.7.11-.41.36-.85.3-1.24-.61-3.55-3.69-5.25-5.81-7.67-.05-.06-.21-.03-.29-.04ZM270.82,83.06c0-.15.04-.32,0-.45-.79-2.29-2.42-3.96-4.21-5.46-.35-.3-1.38-.29-1.74,0-1.04.86.38,1.02.62,1.53,1,2.14,3.38,2.93,4.74,4.73.01.02.38-.23.58-.35ZM62.03,83.7c0-.15.07-.36,0-.45-1.9-2.27-3.8-4.54-5.74-6.78-.08-.09-.55-.02-.6.09-.12.25-.23.69-.1.85,1.88,2.29,3.79,4.55,5.73,6.79.08.09.43-.01.62-.1.08-.03.07-.26.1-.4ZM114.44,45.69c-.13.06-.36.1-.37.18-.03.21-.05.49.07.64,1.72,2.36,3.45,4.71,5.2,7.04.12.16.42.17.64.25.09-.27.31-.59.24-.8-1.03-2.8-3.44-4.65-4.94-7.15-.1-.16-.55-.11-.83-.16ZM80.52,82.64c-1.07,0-2.15-.06-3.21.05-.2.02-.41.71-.46,1.11-.02.21.31.66.47.65.72-.04,1.44-.22,2.16-.31,1.17-.15,2.58-.72,3.46-.28,1.04.52,1.87.84,2.86.37.38-.18-1.78-1.5-2.98-1.58-.76-.05-1.53,0-2.3,0ZM222.98,11.06s.09-.02.14-.03c.2.82.34,1.67.62,2.46.12.32.55.72.86.73.31,0,.92-.42.91-.64-.04-1.15.63-2.71-.79-3.29-1.24-.5-.29-3.25-2.47-2.22-.18.09.47,1.95.73,2.99ZM97,74.65c-.14-.12-.25-.31-.36-.31-2.94.12-6.04-.68-8.66,1.34-.35.27-.45.85-.67,1.28.42-.02.98.13,1.23-.08,1.84-1.57,3.99-1.79,6.26-1.64.61.04,1.23.04,1.84-.02.14-.02.25-.38.36-.58ZM174.74,75.93c-.02,1.92.2,2.37.84,2.03.78-.42,1.3-1.31,1.93-1.99-.66-.44-1.29-.98-2-1.3-.69-.31-.75-.17-.77,1.26ZM54.54,174.02c-1.1-.46-1.52-.74-1.98-.81-.97-.14-1.89-.03-1.59,1.34.11.49.42.94.65,1.41.77-.51,1.55-1.03,2.93-1.94ZM236.48,54.43c1.04-.58,1.41,1.2,1.95-.11.14-.35-.38-1.02-.67-1.5-.69-1.15-1.07.03-1.62.18-.35.1-.84-.29-1.27-.47.16.52.19,1.17.52,1.52.31.32.95.33,1.09.37ZM256.13,31.96c.31-1.23.57-2.28.84-3.34-.31-.01-.68-.14-.91-.01-1.12.6-1.01,1.69-.91,2.72.01.14.37.25.98.63ZM102.69,71.56c.3,0,.64.09.89-.02.35-.14.71-.39.91-.69.12-.17.03-.69-.13-.79-.34-.21-.84-.41-1.19-.31-.66.18-1.27.55-1.87.91-.16.1-.24.4-.28.62-.01.07.2.26.31.27.45.03.9.01,1.35.01ZM273.6,117.71c-.04-.23-.18-.94-.31-1.65-1.28.42-.4,1.45-.58,2.18-.14.57-.04,1.21-.01,1.81,0,.11.23.33.29.31.22-.07.58-.2.59-.34.07-.6.03-1.21.03-2.31ZM166.3,125.68c-.71-.48-1.45-.97-2.18-1.46-.15.23-.49.56-.43.67.4.72.89,1.4,1.35,2.09.41-.42.82-.84,1.27-1.3ZM77.3,229.74c-.64-.6-1.02-1.13-1.18-1.07-.44.16-.84.53-1.11.92-.06.09.43.83.67.83.43,0,.87-.33,1.63-.67ZM202.69,56.77c-.3,0-.62-.06-.9.01-.4.1-.78.29-1.17.45.39.15.77.39,1.17.44.59.08,1.21.06,1.81,0,.25-.03.48-.29.72-.44-.24-.15-.46-.37-.72-.44-.28-.08-.6-.02-.9-.02ZM163.88,74.33c-.3,0-.62-.06-.9.01-.4.1-.78.29-1.17.45.39.15.77.39,1.17.44.59.08,1.21.06,1.81,0,.25-.03.48-.29.72-.44-.24-.15-.46-.37-.72-.44-.28-.08-.6-.02-.9-.02ZM29.2,74.33c.18-.08.73-.34,1.28-.6-.56-.11-1.12-.25-1.68-.31-.45-.05-.91-.06-1.35.02-.16.03-.29.36-.36.58-.02.06.19.29.3.3.45.04.91.01,1.81.01ZM107,71.74c.34-.25.71-.52,1.09-.79-.41-.11-.83-.34-1.22-.29-.44.06-.85.37-1.27.57.39.14.79.28,1.4.5ZM145.48,82.46c-.34.25-.71.52-1.09.79.41.11.83.34,1.22.29.44-.06.85-.37,1.27-.57-.39-.14-.79-.28-1.4-.5ZM99.79,78.77c-.26.36-.59.71-.78,1.14-.08.17.18.49.28.74.5-.42,1-.85,1.5-1.27-.24-.14-.47-.29-1.01-.61ZM271.9,62.95c-.21-.53-.41-1.04-.62-1.56-.15.39-.45.78-.43,1.16.02.54.28,1.08.43,1.61.19-.37.38-.74.62-1.21ZM217.71,48.71c1.07-.28,1.61-.42,2.16-.56-.27-.2-.54-.57-.82-.57-.55,0-1.11.18-1.67.28.13.34.26.68.32.85ZM271.56,59.24c.25.34.52.71.79,1.09.11-.41.34-.83.29-1.22-.06-.44-.37-.85-.57-1.27-.14.39-.28.79-.5,1.4ZM159.66,41.25c.34-.25.71-.52,1.09-.79-.41-.11-.83-.34-1.22-.29-.44.06-.85.37-1.27.57.39.14.79.28,1.4.5ZM188.67,116.72c-.23-.34-.38-.58-.54-.81-.15.38-.39.76-.43,1.15-.02.21.28.46.43.7.19-.36.38-.73.54-1.04ZM149.61,131.65c-.34.21-.71.35-.7.46.03.41.18.81.28,1.21.2-.12.57-.22.58-.35.02-.4-.09-.82-.16-1.32ZM169.16,36.26c-.21-.34-.35-.71-.46-.7-.41.03-.81.18-1.21.28.12.2.22.57.35.58.4.02.82-.09,1.32-.16ZM142.9,32.94c.71-.29.96-.4,1.21-.51-.26-.2-.5-.5-.8-.58-.21-.06-.5.18-.75.28.14.33.28.65.34.8ZM109.64,72.67c.71-.29.96-.4,1.21-.51-.26-.2-.5-.5-.8-.58-.21-.06-.5.18-.75.28.14.33.28.65.34.8ZM269.97,76.99c-.23-.34-.38-.58-.54-.81-.15.38-.39.76-.43,1.15-.02.21.28.46.43.7.19-.36.38-.73.54-1.04ZM132.32,149.98c-.23-.34-.38-.58-.54-.81-.15.38-.39.76-.43,1.15-.02.21.28.46.43.7.19-.36.38-.73.54-1.04ZM149.36,83.38c-.06.14-.2.47-.34.8.25.11.54.34.75.28.3-.08.54-.37.8-.58-.25-.11-.51-.21-1.21-.51ZM85.94,140.78c-.34.23-.58.38-.81.54.38.15.76.39,1.15.43.21.02.46-.28.7-.43-.36-.19-.73-.38-1.04-.54ZM16.95,170.85c-.29-.71-.4-.96-.51-1.21-.2.26-.5.5-.58.8-.06.21.18.5.28.75.33-.14.65-.28.8-.34ZM152.76,84.98c-.14-.06-.47-.2-.8-.34-.11.25-.34.54-.28.75.08.3.37.54.58.8.11-.25.21-.51.51-1.21ZM283.02,89.55c-.29-.71-.4-.96-.51-1.21-.2.26-.5.5-.58.8-.06.21.18.5.28.75.33-.14.65-.28.8-.34ZM163.62,39.41c-.5-.07-.91-.18-1.32-.16-.13,0-.23.38-.35.58.4.11.8.26,1.21.28.11,0,.24-.36.46-.7ZM21.87,88.38c.71-.29.96-.4,1.21-.51-.26-.2-.5-.5-.8-.58-.21-.06-.5.18-.75.28.14.33.28.65.34.8ZM91.27,87.4c-.19.11-.39.22-.6.33.1.1.23.31.3.29.22-.05.41-.19.62-.29-.1-.1-.21-.21-.33-.33ZM110.21,87.59c.11.19.22.39.33.6.1-.1.31-.23.29-.3-.05-.22-.19-.41-.29-.62l-.33.33ZM121.75,85.28c.12-.12.23-.23.33-.33-.21-.1-.4-.24-.62-.29-.08-.02-.2.19-.3.29.2.11.4.22.6.33ZM163.06,91.09c-.12.12-.23.23-.33.33.21.1.4.24.62.29.08.02.2-.19.3-.29-.2-.11-.4-.22-.6-.33ZM179.36,84.03c-.1-.1-.23-.31-.3-.29-.22.05-.41.19-.62.29.1.1.23.31.3.29.22-.05.41-.19.62-.29ZM159.96,93.27c-.1-.1-.23-.31-.3-.29-.22.05-.41.19-.62.29.1.1.23.31.3.29.22-.05.41-.19.62-.29ZM251.75,93.6c.19-.11.39-.22.6-.33-.1-.1-.23-.31-.3-.29-.22.05-.41.19-.62.29.1.1.21.21.33.33ZM102.22,79.87c-.1.1-.31.23-.29.3.05.22.19.41.29.62.1-.1.31-.23.29-.3-.05-.22-.19-.41-.29-.62ZM13.99,80.33c-.1-.1-.23-.31-.3-.29-.22.05-.41.19-.62.29.1.1.23.31.3.29.22-.05.41-.19.62-.29ZM38.8,78.35c-.12-.12-.23-.23-.33-.33-.1.21-.24.4-.29.62-.02.08.19.2.29.3.11-.2.22-.4.33-.6ZM116.08,102.05c-.1.1-.31.23-.29.3.05.22.19.41.29.62.1-.1.31-.23.29-.3-.05-.22-.19-.41-.29-.62ZM280.85,103.57c-.11-.19-.22-.39-.33-.6-.1.1-.31.23-.29.3.05.22.19.41.29.62.1-.1.21-.21.33-.33ZM207.21,76.77l.33.33c.1-.21.24-.4.29-.62.02-.08-.19-.2-.29-.3-.11.2-.22.4-.33.6ZM103.01,105.61c.19-.11.39-.22.6-.33-.1-.1-.23-.31-.3-.29-.22.05-.41.19-.62.29l.33.33ZM53.85,75.85c.12.12.23.23.33.33.1-.21.24-.4.29-.62.02-.08-.19-.2-.29-.3-.11.2-.22.4-.33.6ZM19.54,75.72c-.1-.1-.23-.31-.3-.29-.22.05-.41.19-.62.29.1.1.23.31.3.29.22-.05.41-.19.62-.29ZM145.77,105.88c-.19.11-.39.22-.6.33.1.1.23.31.3.29.22-.05.41-.19.62-.29-.1-.1-.21-.21-.33-.33ZM190.12,112.08c.12-.12.23-.23.33-.33-.21-.1-.4-.24-.62-.29-.08-.02-.2.19-.3.29.2.11.4.22.6.33ZM270.03,111.61c.11.19.22.39.33.6.1-.1.31-.23.29-.3-.05-.22-.19-.41-.29-.62-.1.1-.21.21-.33.33ZM183.06,70.17c-.1-.1-.23-.31-.3-.29-.22.05-.41.19-.62.29.1.1.23.31.3.29.22-.05.41-.19.62-.29ZM199.36,114.19c-.19.11-.39.22-.6.33.1.1.23.31.3.29.22-.05.41-.19.62-.29l-.33-.33ZM200.61,116.37c-.1-.1-.23-.31-.3-.29-.22.05-.41.19-.62.29.1.1.23.31.3.29.22-.05.41-.19.62-.29ZM245.09,118.35l.33.33c.1-.21.24-.4.29-.62.02-.08-.19-.2-.29-.3-.11.2-.22.4-.33.6ZM91.46,119.93c-.12-.12-.23-.23-.33-.33-.1.21-.24.4-.29.62-.02.08.19.2.29.3.11-.2.22-.4.33-.6ZM219.09,65.55c-.1-.1-.23-.31-.3-.29-.22.05-.41.19-.62.29.1.1.23.31.3.29.22-.05.41-.19.62-.29ZM165.64,120.85c.11.19.22.39.33.6.1-.1.31-.23.29-.3-.05-.22-.19-.41-.29-.62l-.33.33ZM277.16,121.12c-.11-.19-.22-.39-.33-.6-.1.1-.31.23-.29.3.05.22.19.41.29.62.1-.1.21-.21.33-.33ZM238.49,64.63c-.1-.1-.23-.31-.3-.29-.22.05-.41.19-.62.29.1.1.23.31.3.29.22-.05.41-.19.62-.29ZM226.15,63.38c-.19.11-.39.22-.6.33.1.1.23.31.3.29.22-.05.41-.19.62-.29-.1-.1-.21-.21-.33-.33ZM238.36,123.89c-.11-.19-.22-.39-.33-.6-.1.1-.31.23-.29.3.05.22.19.41.29.62l.33-.33ZM142.54,62.91c.12.12.23.23.33.33.1-.21.24-.4.29-.62.02-.08-.19-.2-.29-.3-.11.2-.22.4-.33.6ZM255.12,124.68c-.1-.1-.23-.31-.3-.29-.22.05-.41.19-.62.29.1.1.23.31.3.29.22-.05.41-.19.62-.29ZM177.38,126.66c-.11-.19-.22-.39-.33-.6-.1.1-.31.23-.29.3.05.22.19.41.29.62l.33-.33ZM240.01,62.19c.12-.12.23-.23.33-.33-.21-.1-.4-.24-.62-.29-.08-.02-.2.19-.3.29.2.11.4.22.6.33ZM270.69,127.59c-.11-.19-.22-.39-.33-.6-.1.1-.31.23-.29.3.05.22.19.41.29.62.1-.1.21-.21.33-.33ZM237.24,62.18c.12-.12.23-.23.33-.33-.21-.1-.4-.24-.62-.29-.08-.02-.2.19-.3.29.2.11.4.22.6.33ZM83.61,129.63c.19-.11.39-.22.6-.33-.1-.1-.23-.31-.3-.29-.22.05-.41.19-.62.29.1.1.21.21.33.33ZM269.77,129.44c-.11-.19-.22-.39-.33-.6-.1.1-.31.23-.29.3.05.22.19.41.29.62.1-.1.21-.21.33-.33ZM238.36,58.29c-.11-.19-.22-.39-.33-.6-.1.1-.31.23-.29.3.05.22.19.41.29.62.1-.1.21-.21.33-.33ZM264.95,135.17c.12-.12.23-.23.33-.33-.21-.1-.4-.24-.62-.29-.08-.02-.2.19-.3.29.2.11.4.22.6.33ZM140.43,137.75c-.11-.19-.22-.39-.33-.6-.1.1-.31.23-.29.3.05.22.19.41.29.62l.33-.33ZM158.44,138.87c.19-.11.39-.22.6-.33-.1-.1-.23-.31-.3-.29-.22.05-.41.19-.62.29l.33.33ZM85.26,139.33c.11.19.22.39.33.6.1-.1.31-.23.29-.3-.05-.22-.19-.41-.29-.62-.1.1-.21.21-.33.33ZM149.67,141.18c-.12-.12-.23-.23-.33-.33-.1.21-.24.4-.29.62-.02.08.19.2.29.3.11-.2.22-.4.33-.6ZM85.26,143.03c.11.19.22.39.33.6.1-.1.31-.23.29-.3-.05-.22-.19-.41-.29-.62l-.33.33ZM137.92,55.52c.12.12.23.23.33.33.1-.21.24-.4.29-.62.02-.08-.19-.2-.29-.3-.11.2-.22.4-.33.6ZM254.06,143.29c-.11-.19-.22-.39-.33-.6-.1.1-.31.23-.29.3.05.22.19.41.29.62.1-.1.21-.21.33-.33ZM230.77,52.29c-.19.11-.39.22-.6.33.1.1.23.31.3.29.22-.05.41-.19.62-.29l-.33-.33ZM128.22,149.3c-.19.11-.39.22-.6.33.1.1.23.31.3.29.22-.05.41-.19.62-.29l-.33-.33ZM181.08,52.75c-.11-.19-.22-.39-.33-.6-.1.1-.31.23-.29.3.05.22.19.41.29.62.1-.1.21-.21.33-.33ZM275.77,52.02c.19-.11.39-.22.6-.33-.1-.1-.23-.31-.3-.29-.22.05-.41.19-.62.29.1.1.21.21.33.33ZM233.87,51.69c-.1-.1-.23-.31-.3-.29-.22.05-.41.19-.62.29.1.1.23.31.3.29.22-.05.41-.19.62-.29ZM109.74,154.58c.12-.12.23-.23.33-.33-.21-.1-.4-.24-.62-.29-.08-.02-.2.19-.3.29.2.11.4.22.6.33ZM114.36,156.42c.12-.12.23-.23.33-.33-.21-.1-.4-.24-.62-.29-.08-.02-.2.19-.3.29.2.11.4.22.6.33ZM104.99,160.25c-.1.1-.31.23-.29.3.05.22.19.41.29.62.1-.1.31-.23.29-.3-.05-.22-.19-.41-.29-.62ZM224.5,48.13c-.11-.19-.22-.39-.33-.6-.1.1-.31.23-.29.3.05.22.19.41.29.62.1-.1.21-.21.33-.33ZM181.8,48.33c.12-.12.23-.23.33-.33-.21-.1-.4-.24-.62-.29-.08-.02-.2.19-.3.29.2.11.4.22.6.33ZM104.66,44.44c.12.12.23.23.33.33.1-.21.24-.4.29-.62.02-.08-.19-.2-.29-.3-.11.2-.22.4-.33.6ZM22.9,176.09c-.19.11-.39.22-.6.33.1.1.23.31.3.29.22-.05.41-.19.62-.29-.1-.1-.21-.21-.33-.33ZM105.32,193.19c-.11-.19-.22-.39-.33-.6-.1.1-.31.23-.29.3.05.22.19.41.29.62.1-.1.21-.21.33-.33ZM130.53,33.35c.12.12.23.23.33.33.1-.21.24-.4.29-.62.02-.08-.19-.2-.29-.3-.11.2-.22.4-.33.6ZM35.37,204.01c.11.19.22.39.33.6.1-.1.31-.23.29-.3-.05-.22-.19-.41-.29-.62-.1.1-.21.21-.33.33ZM33.06,205.39c.12-.12.23-.23.33-.33-.21-.1-.4-.24-.62-.29-.08-.02-.2.19-.3.29.2.11.4.22.6.33ZM35.11,207.7c-.12-.12-.23-.23-.33-.33-.1.21-.24.4-.29.62-.02.08.19.2.29.3.11-.2.22-.4.33-.6ZM40.32,207.37c-.1.1-.31.23-.29.3.05.22.19.41.29.62.1-.1.31-.23.29-.3-.05-.22-.19-.41-.29-.62ZM36.49,209.09c.19-.11.39-.22.6-.33-.1-.1-.23-.31-.3-.29-.22.05-.41.19-.62.29.1.1.21.21.33.33ZM163.19,28.13c-.1.1-.31.23-.29.3.05.22.19.41.29.62.1-.1.31-.23.29-.3-.05-.22-.19-.41-.29-.62ZM39.73,213.51c-.11-.19-.22-.39-.33-.6-.1.1-.31.23-.29.3.05.22.19.41.29.62.1-.1.21-.21.33-.33ZM137.92,27.8c.12.12.23.23.33.33.1-.21.24-.4.29-.62.02-.08-.19-.2-.29-.3-.11.2-.22.4-.33.6ZM239.87,20.74c-.1.1-.31.23-.29.3.05.22.19.41.29.62.1-.1.31-.23.29-.3-.05-.22-.19-.41-.29-.62ZM45.54,225.26c.11.19.22.39.33.6.1-.1.31-.23.29-.3-.05-.22-.19-.41-.29-.62-.1.1-.21.21-.33.33ZM60.78,230.34c.12-.12.23-.23.33-.33-.21-.1-.4-.24-.62-.29-.08-.02-.2.19-.3.29.2.11.4.22.6.33Z"/>
        <path class="cls-2" d="M48.29,132.43c-1.13-1.85-1.41-2.55-1.78-2.61-1.05-.16-2.15,0-3.22-.07-2.07-.13-2.82-1.2-2.37-3.33.08-.36.6-.67.58-.98-.03-.4-1.18-.73-.1-1.18.29-.12,1.1.17,1.14.39.15.76.12,1.6,1.23,1.41,1.17-.2.59-1.18.72-1.85.12-.57.05-1.27.36-1.69,1.75-2.27-1.22-4.12-.5-6.28.02-.07-.2-.21-.31-.32-.16.23-.37.44-.47.7-.3.8-.44,1.68-.87,2.41-.45.75-1.25.91-1.85.14-.43-.55-1.05-1.68-.9-1.82,1.15-1.08,1.52-2.38,2.03-3.83.56-1.56-.98-2.62-.27-3.96.13-.25.17-.55.25-.82.33.18.75.28.96.55.75.94.92,2.16,2.8,2.19,1.12.02,2.2,1.93,3.32,2.96.88.82,1.72,1.73,2.72,2.36,1.18.74,1.76,1.95,1.44,3.8-.14.82.08,1.15.68.81.96-.55,1.67-.86,2.41.27.33.5.85.88,1.29,1.32.45.46.29.49.82,3.06.37,1.79,1.23,3.48,1.91,5.2.17.43,1.19.7.3,1.29-.56.38-1.7.92-1.82.77-.98-1.22-2.26-.71-3.42-.75-.54-.02-1.09.28-1.64.44.58.46,1.11,1,1.75,1.36.59.32,1.82.4,1.84.66.09,1,0,2.12-.41,3.01-.36.79-1.28,1.31-1.89,1.99-1.07,1.2-1.18.69-1.4-.56-.09-.54-1.07-.94-1.66-1.38-.28-.21-.59-.4-.89-.59.42-.11.92-.11,1.23-.36.72-.57.81-1.46-.06-1.77-1.39-.5-2.93-.59-4.37-1.01-.81-.23-1.7-.61-2.24-1.21-.51-.57-.5-1.44.68-1.54.33-.03.65-.09,1.96.82,1.22,1.03,1.53,1.08,1.81,1.02.26-.05.5-.22.74-.34-.29-.19-.56-.44-.88-.56-.64-.25-1.29-.46-1.95-.62-.23-.06-.5.08-.76.13.09.4.06,1.04.3,1.17.47.25,1.09.22.74-.8ZM54.09,124.78c-.72-.29-1.03-.47-1.36-.55-.27-.06-.57-.01-.86-.01.21.31.37.79.65.88.32.11.76-.13-1.31-.51.4-.49.64-.64.64-.8-.01-.4-.14-.8-.21-1.19-.2.05-.58.11-.58.16,0,.5.07.99,3.04,2.02ZM54.21,131.8c.71-.29.96-.4,1.21-.51-.26-.2-.5-.5-.8-.58-.21-.06-.5.18-.75.28.14.33.28.65.34.8ZM44.15,127.78c.12-.12.23-.23.33-.33-.21-.1-.4-.24-.62-.29-.08-.02-.2.19-.3.29.2.11.4.22.6.33ZM48.31,130.09c.11.19.22.39.33.6.1-.1.31-.23.29-.3-.05-.22-.19-.41-.29-.62l-.33.33ZM59.26,131.15c-.1-.1-.23-.31-.3-.29-.22.05-.41.19-.62.29.1.1.23.31.3.29.22-.05.41-.19.62-.29Z"/>
        <path class="cls-2" d="M45.4,62.32c1.32-2.21,3.5-1.82,5.54-1.85.23.31.47.62.7.92.38-.31.77-.62,1.15-.92,1.85.31,3.7.62,6.65,1.2.39-.01.08-.19-.25-.27-.27-.06-.57-.01-.86-.01.21.31.37.79.65.88.32.11.76-.13.46-.6-1.72-2.2-3.57-2.36-5.04-3.06-.24-.12-.45-.31-.68-.47.38-.15.76-.31,1.15-.45.84-.3,1.69-2.08,2.53.2,0,.07,0-.07,0-.21-.24.09-.51.13-.7.28-.06.04.1.37.15.56.18-.14.36-.28.55-.63.88-.31,2.13-.1,2.56-.6,1.05-1.2,1.96-1.24,3.23-.57.32.17,1.09.09,1.26-.15,1.31-1.89,2.32.5,3.5.22.08-.02.26.37.4.57-.26.11-.53.32-.79.31-2.6-.13-3.93,2.35-6.17,2.95.13.33.23.66.39.98.38.77.5,1.38-.6,1.65-.97.23-1.9.6-2.85.91-.27-1.98-2.74-.01-3.14-1.75-.45.79-.89,1.57-1.34,2.36l1.71.32c-.43,1.78-1.86.57-2.77.92-2.07-2.27-4.46-3.47-7.39-3.7ZM59.72,58.62c-.1.1-.31.23-.29.3.05.22.19.41.29.62.1-.1.31-.23.29-.3-.05-.22-.19-.41-.29-.62Z"/>
        <path class="cls-2" d="M69.99,144.66c.12.26.23.52.35.78.31.64.89,1.29.87,1.92-.04,1.44.66,2.1,1.81,2.77,2.28,1.34,2.65,2.28.92,3.9-1.09,1.02-1.67,1.97-2.11,3.27-.11.32-.85,1.74-1.47.52-.31-.61-3.12.56-1.16-1.65.5-.57.43-2.26-.07-2.96-.65-.92-.33-1.22.25-1.7,1.5-1.23,1.46-1.19.24-2.63-.34-.41-1.49-.54-.67-1.64.48-.64.48-1.63.71-2.46.02-.06.21-.08.31-.11ZM72.08,153.21c-.44-.44-.85-.85-1.27-1.27-.15.38-.54.96-.42,1.1.31.35.84.53,1.3.72.05.02.25-.36.39-.55Z"/>
        <path class="cls-2" d="M29.09,139.68c.31,1.74-.7-.31-1.85,1.02-.1-.57-.03-1.48-.35-1.64-1.07-.53-2.53.68-3.49-.7-.01-.02.24-.3.31-.27,1.31.41,2.23-.51,3.28-.94.26-.11.59-.18.75-.38.59-.77,1.13-1.59,1.68-2.39.93.69,1.87,1.38,2.8,2.07.12.09.23.2.32.32.59.82,1.18,1.65,1.76,2.47-1.2.65-2.39,1.3-5.22.43-1.81-1.38-1.99-1.24-2.17-1.09.14.14.27.27.41.41.14-.18.3-.36.41-.56.02-.03-.18-.19,1.35,1.23Z"/>
        <path class="cls-2" d="M34.32,131.61c-.66-.14-1.57.43-1.86-.72-.1-.41.17-1.45-.8-.73-.7.51-1.44.93-1.86.09-.46-.92-.77-2.11-.61-3.09.1-.63,1.04-1.65,2.11-.84.93.71,1.5,2.01,3.02,1.6.31.31.62.62.92.92.43,1.62,1.63,1.92,3.1,1.9.19,0,.58.67.56,1.01-.09,1.08-.48.48-1.06.24-.79-.32-1.73-.27-2.6-.37-.1-.26-.2-.51-.3-.77-.21.26-.41.51-.62.77Z"/>
        <path class="cls-2" d="M62.96,185.26c.34,1.7-1.13,2.31-1.99,3.28-.1.11-.56.11-.6.03-.13-.24-.24-.59-.16-.83.23-.68,1.38-1.27.05-2.02-1.11-.62-1.21-1.73-.96-2.77.26-1.08.75-2.13,1.27-3.12.06-.12.96.21,1.47.33-.66,1.88,1.08,3.32.92,5.1Z"/>
        <path class="cls-2" d="M39.87,126.74c-.49.1-1.07.39-1.3.22-.84-.65-2.22-1.46-2.19-2.18.06-1.88-1.29-2.32-2.35-3.13-.64-.49-.72-.94.01-1.29.58-.28,1.25-.36,1.88-.53.54,2.36,3.55,3.37,3.39,6.14-.01.2.3.43.55.76Z"/>
        <path class="cls-2" d="M97.56,43.18c-.07-1.96,1.13-1.03,2.02-1.06-.1.32-.23.63-.3.96-.12.56-.2,1.12-.3,1.68-.47.3-1.18.96-1.39.83-2.81-1.73-5.87-.4-8.77-.83.1-.26.17-.71.31-.73,2.66-.4,5.34-.75,8.43-.84.28.09.13-.09-.01-.27l-.41.41c.18.14.36.3.56.41.03.02.19-.18-.13-.55Z"/>
        <path class="cls-2" d="M69.42,136.65c0,.45-.01.9,0,1.36.03,1.18-.84,1.06-1.54.97-1.53-.19-2.41-1.35-2.16-2.7.08-.45,2.42-1.97,2.98-1.88.26.04.66.26.68.45.09.59.03,1.2.03,1.8Z"/>
        <path class="cls-2" d="M70.93,62.33c-1.76-.44-3.42-.84-5.06-1.3-.11-.03-.22-.6-.12-.82.35-.73,2.75-1.46,3.61-1.2.68.21,1.39.31,2.05.56.22.08.52.54.46.71-.25.72-.63,1.39-.95,2.04Z"/>
        <path class="cls-2" d="M215.38.18c2.07-.98,1.93,2.24,3.37,3.16.1.06.09.56,0,.6-.25.12-.62.24-.84.14-1.3-.57-2.59-1.16-3.83-1.85-.78-.43-1.46-1.03-2.19-1.56.88-.13,1.75-.25,3.49-.5Z"/>
        <path class="cls-2" d="M72.19,168.49c0,.45.05.91-.03,1.35-.03.19-.37.48-.53.46-.77-.11-2.41-2.66-2.17-3.55.1-.39.68-.84,1.1-.9.63-.09,1.59-.38,1.62.84.02.6,0,1.2,0,1.8Z"/>
        <path class="cls-2" d="M37.09,128.84h-1.85c-.31-.31-.62-.62-.92-.92-.14-.66.45-1.73-.73-1.81-1.12-.08-1.18-.68-1.12-1.5.02-.3.04-.6.05-.9.33.05.74,0,.96.18,1.63,1.33,2.87,2.96,3.6,4.96Z"/>
        <path class="cls-2" d="M62.03,137.65c0-1.37-.1-2,.04-2.57.07-.29.59-.65.9-.64.31,0,.74.37.88.68.64,1.41-1.19,2.79-.11,4.26.04.05-.29.53-.43.52-.41-.04-1.11-.16-1.15-.35-.16-.87-.13-1.77-.14-1.89Z"/>
        <path class="cls-2" d="M42.63,198.13c-.31-.38-.62-.76-.92-1.14.98-.76,1.96-1.53,2.97-2.26.13-.09.41.03.62.06-.31,1.1,1.14,2.64-.82,3.34-.23-.31-.47-.62-.7-.92-.38.31-.77.62-1.15.92Z"/>
        <path class="cls-2" d="M43.57,140.15c-.33-.35-.76-.8-.75-.81,1.74-1.71.59-2.9-.69-4.1-.14-.13-.13-.41-.19-.63.41-.05,1.05-.29,1.19-.12.72.87,1.5,1.78,1.87,2.82.21.58-.27,1.45-.54,2.15-.1.26-.51.41-.88.68Z"/>
        <path class="cls-2" d="M106.39,36.45c.77,0,1.54-.03,2.3.02.16,0,.32.28.44.45.02.02-.23.19-.3.32-.77,1.31-2.08,1.18-3.24,1-.65-.1-1.68-.72-1.72-1.16-.09-1.23,1.04-.41,1.6-.61.27-.1.61-.02.91-.02Z"/>
        <path class="cls-2" d="M67.58,179.02c0,.45.06.91-.02,1.34-.07.39-.3.76-.46,1.14-.15-.3-.39-.59-.43-.9-.13-1.12.35-2.38-.87-3.26-.15-.11.04-.81.21-1.16.08-.16.58-.29.76-.2.32.17.72.49.77.8.11.73.04,1.49.04,2.23Z"/>
        <path class="cls-2" d="M135.01,26.29c-1.06,0-1.74.17-2.27-.05-.52-.21-.89-.81-1.32-1.24.47-.19.93-.47,1.42-.53.59-.08,1.27-.13,1.78.11.52.24.89.82,1.32,1.26-.43.21-.86.43-.93.46Z"/>
        <path class="cls-2" d="M71.25,53.08c.45,0,.91-.02,1.36.01.12,0,.33.2.32.27-.04.22-.12.56-.27.62-.91.35-1.83.75-2.78.9-.41.06-.91-.42-1.37-.66.31-.38.56-.95.96-1.09.54-.19,1.19-.05,1.79-.05Z"/>
        <path class="cls-2" d="M79.59,57.7c-.94.12-1.77-.04-2.31-.92s-1.37-1.05-2.31-.92c.64-1.65,1.82-1.1,2.71-.45.78.57,1.29,1.52,1.91,2.3Z"/>
        <path class="cls-2" d="M209.84,5.04c-.15,0-.32.04-.46,0-.47-.14-.92-.3-1.38-.45.4-.15.78-.39,1.19-.44.6-.08,1.25.08,1.83-.05.77-.17,1.21-1.48,2.28-.66.08.06.17.27.13.31-.69.83-1.42,1.61-2.68,1.31-.29-.07-.61-.01-.92-.01Z"/>
        <path class="cls-2" d="M119.31,32.75c1.78.32,3.72-.74,5.38.62-1.79.1-3.59.2-5.38.3v-.92Z"/>
        <path class="cls-2" d="M240.34,17.97c.1-.56.19-1.12.29-1.68.62.2,1.29.31,1.84.62.31.18.44.69.64,1.05h-2.77Z"/>
        <path class="cls-2" d="M89.35,55.85c-.74,0-1.1.11-1.31-.02-.4-.25-.72-.63-1.04-.99-.06-.07.02-.27.03-.42.42.14.83.29,1.25.4.27.07.57.04.84.11.53.14,1.04.31,1.56.47-.58.19-1.15.38-1.32.44Z"/>
        <path class="cls-2" d="M61.25,144.11c-.49-.66-.91-1.01-1.02-1.43-.06-.23.42-.6.66-.9.38.31.86.57,1.09.96.1.17-.32.64-.73,1.37Z"/>
        <path class="cls-2" d="M70.35,230.47l-.6-1.71c.81.11,1.62.21,2.43.32-.3.47-.61.93-.91,1.4h-.92Z"/>
        <path class="cls-2" d="M49.13,90.86c.32.23.8.5,1.17.88.21.21.23.61.33.92-.27.05-.62.23-.81.12-.48-.28-.92-.67-1.32-1.06-.1-.1-.05-.41,0-.6.02-.08.24-.1.63-.26Z"/>
        <path class="cls-2" d="M69.57,224.44c.41.73.83,1.2.73,1.37-.23.4-.71.65-1.09.96-.24-.3-.71-.67-.66-.9.1-.43.52-.78,1.02-1.43Z"/>
        <path class="cls-2" d="M64.44,219.15c.57.34.91.54,1.25.74-.43.43-.81,1.1-1.32,1.22-.39.09-.94-.51-1.42-.8.49-.38.98-.77,1.48-1.16Z"/>
        <path class="cls-2" d="M40.95,148.61c-.41.26-.75.59-.86.53-.71-.41-1.38-.9-2.06-1.37.23-.15.55-.48.68-.42.74.35,1.44.8,2.24,1.26Z"/>
        <path class="cls-2" d="M67.58,146.82c0,.3.07.63-.03.9-.06.17-.38.26-.58.38-.01-1.13-.02-2.25-.04-3.38.21.09.6.17.61.29.06.6.03,1.21.03,1.81Z"/>
        <path class="cls-2" d="M28.94,115.98c-.24.38-.32.6-.39.6-.22,0-.52-.04-.63-.18-.36-.44-.71-.92-.96-1.43-.12-.25-.03-.6,0-.91,0-.01.36-.07.43,0,.56.65,1.09,1.32,1.56,1.91Z"/>
        <path class="cls-2" d="M110.92,36.45c-.44,0-.89.04-1.33-.02-.17-.02-.3-.28-.45-.42.23-.16.43-.42.68-.46.43-.08.89-.07,1.33,0,.55.08,1.08.25,1.62.38-.47.18-.93.37-1.41.53-.13.05-.29,0-.44,0Z"/>
        <path class="cls-2" d="M41.56,162.4c.23-.47.41-.83.59-1.2.42.5,1.05.96,1.18,1.53.07.3-.75.8-1.16,1.2-.2-.51-.4-1.02-.6-1.53Z"/>
        <path class="cls-2" d="M194.45,2.08c.61.22,1,.36,1.4.5-.42.2-.83.51-1.27.57-.39.05-.81-.18-1.22-.29.37-.27.74-.54,1.09-.79Z"/>
        <path class="cls-2" d="M68.91,228.03c-.76.36-1,.56-1.24.58-1.07.09-1.06-.67-.99-1.4.02-.16.36-.44.4-.41.57.35,1.12.74,1.84,1.23Z"/>
        <path class="cls-2" d="M40.27,139.33c-.76.36-1,.56-1.24.58-1.07.09-1.06-.67-.99-1.4.02-.16.36-.44.4-.41.57.35,1.12.74,1.84,1.23Z"/>
        <path class="cls-2" d="M23.42,170.47c-.34.28-.68.64-1.09.85-.17.08-.5-.16-.76-.25.4-.52.8-1.05,1.2-1.57.15.23.31.46.65.97Z"/>
        <path class="cls-2" d="M96.1,39.96c.53.32.77.46,1.01.61-.5.42-1,.85-1.5,1.27-.1-.25-.36-.57-.28-.74.18-.42.52-.78.78-1.14Z"/>
        <path class="cls-2" d="M27.5,131.5c-.19-.13-.57-.34-.55-.39.19-.46.36-.99.72-1.3.14-.12.72.26,1.1.42-.42.42-.84.84-1.27,1.27Z"/>
        <path class="cls-2" d="M66.81,172.9c-.24.47-.43.84-.62,1.21-.15-.54-.4-1.07-.43-1.61-.02-.38.27-.77.43-1.16.2.52.41,1.03.62,1.56Z"/>
        <path class="cls-2" d="M67.72,54.37c-.41.18-.83.44-1.27.53-.2.04-.46-.26-.7-.41.51-.41,1.02-.83,1.53-1.24.1.25.2.51.44,1.12Z"/>
        <path class="cls-2" d="M101.3,40.39c-.06-.17-.19-.51-.32-.85.56-.11,1.11-.29,1.67-.28.27,0,.54.37.82.57-.55.14-1.1.29-2.16.56Z"/>
        <path class="cls-2" d="M22.84,156.4c.49.22.86.38,1.24.54-.61.18-1.2.42-1.82.51-.27.04-.58-.26-.87-.41.49-.21.98-.43,1.46-.64Z"/>
        <path class="cls-2" d="M80.87,125.76c-.47.61-.69.88-.9,1.15-.41-.41-.81-.81-1.22-1.22.3-.18.6-.51.9-.51.34,0,.68.3,1.22.57Z"/>
        <path class="cls-2" d="M74.04,209.22c-1.51.28-2.13-.34-1.85-1.85.62.62,1.23,1.23,1.85,1.85Z"/>
        <path class="cls-2" d="M58.34,64.17v.92h-2.77c.43-1.78,1.86-.57,2.77-.92Z"/>
        <path class="cls-2" d="M86.05,198.13c1.78.43.57,1.86.92,2.77-1.78-.43-.57-1.86-.92-2.77Z"/>
        <path class="cls-2" d="M58.83,191.74c-.2-.32-.53-.65-.47-.77.22-.42.56-.8.91-1.11.05-.04.49.37.75.58-.4.43-.79.86-1.2,1.31Z"/>
        <path class="cls-2" d="M39.08,121.26c-.24.42-.43.76-.63,1.11-.15-.58-.37-1.17-.4-1.76-.02-.3.32-.63.5-.94.17.52.34,1.03.53,1.58Z"/>
        <path class="cls-2" d="M23.16,145.36c.23-.34.38-.58.54-.81.15.38.39.76.43,1.15.02.21-.28.46-.43.7-.19-.36-.38-.73-.54-1.04Z"/>
        <path class="cls-2" d="M66.68,66.87c.35.19.59.32.82.45-.45.18-.88.39-1.35.52-.1.03-.28-.26-.42-.41.33-.2.67-.4.95-.56Z"/>
        <path class="cls-2" d="M75.33,56.51c-.84.09-1.33.15-1.83.16-.05,0-.1-.38-.16-.58.4-.08.79-.2,1.19-.21.15,0,.31.24.8.64Z"/>
        <path class="cls-2" d="M38.01,69.71c.7.14,1.77-.46,1.85.92-.7-.14-1.77.46-1.85-.92Z"/>
        <path class="cls-2" d="M24.96,133.39c.31.16.67.35,1.04.54-.23.15-.48.45-.7.43-.39-.04-.77-.28-1.15-.43.23-.15.47-.31.81-.54Z"/>
        <path class="cls-2" d="M68.57,200.01c-.19.35-.32.59-.45.82-.18-.45-.39-.88-.52-1.35-.03-.1.26-.28.41-.42.2.33.4.67.56.95Z"/>
        <path class="cls-2" d="M54.26,112.08c.14.49.34.88.35,1.28,0,.23-.28.47-.43.7-.15-.38-.39-.76-.43-1.15-.02-.21.28-.46.51-.83Z"/>
        <path class="cls-2" d="M69.69,204.04c-.09-.84-.15-1.33-.16-1.83,0-.05.38-.1.58-.16.08.4.2.79.21,1.19,0,.15-.24.31-.64.8Z"/>
        <path class="cls-2" d="M59.23,187.24c-.21.34-.35.71-.46.7-.41-.03-.81-.18-1.21-.28.12-.2.22-.57.35-.58.4-.02.82.09,1.32.16Z"/>
        <path class="cls-2" d="M71.27,205.53c-1.38-.08-.78-1.15-.92-1.85,1.38.08.78,1.15.92,1.85Z"/>
        <path class="cls-2" d="M268.05,29.98c1.38.08.78,1.15.92,1.85-1.38-.08-.78-1.15-.92-1.85Z"/>
        <path class="cls-2" d="M49.29,75.69c-.14.06-.47.2-.8.34-.11-.25-.34-.54-.28-.75.08-.3.37-.54.58-.8.11.25.21.51.51,1.21Z"/>
        <path class="cls-2" d="M73.93,174.19c-.34-.23-.58-.38-.81-.54.38-.15.76-.39,1.15-.43.21-.02.46.28.7.43-.36.19-.73.38-1.04.54Z"/>
        <path class="cls-2" d="M123.5,29.79c.71.29.96.4,1.21.51-.26.2-.5.5-.8.58-.21.06-.5-.18-.75-.28.14-.33.28-.65.34-.8Z"/>
        <path class="cls-2" d="M71.27,205.53c1.38.08.78,1.15.92,1.85-1.38-.08-.78-1.15-.92-1.85Z"/>
        <path class="cls-2" d="M110.56,39.41c-.06-.14-.2-.47-.34-.8.25-.11.54-.34.75-.28.3.08.54.37.8.58-.25.11-.51.21-1.21.51Z"/>
        <path class="cls-2" d="M75.03,210.17c-.19.35-.32.59-.45.82-.18-.45-.39-.88-.52-1.35-.03-.1.26-.28.41-.42.2.33.4.67.56.95Z"/>
        <path class="cls-2" d="M67.67,64.35c-.38-.3-.66-.51-.94-.72.38-.13.75-.33,1.13-.35.2-.01.42.3.64.46-.26.19-.51.38-.83.61Z"/>
        <path class="cls-2" d="M38.09,107.7c-.23.34-.38.58-.54.81-.15-.38-.39-.76-.43-1.15-.02-.21.28-.46.43-.7.19.36.38.73.54,1.04Z"/>
        <path class="cls-2" d="M29.7,187.05c.31.38.62.77.92,1.15-.31.23-.62.47-.92.7v-1.85Z"/>
        <path class="cls-2" d="M55.75,106.57c-.3.38-.51.66-.72.94-.13-.38-.33-.75-.35-1.13-.01-.2.3-.42.46-.64.19.26.38.51.61.83Z"/>
        <path class="cls-2" d="M41.77,106.69c-.19.35-.32.59-.45.82-.18-.45-.39-.88-.52-1.35-.03-.1.26-.28.41-.42.2.33.4.67.56.95Z"/>
        <path class="cls-2" d="M77.7,53.27c-.21.34-.35.71-.46.7-.41-.03-.81-.18-1.21-.28.12-.2.22-.57.35-.58.4-.02.82.09,1.32.16Z"/>
        <path class="cls-2" d="M77.19,215.32c-.81.19-1.25.43-1.57.32-.28-.09-.44-.57-.65-.88.29,0,.59-.05.86.01.33.08.65.25,1.36.55Z"/>
        <path class="cls-2" d="M56.75,217.9c-.09-.84-.15-1.33-.16-1.83,0-.05.38-.1.58-.16.08.4.2.79.21,1.19,0,.15-.24.31-.64.8Z"/>
        <path class="cls-2" d="M46.14,78.98c.07.5.18.91.16,1.32,0,.13-.38.23-.58.35-.11-.4-.26-.8-.28-1.21,0-.11.36-.24.7-.46Z"/>
        <path class="cls-2" d="M38.01,153.79c.31.38.62.77.92,1.15-.31.23-.62.47-.92.7v-1.85Z"/>
        <path class="cls-2" d="M58.41,185.09c-.16.31-.35.67-.54,1.04-.15-.23-.45-.48-.43-.7.04-.39.28-.77.43-1.15.15.23.31.47.54.81Z"/>
        <path class="cls-2" d="M76.81,224h-.92c0-.3-.08-.64.02-.9.11-.3.39-.53.6-.79.1.26.24.51.29.78.05.29.01.6.01.9Z"/>
        <path class="cls-2" d="M46.35,138.94c.35.19.59.32.82.45-.45.18-.88.39-1.35.52-.1.03-.28-.26-.42-.41.33-.2.67-.4.95-.56Z"/>
        <path class="cls-2" d="M201.61,7.69c-.16.31-.35.67-.54,1.04-.15-.23-.45-.48-.43-.7.04-.39.28-.77.43-1.15.15.23.31.47.54.81Z"/>
        <path class="cls-2" d="M190.81,4.77c-.84.09-1.33.15-1.83.16-.05,0-.1-.38-.16-.58.4-.08.79-.2,1.19-.21.15,0,.31.24.8.64Z"/>
        <path class="cls-2" d="M191.4,3.12c.35.19.59.32.82.45-.45.18-.88.39-1.35.52-.1.03-.28-.26-.42-.41.33-.2.67-.4.95-.56Z"/>
        <path class="cls-2" d="M66.83,182.34c-.3.38-.51.66-.72.94-.13-.38-.33-.75-.35-1.13-.01-.2.3-.42.46-.64.19.26.38.51.61.83Z"/>
        <path class="cls-2" d="M50.95,60.47c.38-.31.77-.62,1.15-.92.23.31.47.62.7.92h-1.85Z"/>
        <path class="cls-2" d="M52.38,88.19c-.14-.18-.28-.36-.43-.55.19-.06.52-.21.56-.15.15.19.19.46.28.7-.14,0-.27,0-.41,0Z"/>
        <path class="cls-2" d="M47.12,87.86c-.12.12-.23.23-.33.33-.1-.21-.24-.4-.29-.62-.02-.08.19-.2.29-.3.11.2.22.4.33.6Z"/>
        <path class="cls-2" d="M50.81,86.67c-.11.19-.22.39-.33.6-.1-.1-.31-.23-.29-.3.05-.22.19-.41.29-.62l.33.33Z"/>
        <path class="cls-2" d="M77.33,92.81c-.14-.18-.28-.36-.43-.55.19-.06.52-.21.56-.15.15.19.19.46.28.7-.14,0-.27,0-.41,0Z"/>
        <path class="cls-2" d="M77.74,92.81c.31.31.62.62.92.92l-.92-.92Z"/>
        <path class="cls-2" d="M79.51,94.27c-.11.11-.26.3-.29.28-.2-.11-.37-.27-.56-.41.14-.14.27-.27.41-.41.15.18.29.36.44.54Z"/>
        <path class="cls-2" d="M45.27,83.24c-.12.12-.23.23-.33.33-.1-.21-.24-.4-.29-.62-.02-.08.19-.2.29-.3.11.2.22.4.33.6Z"/>
        <path class="cls-2" d="M74.18,96.17c.11-.19.22-.39.33-.6.1.1.31.23.29.3-.05.22-.19.41-.29.62-.1-.1-.21-.21-.33-.33Z"/>
        <path class="cls-2" d="M41.63,79.49c-.11.11-.26.3-.29.28-.2-.11-.37-.27-.56-.41.14-.14.27-.27.41-.41.15.18.29.36.44.54Z"/>
        <path class="cls-2" d="M31.55,78.44c-.18.14-.36.28-.55.43-.06-.19-.21-.52-.15-.56.19-.15.46-.19.7-.28,0,.14,0,.27,0,.41Z"/>
        <path class="cls-2" d="M56.1,104.89c.11.11.3.26.28.29-.11.2-.27.37-.41.56-.14-.14-.27-.27-.41-.41.18-.15.36-.29.54-.44Z"/>
        <path class="cls-2" d="M54.31,108.65l.33.33c-.21.1-.4.24-.62.29-.08.02-.2-.19-.3-.29.2-.11.4-.22.6-.33Z"/>
        <path class="cls-2" d="M74.04,73.41l-.77-.62c.26-.1.51-.2.77-.3v.92Z"/>
        <path class="cls-2" d="M283.35,72.48c-.14-.18-.28-.36-.43-.55.19-.06.52-.21.56-.15.15.19.19.46.28.7-.14,0-.27,0-.41,0Z"/>
        <path class="cls-2" d="M13.07,113.6c-.21.1-.4.24-.62.29-.08.02-.2-.19-.3-.29.21-.1.4-.24.62-.29.08-.02.2.19.3.29Z"/>
        <path class="cls-2" d="M26.51,114.06c-.14-.18-.28-.36-.43-.55.19-.06.52-.21.56-.15.15.19.19.46.28.7-.14,0-.27,0-.41,0Z"/>
        <path class="cls-2" d="M40.71,71.17c-.11.11-.26.3-.29.28-.2-.11-.37-.27-.56-.41.14-.14.27-.27.41-.41.15.18.29.36.44.54Z"/>
        <path class="cls-2" d="M31.22,116.96c.12.12.23.23.33.33-.21.1-.4.24-.62.29-.08.02-.2-.19-.3-.29.2-.11.4-.22.6-.33Z"/>
        <path class="cls-2" d="M81.3,66.34c-.11.19-.22.39-.33.6-.1-.1-.31-.23-.29-.3.05-.22.19-.41.29-.62.1.1.21.21.33.33Z"/>
        <path class="cls-2" d="M81.43,120.53c.21-.26.41-.51.62-.77.1.26.2.51.3.77h-.92Z"/>
        <path class="cls-2" d="M28.36,123.3c-.14-.18-.28-.36-.43-.55.19-.06.52-.21.56-.15.15.19.19.46.28.7-.14,0-.27,0-.41,0Z"/>
        <path class="cls-2" d="M40.45,122.51c.12.12.23.23.33.33-.21.1-.4.24-.62.29-.08.02-.2-.19-.3-.29.2-.11.4-.22.6-.33Z"/>
        <path class="cls-2" d="M83.28,64.58c-.18.14-.36.28-.55.43-.06-.19-.21-.52-.15-.56.19-.15.46-.19.7-.28,0,.14,0,.27,0,.41Z"/>
        <path class="cls-2" d="M29.62,123.83c-.11.11-.26.3-.29.28-.2-.11-.37-.27-.56-.41l.41-.41c.15.18.29.36.44.54Z"/>
        <path class="cls-2" d="M27.72,125.74c-.12.12-.23.23-.33.33-.1-.21-.24-.4-.29-.62-.02-.08.19-.2.29-.3.11.2.22.4.33.6Z"/>
        <path class="cls-2" d="M19.67,126.4c.12-.12.23-.23.33-.33.1.21.24.4.29.62.02.08-.19.2-.29.3-.11-.2-.22-.4-.33-.6Z"/>
        <path class="cls-2" d="M45.4,62.73c-.18.14-.36.28-.55.43-.06-.19-.21-.52-.15-.56.19-.15.46-.19.7-.28,0,.14,0,.27,0,.41Z"/>
        <path class="cls-2" d="M78.33,127.78c-.19-.11-.39-.22-.6-.33.1-.1.23-.31.3-.29.22.05.41.19.62.29-.1.1-.21.21-.33.33Z"/>
        <path class="cls-2" d="M37.94,129.38c-.11.11-.26.3-.29.28-.2-.11-.37-.27-.56-.41l.41-.41c.15.18.29.36.44.54Z"/>
        <path class="cls-2" d="M279.14,59.96c-.18.14-.36.28-.55.43-.06-.19-.21-.52-.15-.56.19-.15.46-.19.7-.28,0,.14,0,.27,0,.41Z"/>
        <path class="cls-2" d="M44.09,130.76c.11.11.3.26.28.29-.11.2-.27.37-.41.56-.14-.14-.27-.27-.41-.41.18-.15.36-.29.54-.44Z"/>
        <path class="cls-2" d="M16.63,132.21l-.33.33c-.1-.21-.24-.4-.29-.62-.02-.08.19-.2.29-.3.11.2.22.4.33.6Z"/>
        <path class="cls-2" d="M35.24,131.61c-.21.26-.41.51-.62.77-.1-.26-.2-.51-.3-.77h.92Z"/>
        <path class="cls-2" d="M43.56,132.02c-.18.14-.36.28-.55.43-.06-.19-.21-.52-.15-.56.19-.15.46-.19.7-.28,0,.14,0,.27,0,.41Z"/>
        <path class="cls-2" d="M62.82,132.21c-.12.12-.23.23-.33.33-.1-.21-.24-.4-.29-.62-.02-.08.19-.2.29-.3.11.2.22.4.33.6Z"/>
        <path class="cls-2" d="M76.4,59.55c-.14-.18-.28-.36-.43-.55.19-.06.52-.21.56-.15.15.19.19.46.28.7-.14,0-.27,0-.41,0Z"/>
        <path class="cls-2" d="M40.32,132.54c.1.21.24.4.29.62.02.08-.19.2-.29.3-.1-.21-.24-.4-.29-.62-.02-.08.19-.2.29-.3Z"/>
        <path class="cls-2" d="M74.5,132.54c.1.21.24.4.29.62.02.08-.19.2-.29.3-.1-.21-.24-.4-.29-.62-.02-.08.19-.2.29-.3Z"/>
        <path class="cls-2" d="M73.91,58.95c-.11.19-.22.39-.33.6-.1-.1-.31-.23-.29-.3.05-.22.19-.41.29-.62.1.1.21.21.33.33Z"/>
        <path class="cls-2" d="M11.22,134.8c-.18.14-.36.28-.55.43-.06-.19-.21-.52-.15-.56.19-.15.46-.19.7-.28,0,.14,0,.27,0,.41Z"/>
        <path class="cls-2" d="M37.6,135.31c-.14-.18-.28-.36-.43-.55.19-.06.52-.21.56-.15.15.19.19.46.28.7-.14,0-.27,0-.41,0Z"/>
        <path class="cls-2" d="M38.86,135.85c-.11.11-.26.3-.29.28-.2-.11-.37-.27-.56-.41l.41-.41c.15.18.29.36.44.54Z"/>
        <path class="cls-2" d="M47.12,135.9c-.12.12-.23.23-.33.33-.1-.21-.24-.4-.29-.62-.02-.08.19-.2.29-.3.11.2.22.4.33.6Z"/>
        <path class="cls-2" d="M37.6,138.08c-.14-.18-.28-.36-.43-.55.19-.06.52-.21.56-.15.15.19.19.46.28.7-.14,0-.27,0-.41,0Z"/>
        <path class="cls-2" d="M44.48,139.93h.92l-.62.77c-.1-.26-.2-.51-.3-.77Z"/>
        <path class="cls-2" d="M97.14,56.77l.92.92-.92-.92Z"/>
        <path class="cls-2" d="M96.22,56.77c.21-.26.41-.51.62-.77.1.26.2.51.3.77h-.92Z"/>
        <path class="cls-2" d="M100.42,55.85c-.14-.18-.28-.36-.43-.55.19-.06.52-.21.56-.15.15.19.19.46.28.7-.14,0-.27,0-.41,0Z"/>
        <path class="cls-2" d="M32.93,143.62c.1.21.24.4.29.62.02.08-.19.2-.29.3-.1-.21-.24-.4-.29-.62-.02-.08.19-.2.29-.3Z"/>
        <path class="cls-2" d="M37.68,144.41c-.19-.11-.39-.22-.6-.33.1-.1.23-.31.3-.29.22.05.41.19.62.29-.1.1-.21.21-.33.33Z"/>
        <path class="cls-2" d="M40.65,145.14c-.12.12-.23.23-.33.33-.1-.21-.24-.4-.29-.62-.02-.08.19-.2.29-.3.11.2.22.4.33.6Z"/>
        <path class="cls-2" d="M61.44,54.14c.19.11.39.22.6.33-.1.1-.23.31-.3.29-.22-.05-.41-.19-.62-.29.1-.1.21-.21.33-.33Z"/>
        <path class="cls-2" d="M63.29,53.87c-.12-.12-.23-.23-.33-.33.21-.1.4-.24.62-.29.08-.02.2.19.3.29-.2.11-.4.22-.6.33Z"/>
        <path class="cls-2" d="M78.2,153.79c.1.21.24.4.29.62.02.08-.19.2-.29.3-.1-.21-.24-.4-.29-.62-.02-.08.19-.2.29-.3Z"/>
        <path class="cls-2" d="M67.71,155.31c.11-.19.22-.39.33-.6.1.1.31.23.29.3-.05.22-.19.41-.29.62-.1-.1-.21-.21-.33-.33Z"/>
        <path class="cls-2" d="M89.61,157.81c-.11.19-.22.39-.33.6-.1-.1-.31-.23-.29-.3.05-.22.19-.41.29-.62.1.1.21.21.33.33Z"/>
        <path class="cls-2" d="M66.52,159c-.12.12-.23.23-.33.33-.1-.21-.24-.4-.29-.62-.02-.08.19-.2.29-.3.11.2.22.4.33.6Z"/>
        <path class="cls-2" d="M92.06,162.1c.1.21.24.4.29.62.02.08-.19.2-.29.3-.1-.21-.24-.4-.29-.62-.02-.08.19-.2.29-.3Z"/>
        <path class="cls-2" d="M57.28,170.75c-.11.19-.22.39-.33.6-.1-.1-.31-.23-.29-.3.05-.22.19-.41.29-.62.1.1.21.21.33.33Z"/>
        <path class="cls-2" d="M64.67,172.86c-.12.12-.23.23-.33.33-.1-.21-.24-.4-.29-.62-.02-.08.19-.2.29-.3.11.2.22.4.33.6Z"/>
        <path class="cls-2" d="M127.21,41.99c-.14-.18-.28-.36-.43-.55.19-.06.52-.21.56-.15.15.19.19.46.28.7-.14,0-.27,0-.41,0Z"/>
        <path class="cls-2" d="M93.31,40.47c-.11.19-.22.39-.33.6-.1-.1-.31-.23-.29-.3.05-.22.19-.41.29-.62l.33.33Z"/>
        <path class="cls-2" d="M115.62,40.14v-.92c.31.31.62.62.92.92h-.92Z"/>
        <path class="cls-2" d="M115.2,39.22c-.14-.18-.28-.36-.43-.55.19-.06.52-.21.56-.15.15.19.19.46.28.7-.14,0-.27,0-.41,0Z"/>
        <path class="cls-2" d="M65.59,194.77c-.11.19-.22.39-.33.6-.1-.1-.31-.23-.29-.3.05-.22.19-.41.29-.62.1.1.21.21.33.33Z"/>
        <path class="cls-2" d="M84.72,197.21c-.14-.18-.28-.36-.43-.55.19-.06.52-.21.56-.15.15.19.19.46.28.7-.14,0-.27,0-.41,0Z"/>
        <path class="cls-2" d="M85.13,197.21c.31.31.62.62.92.92-.31-.31-.62-.62-.92-.92Z"/>
        <path class="cls-2" d="M67.16,199.06c-.14-.18-.28-.36-.43-.55.19-.06.52-.21.56-.15.15.19.19.46.28.7-.14,0-.27,0-.41,0Z"/>
        <path class="cls-2" d="M269.82,32.37c-.11.11-.26.3-.29.28-.2-.11-.37-.27-.56-.41.14-.14.27-.27.41-.41.15.18.29.36.44.54Z"/>
        <path class="cls-2" d="M37.55,199.98c.1.21.24.4.29.62.02.08-.19.2-.29.3-.1-.21-.24-.4-.29-.62-.02-.08.19-.2.29-.3Z"/>
        <path class="cls-2" d="M118.39,32.75l.62-.77c.1.26.2.51.3.77h-.92Z"/>
        <path class="cls-2" d="M77.6,204.93c-.11.19-.22.39-.33.6-.1-.1-.31-.23-.29-.3.05-.22.19-.41.29-.62.1.1.21.21.33.33Z"/>
        <path class="cls-2" d="M267.13,29.06c.31.31.62.62.92.92-.31-.31-.62-.62-.92-.92Z"/>
        <path class="cls-2" d="M74.55,206.45c-.14-.18-.28-.36-.43-.55.19-.06.52-.21.56-.15.15.19.19.46.28.7-.14,0-.27,0-.41,0Z"/>
        <path class="cls-2" d="M75.81,206.99c-.11.11-.26.3-.29.28-.2-.11-.37-.27-.56-.41.14-.14.27-.27.41-.41.15.18.29.36.44.54Z"/>
        <path class="cls-2" d="M266.2,28.13c.31.31.62.62.92.92-.31-.31-.62-.62-.92-.92Z"/>
        <path class="cls-2" d="M58.34,211.48c-.18.14-.36.28-.55.43-.06-.19-.21-.52-.15-.56.19-.15.46-.19.7-.28,0,.14,0,.27,0,.41Z"/>
        <path class="cls-2" d="M265.28,27.21c.31.31.62.62.92.92-.31-.31-.62-.62-.92-.92Z"/>
        <path class="cls-2" d="M44.48,211.99l.77.62c-.26.1-.51.2-.77.3v-.92Z"/>
        <path class="cls-2" d="M83.15,212.59c-.12.12-.23.23-.33.33-.1-.21-.24-.4-.29-.62-.02-.08.19-.2.29-.3.11.2.22.4.33.6Z"/>
        <path class="cls-2" d="M57.28,214.17c-.11.19-.22.39-.33.6-.1-.1-.31-.23-.29-.3.05-.22.19-.41.29-.62.1.1.21.21.33.33Z"/>
        <path class="cls-2" d="M74.55,214.76c-.14-.18-.28-.36-.43-.55.19-.06.52-.21.56-.15.15.19.19.46.28.7-.14,0-.27,0-.41,0Z"/>
        <path class="cls-2" d="M264.36,26.29c.31.31.62.62.92.92-.31-.31-.62-.62-.92-.92Z"/>
        <path class="cls-2" d="M263.94,26.29c-.14-.18-.28-.36-.43-.55.19-.06.52-.21.56-.15.15.19.19.46.28.7-.14,0-.27,0-.41,0Z"/>
        <path class="cls-2" d="M64.67,216.28c-.12.12-.23.23-.33.33-.1-.21-.24-.4-.29-.62-.02-.08.19-.2.29-.3.11.2.22.4.33.6Z"/>
        <path class="cls-2" d="M141.07,25.36c-.14-.18-.28-.36-.43-.55.19-.06.52-.21.56-.15.15.19.19.46.28.7-.14,0-.27,0-.41,0Z"/>
        <path class="cls-2" d="M75.76,219.71c-.11.19-.22.39-.33.6-.1-.1-.31-.23-.29-.3.05-.22.19-.41.29-.62.1.1.21.21.33.33Z"/>
        <path class="cls-2" d="M179.87,17.05c-.14-.18-.28-.36-.43-.55.19-.06.52-.21.56-.15.15.19.19.46.28.7-.14,0-.27,0-.41,0Z"/>
        <path class="cls-2" d="M77.6,220.64c-.11.19-.22.39-.33.6-.1-.1-.31-.23-.29-.3.05-.22.19-.41.29-.62.1.1.21.21.33.33Z"/>
        <path class="cls-2" d="M55.7,222.75c.11-.19.22-.39.33-.6.1.1.31.23.29.3-.05.22-.19.41-.29.62-.1-.1-.21-.21-.33-.33Z"/>
        <path class="cls-2" d="M235.39,14.41l.33.33c-.21.1-.4.24-.62.29-.08.02-.2-.19-.3-.29.2-.11.4-.22.6-.33Z"/>
        <path class="cls-2" d="M240.34,13.81c-.21.1-.4.24-.62.29-.08.02-.2-.19-.3-.29.21-.1.4-.24.62-.29.08-.02.2.19.3.29Z"/>
        <path class="cls-2" d="M75.89,224.42c-.18.14-.36.28-.55.43-.06-.19-.21-.52-.15-.56.19-.15.46-.19.7-.28,0,.14,0,.27,0,.41Z"/>
        <path class="cls-2" d="M76.81,224c.31.31.62.62.92.92-.31-.31-.62-.62-.92-.92Z"/>
        <path class="cls-2" d="M238.95,11.5c.1.21.24.4.29.62.02.08-.19.2-.29.3-.1-.21-.24-.4-.29-.62-.02-.08.19-.2.29-.3Z"/>
        <path class="cls-2" d="M168.14,11.17c-.12.12-.23.23-.33.33-.1-.21-.24-.4-.29-.62-.02-.08.19-.2.29-.3.11.2.22.4.33.6Z"/>
        <path class="cls-2" d="M237.57,9.19c-.21.1-.4.24-.62.29-.08.02-.2-.19-.3-.29.21-.1.4-.24.62-.29.08-.02.2.19.3.29Z"/>
        <path class="cls-2" d="M201.4,1.93c-.12.12-.23.23-.33.33-.1-.21-.24-.4-.29-.62-.02-.08.19-.2.29-.3.11.2.22.4.33.6Z"/>
        <path class="cls-2" d="M68.11,229.62c.11.11.3.26.28.29-.11.2-.27.37-.41.56-.14-.14-.27-.27-.41-.41.18-.15.36-.29.54-.44Z"/>
        <path class="cls-2" d="M70.35,231.4l-.77-.62c.26-.1.51-.2.77-.3v.92Z"/>
        <path class="cls-2" d="M160.7,47.91c-.59-.64-.85-1.02-1.2-1.27-.38-.27-.85-.41-1.27-.6.39-.12.77-.31,1.17-.33.69-.04,1.53-.18,1.48.95-.01.32-.09.63-.18,1.25Z"/>
        <path class="cls-2" d="M149.82,45.62c.35.19.59.32.82.45-.45.18-.88.39-1.35.52-.1.03-.28-.26-.42-.41.33-.2.67-.4.95-.56Z"/>
        <path class="cls-2" d="M156.4,45.36c.11-.19.22-.39.33-.6.1.1.31.23.29.3-.05.22-.19.41-.29.62-.1-.1-.21-.21-.33-.33Z"/>
        <path class="cls-2" d="M189.52,33.68c-.91-.35-2.34.86-2.77-.92.91.35,2.34-.86,2.77.92Z"/>
        <path class="cls-2" d="M180.75,33.92c-.06-.17-.19-.51-.32-.85.56-.11,1.11-.29,1.67-.28.27,0,.54.37.82.57-.55.14-1.1.29-2.16.56Z"/>
        <path class="cls-2" d="M179,32.38c.19.81.43,1.25.32,1.57-.09.28-.57.44-.88.65,0-.29-.05-.59.01-.86.08-.34.25-.65.55-1.36Z"/>
        <path class="cls-2" d="M183.59,35.6c.11.11.3.26.28.29-.11.2-.27.37-.41.56-.14-.14-.27-.27-.41-.41.18-.15.36-.29.54-.44Z"/>
        <path class="cls-2" d="M189.52,33.68l.92.92c-.31-.31-.62-.62-.92-.92Z"/>
        <path class="cls-2" d="M186.34,32.75c-.14-.18-.28-.36-.43-.55.19-.06.52-.21.56-.15.15.19.19.46.28.7-.14,0-.27,0-.41,0Z"/>
        <path class="cls-2" d="M184.11,32.42c.11-.19.22-.39.33-.6.1.1.31.23.29.3-.05.22-.19.41-.29.62-.1-.1-.21-.21-.33-.33Z"/>
        <path class="cls-2" d="M194.14,74.33c-.31-.31-.62-.62-.92-.92.31.31.62.62.92.92Z"/>
        <path class="cls-2" d="M193.22,73.41c-.31-.31-.62-.62-.92-.92.31.31.62.62.92.92Z"/>
        <path class="cls-2" d="M196.5,65.09c-.14-.18-.28-.36-.43-.55.19-.06.52-.21.56-.15.15.19.19.46.28.7-.14,0-.27,0-.41,0Z"/>
        <path class="cls-2" d="M194.01,63.84c-.12.12-.23.23-.33.33-.1-.21-.24-.4-.29-.62-.02-.08.19-.2.29-.3.11.2.22.4.33.6Z"/>
        <path class="cls-2" d="M90.54,124.82c-.12.12-.23.23-.33.33-.1-.21-.24-.4-.29-.62-.02-.08.19-.2.29-.3.11.2.22.4.33.6Z"/>
        <path class="cls-2" d="M91.92,115.11c.19.11.39.22.6.33-.1.1-.23.31-.3.29-.22-.05-.41-.19-.62-.29.1-.1.21-.21.33-.33Z"/>
        <path class="cls-2" d="M83.66,89.67c-.81.19-1.25.43-1.57.32-.28-.09-.44-.57-.65-.88.29,0,.59-.05.86.01.33.08.65.25,1.36.55Z"/>
        <path class="cls-2" d="M85.64,91.88c-.14-.18-.28-.36-.43-.55.19-.06.52-.21.56-.15.15.19.19.46.28.7-.14,0-.27,0-.41,0Z"/>
        <path class="cls-2" d="M150.9,54.84c-.3.38-.51.66-.72.94-.13-.38-.33-.75-.35-1.13-.01-.2.3-.42.46-.64.19.26.38.51.61.83Z"/>
        <path class="cls-2" d="M149.72,57.31c-.11.11-.26.3-.29.28-.2-.11-.37-.27-.56-.41.14-.14.27-.27.41-.41.15.18.29.36.44.54Z"/>
        <path class="cls-2" d="M148.46,56.77c-.14-.18-.28-.36-.43-.55.19-.06.52-.21.56-.15.15.19.19.46.28.7-.14,0-.27,0-.41,0Z"/>
        <path class="cls-2" d="M190.04,80.8c-.14-.18-.28-.36-.43-.55.19-.06.52-.21.56-.15.15.19.19.46.28.7-.14,0-.27,0-.41,0Z"/>
        <path class="cls-2" d="M121.16,70.12c-.18.14-.36.28-.55.43-.06-.19-.21-.52-.15-.56.19-.15.46-.19.7-.28,0,.14,0,.27,0,.41Z"/>
        <path class="cls-2" d="M60.32,74.92c.11-.19.22-.39.33-.6.1.1.31.23.29.3-.05.22-.19.41-.29.62-.1-.1-.21-.21-.33-.33Z"/>
        <path class="cls-2" d="M59.59,72.61c.19.11.39.22.6.33-.1.1-.23.31-.3.29-.22-.05-.41-.19-.62-.29.1-.1.21-.21.33-.33Z"/>
        <path class="cls-2" d="M214.65,28.94c-.32.53-.46.77-.61,1.01-.42-.5-.85-1-1.27-1.5.25-.1.57-.36.74-.28.42.18.78.52,1.14.78Z"/>
        <path class="cls-2" d="M163.66,78.49c-.21.1-.4.24-.62.29-.08.02-.2-.19-.3-.29.21-.1.4-.24.62-.29.08-.02.2.19.3.29Z"/>
        <path class="cls-2" d="M148.87,96.5h-.92v-.92l.92.92Z"/>
        <path class="cls-2" d="M123.93,109.44v.92l-.77-.62c.26-.1.51-.2.77-.3Z"/>
        <path class="cls-2" d="M261.26,42.13c.12.12.23.23.33.33-.21.1-.4.24-.62.29-.08.02-.2-.19-.3-.29.2-.11.4-.22.6-.33Z"/>
        <path class="cls-2" d="M111.51,51.23c-.14-.18-.28-.36-.43-.55.19-.06.52-.21.56-.15.15.19.19.46.28.7-.14,0-.27,0-.41,0Z"/>
        <path class="cls-2" d="M216.24,59.16c-.11.11-.26.3-.29.28-.2-.11-.37-.27-.56-.41.14-.14.27-.27.41-.41.15.18.29.36.44.54Z"/>
        <path class="cls-2" d="M215.39,58.62l-.77-.62c.26-.1.51-.2.77-.3v.92Z"/>
        <path class="cls-2" d="M132.76,102.97c-.14-.18-.28-.36-.43-.55.19-.06.52-.21.56-.15.15.19.19.46.28.7-.14,0-.27,0-.41,0Z"/>
        <path class="cls-2" d="M117.93,143.62c.1.21.24.4.29.62.02.08-.19.2-.29.3-.1-.21-.24-.4-.29-.62-.02-.08.19-.2.29-.3Z"/>
        <path class="cls-2" d="M254.73,43.92c.11.11.3.26.28.29-.11.2-.27.37-.41.56-.14-.14-.27-.27-.41-.41.18-.15.36-.29.54-.44Z"/>
        <path class="cls-2" d="M96.08,82.05c-.11.19-.22.39-.33.6-.1-.1-.31-.23-.29-.3.05-.22.19-.41.29-.62.1.1.21.21.33.33Z"/>
        <path class="cls-2" d="M139.77,62.91c.11-.19.22-.39.33-.6.1.1.31.23.29.3-.05.22-.19.41-.29.62-.1-.1-.21-.21-.33-.33Z"/>
        <path class="cls-2" d="M241.53,93.17c-.09-.84-.15-1.33-.16-1.83,0-.05.38-.1.58-.16.08.4.2.79.21,1.19,0,.15-.24.31-.64.8Z"/>
        <path class="cls-2" d="M220.01,25.36h-1.85c.08-.81-.39-2.04,1.15-1.82,1.13.16.57,1.17.7,1.82Z"/>
        <path class="cls-2" d="M226.48,57.7h-.92l.62-.77c.1.26.2.51.3.77Z"/>
        <path class="cls-2" d="M231.1,93.73v.92l-.77-.62c.26-.1.51-.2.77-.3Z"/>
        <path class="cls-2" d="M161.81,88.6c-.18.14-.36.28-.55.43-.06-.19-.21-.52-.15-.56.19-.15.46-.19.7-.28,0,.14,0,.27,0,.41Z"/>
      </g>
    </g>
  </g>
</svg>