<?xml version="1.0" encoding="UTF-8"?>
<svg id="_图层_1" data-name="图层_1" xmlns="http://www.w3.org/2000/svg" viewBox="0 0 55.9 55.9">
  <defs>
    <style>
      .cls-1 {
        fill: #fffcf8;
      }
    </style>
  </defs>
  <path class="cls-1" d="M0,0c12.67,2.05,22.71,12.02,24.73,24.73C12.02,22.72,2.06,12.68,0,0h0Z"/>
  <path class="cls-1" d="M31.18,31.18c12.67,2.05,22.71,12.02,24.73,24.73-12.7-2.01-22.67-12.05-24.73-24.73h0Z"/>
  <path class="cls-1" d="M0,55.9c2.06-12.67,12.02-22.72,24.73-24.73-2.01,12.7-12.05,22.67-24.73,24.73h0Z"/>
  <path class="cls-1" d="M31.18,24.73C33.23,12.05,43.2,2.01,55.9,0c-2.01,12.7-12.05,22.67-24.73,24.73h0Z"/>
</svg>