<?xml version="1.0" encoding="UTF-8"?>
<svg xmlns="http://www.w3.org/2000/svg" viewBox="0 0 276.39 210.97">
  <defs>
    <style>
      .cls-1 {
        isolation: isolate;
      }

      .cls-2 {
        fill: #c23d31;
      }

      .cls-3 {
        mix-blend-mode: multiply;
        opacity: .5;
      }
    </style>
  </defs>
  <g class="cls-1">
    <g id="_图层_1" data-name="图层_1">
      <g class="cls-3">
        <path class="cls-2" d="M254.65,43.18c.6,1.17.97,2.31.04,3.52-.69.9-.01,1.91-.08,2.87-.53-.09-1.06-.18-1.6-.27-.31-.06-.78-.27-.9-.15-.24.24-.34.67-.38,1.03-.02.25.12.54.26.77.52.83,1.3,1.58,1.54,2.48.2.74-.49,1.66.24,2.46.08.09-.19.7-.42.83-.82.44-1.41,1.22-2.52,1.33-.44.04-.78,1.22-1.13,1.91-.07.13-.02.43.09.51.19.15.45.21.7.28.06.02.18-.08.24-.15.8-.89,1.62-.11,2.44-.11,1.16,0,1.82,1.19,3.15.82.93-.26,2.09.35,3.15.56,1.15.24,2.3.5,3.47.71,1,.17.98.13,1.48-1.42.1-.32.44-.6.73-.81.45-.32,1.07-.04,1.03.43-.03.39-.02.95-.25,1.12-1.13.82-.27,1.55.28,1.73,1.5.49,1.26,1.45,1.02,2.54-.15.66-.5,1.81-.3,1.92,1.16.67.99,2.05,1.78,2.88.99,1.03.97,1.31,0,1.87-.22.13-.61.02-.78.17-.41.38-.74.86-1.11,1.29.39,0,.78-.04,1.16,0,.39.04.77.18,1.16.22.46.05.7.17.5.69-.12.31-.02.81-.63.57-.88-.33-1.96-.05-2.69-.9-.1-.12-.7-.03-.72.04-.07.31-.14.76.03.96.6.7,1.3,1.31,1.96,1.95-1.77,1.05-3-.14-4.24-1.1-.43-.33-.5-.79.11-1.15,1.05-.62.95-1.04-.19-1.46-.38-.14-.67-.65-.91-1.04-.32-.52-.58-.53-1.16-.3-.56.22-.86-.28-.7-.83.1-.33.43-.58.57-.91.09-.21.02-.49.02-.74-.18.04-.38.04-.52.13-.74.47-1.53.89-2.19,1.46-.83.72-1.84,1.02-2.83,1.05-.61.02-1.09.08-1.59.4-1.59,1.02-3.15,2.01-4.97,2.7-1.35.51-2.4.95-3.69.17.86-1.05,2.3-.8,3.33-1.48,1.15-.76,2.23-1.69,3.48-2.2.72-.29,1.29-.38,1.91-1.05.5-.54,2-.03,2.89-.39.86-.35,1.51-1.22,2.26-1.86.07-.06.18-.14.25-.12,1.15.36,1.79-.58,2.57-1.06.9-.56,1.21-1.93.7-3.01-.34-.72-1.03-.69-1.75-.55-.27.05-.62-.16-.9-.3-.49-.24-1.03-.83-1.42-.74-.9.21-1.74.88-2.24-.51-.17.11-.43.19-.5.35-.28.66-.53.92-1.22.32-1.52-1.31-2.08-1.29-3.76-.28-.48.29-1.4.76-1.47.67-.82-1.12-.82-.05-1.18.33-.39.42-.93.8-1.47.96-.49.15-1.1.05-1.62-.07-.38-.09-3.49-1.33-3.77-1.28-1.01.19-1.66-.2-2.08-1.11-.23-.52-.52-.68-1.14-.38-.46.23-1.08.12-1.61.23-1.34.28-2.86-.57-4.06.68-.09.1-.56,0-.7-.15-.67-.75-1.52-.23-2.05-.06-4.66,1.49-9.48,1.92-14.31,2.26-.6.04-1.46-.8-1.17-1.16.92-1.13.71-2.57,1.21-3.8.45-1.11,1.08-2.15,1.47-3.27.44-1.25.48-2.59,1.19-3.81.61-1.04,1.14-2.32,1.11-3.48-.03-1.38.88-2.39.88-3.71,0-1.31-.02-2.74.47-3.9,1.51-3.61,1.82-7.3,1.31-11.12-.04-.27-.26-.53-.24-.78.26-3.31-.7-6.26-2.57-8.95-.71-1.02-1.36-2.03-1.33-3.36.03-1.14-.39-2.09-1.69-2.24-.69-.08-.97-.51-1.34-.98-.64-.83-1.47-.75-1.87.12-.31.68-.89,1.42-.8,2.05.5,3.5-2.03,5.86-3.22,8.7-.33.79-1.23,1.12.04,1.74.02.01-.1.61-.25.65-.34.11-.74-.02-1.09.07-.54.13-.66.71-.23,1.12.26.25,1.41-.09.42.92-.83.85-1.26,2.03-.86,3.33.05.17-.3.65-.49.67-.25.03-.57-.23-.79-.44-.08-.07.03-.34.05-.53-.66-.08-1.97.85-1.86,1.38.12.56,1.1.98.05,1.67-.46.3.72,1.3-.39,1.64.14.31.29.61.43.92.26-.21.67-.38.76-.65.24-.74.36-1.53.5-2.3.09-.51.26-1.06.87-.82.24.1.27.77.33,1.19.15,1.01-.85,1.7-.66,2.85.17,1-.32,2.12-.58,3.16-.31,1.23-.82,2.34-.91,3.7-.08,1.18-.73,2.51-1.07,3.8-.44,1.66-.94,3.31-1.45,4.95-.1.34-.35.63-.54.95-.29-.19-.68-.32-.84-.59-.79-1.32-2.16-2.05-3.16-3.14-1.5-1.63-3.47-2.79-4.78-4.61-.67-.93-1.54-1.65-2.26-2.48-.83-.96-1.83-1.52-2.78-2.26-1.74-1.35-3.71-2.4-5.36-3.75-1.69-1.38-3.25-2.96-5.08-4.21-2.56-1.76-4.93-3.8-7.99-4.78-1.35-.43-2.75-1.18-3.68-2.3-.6-.73-1.29-.82-2.02-.93-1.17-.18-2.02.88-1.6,1.97.17.45.85.94.75,1.22-.78,2.22,1.1,3.37,1.89,4.94.31.61,1.13,1.3,1,1.72-.49,1.47.59,2.33.93,3.48.88,2.97,1.64,5.95,3.54,8.48.06.08.16.17.16.25-.08,1.93,1.93,2.95,2.16,4.58.29,2.02,1.65,3.28,2.67,4.74,1.01,1.45,1.22,3.21,2.22,4.61.07.1,0,.33-.05.49-.55,1.78-.51,1.76-.2,2.33.55,1.03,1.38,1.78,2.32,2.43.22.16.43.34.65.5-.03-.25-.06-.5-.1-.75-.1-.58-1.26-.9-.41-1.7.61.56,1.53,1.02,1.76,1.71.52,1.58.82,3.21,1.7,4.68.4.67-.15,1.33-.99,1.59-1.93.61-4.14.36-5.76,1.93-.2.19-.73.12-1.08.06-1.89-.35-3.64-.11-5.44.68-2.68,1.18-5.67,1.42-8.42,2.43-.76.28-1.74.13-2.36.55-.68.47-1.96.02-2.1,1.3-.89-.04-1.66.28-2.34.83-1.4,1.13-3.32,1.63-4.16,3.44-3.16,1.94-5.4,4.89-8,7.44-1.22,1.19-2.35,2.55-3.14,4.12-.41.82-.93,1.58-1.29,2.41-.43.98-1.71.45-2.15,1.29-.14.27-.26.74-.12.92.26.34.7.74,1.09.77,1.58.12,3.3-.26,4.71.26,1.63.6,2.96-1.3,4.43-.12.73-.88,1.74-.08,2.42-.35.97-.39,1.79-.43,2.76-.25.5.09,1.13-.07,1.58-.33,3-1.72,6.46-1.15,9.63-2.01,2.33.62,4.62-.14,6.87-.43,2.22-.28,4.36-1.32,6.67-1.43,1.48-.07,2.63-1.61,4.3-.91.23.1.67-.28,1-.47.51-.31.98-.66,1.49-.96.14-.08.36-.03.54-.04-.03.19-.08.37-.09.56-.05.83-.63,1.2-1.32,1.25-.48.03-1-.17-1.11.48-.01.07.77.28,1.19.42.44.16,1,.2,1.31.49.79.74.57-.09.77-.39.24-.36.69-.49.42-1.16-.47-1.17.5-1.7,1.34-2.2.15-.09.44-.16.52-.09.19.17.44.47.4.67-.24,1.33-.76,2.67.52,3.81.15.13,1.95,2.95,2.08,2.92.36-.07.69-.26,1.03-.4-.61,4.01-1.09,8.04-2.63,11.86-.49,1.22-.38,2.66-1.22,3.78.41,3.3-.87,6.39-1.15,9.61-.22,2.55-1.44,4.86-1.6,7.46-.18,2.98-.85,5.93-1.35,8.88-.11.62-.08,1.09.31,1.62,1.16,1.6,1.31,3.25.1,4.95-.2.28-.03.82-.04,1.24.46-.02,1.01.12,1.36-.08,1.19-.68,2.33-1.47,3.47-2.25.88-.6,1.9-1.1,2.57-1.89.77-.9,1.74-1.8,2.19-2.77.54-1.17,1.21-2.29,1.71-3.48.89-2.15,1.5-4.46,2.69-6.42,1.24-2.05,2.28-4.17,3.34-6.3.86-1.74,1.91-3.47,2.28-5.32.25-1.27,1.37-1.78,1.59-2.94.53-2.75,1.17-5.47,2.01-8.16.64-2.08,1.34-4.25,1.02-6.54-.06-.46.13-.98.29-1.44.23-.68.95-.81,1.72-.36,1.87,1.09,2.44,2.77,1.5,5.05-.17.41-.54.57-.28,1.16.83,1.84,2.34,3.47,1.92,5.74-.02.09.2.32.26.3.99-.29,1.63,1.43,2.84.4.72-.62,1.14.47,1.15.79.07,1.83,1.18,2.8,2.5,3.84.82.64,1.92.94,2.49,1.65.74.93,1.18,1.02,2.06.35.21-.16.74.11,1.13.18-.18.26-.3.59-.54.78-.46.37-1.01.62-1.45,1-.22.2-.28.58-.41.88.32.05.78.26.92.13.76-.72,1.78-.53,2.63-.86.25-.1,1.68,2.22.77-.34.18-.04.52-.14.53-.11.38.98,2.14,1.01,1.73,2.55-.05.19.24.6.47.71.75.37,1.55.63,2.32.97.83.37.17,1.61,1.11,1.93.09.03.22.01.29.07.72.55,1.43,1.13,2.16,1.68.83.62,1.56,1.3,2.2,2.15.51.67,1.81.8,2.21,1.49.49.83,1.68,1.08,1.71,2.24,0,.17.58.32.89.47.2.1.42.17.62.25.04-.19.02-.43.13-.57.57-.79-1.09-1.22-.3-2.07.39-.42.71-1.51.65-1.8-.28-1.33.44-2.88-.84-4,.76-1.66-.43-2.73-1.17-3.95-.09-.14-.03-.36-.08-.54-.34-1.35-.62-2.67-1.39-3.92-.78-1.27-1.05-2.8-2-4.06-1.24-1.65-2.3-3.43-3.44-5.16-.27-.41-.83-.88-.76-1.22.36-1.73-1.15-1.91-2.02-2.62-.28-.23-.7-.38-.83-.66q-1.46-3.33-3.68-5.51c-.4-.39-.72-.96-.84-1.5-.07-.33.54-.88.42-1.13-.16-.34-.83-.41-1.09-.75-.46-.58-1.07-1.16-.72-2.08.12-.32.13-.79-.02-1.09-1.27-2.52-1.96-5.31-3.6-7.65-.45-.65-.88-1.31-1.3-1.97q-1.1-1.73.93-2.57c.27-.11.48-.36.75-.47,1.71-.7,3.35-1.58,5.17-2,1.15-.27,2.33-.49,3.44-.87,1.14-.39,2.2-1.29,3.34-1.37,1.28-.09,2.12-1.4,3.08-1.23,2.23.41,3.8-1.6,5.91-1.24,1.11-1,2.26-.83,3.43-.13-1.56,1.09-3.37,1.59-5.15,2.13-1.34.4-1.47.77-.63,1.99.06.08.13.16.16.25.29,1.04,2.03.79,1.93,2.23-.06,1,.09,2.02.11,3.03,0,.23-.13.56-.31.68-.35.23-.72.82-1.21.2-.6-.75-.57-.18-.78.28-.22.47-.59.66-1.11.15-.31-.3-.91-.53-1.3-.45-.63.14-1.43.97-1.73.79-.66-.4-1.09-.62-1.7-.05-.11.1-.47.16-.51.1-.53-.81-1.1-.57-1.65-.07-.7.64.12,1.01.34,1.46.22.45.51.75-.06,1.21-.95.77-2.4.96-2.78,2.39-.21-.07-.45-.1-.61-.23-.29-.23-.51-.56-.82-.74-.08-.05-.6.41-.58.46.57,1.1.98,2.22.7,3.5,0,.01.61.27.89.2,1.08-.23,1.5.13,1.46,1.24-.05,1.43.79,2.63,1.22,3.92.25.75,1.04,1.31,1.59,1.96.9-1,1.22.75,1.99.45.02,0,.21.46.33.7-.24.01-.49,0-.72.05-.52.12-.92.36-.53.98.53.83,1.14,1.62,1.61,2.48.54.98,1.3,1.76,1.46,3.06.12.91.8,2.19,2.11,2.57.2.06.48.57.44.61-.59.66-.61,1.09.33,1.41.73.25,1.28.63.83,1.62-.14.31.18.89.41,1.28.55.93,1.18,1.82,1.78,2.72.71,1.08.73.21.87-.31.23.25.45.51.68.76-1.22.97-.05,1.63.34,2.38.04.07.29.02.45.03-.03-.18-.12-.37-.09-.53.06-.31.19-.61.29-.92.29.18.63.31.85.56.17.18.25.51.24.77-.04,1.28.55,1.34,1.72,1.38,1.24.05-.54,1.68.66,2.2.32.14.6.47.77.79.47.85.89.92,1.65.37.49-.36.89-.69.97-1.35.01-.11.49-.22.75-.23.12,0,.38.3.35.4-.55,1.73,1.37,1.79,1.87,3.13.05.18.09.04.14-.1-.12-.03-.24-.05-.37-.08-.01.15-.04.3-.02.44,0,.02.16.04.25-.26.39-.48.71-1.14,1.23-.57.26.29.58.63.63.98.11.72.1,1.47.06,2.21-.04.89,1.42.42,1.26,1.54-.1.67.25,1.42.48,2.11.07.21.42.32.64.48.26-.59.56-1.17.78-1.77.26-.7-.04-.98-.74-1.24-1.28-.46-1.03-1.83-.91-2.67.14-.95,1.05-1.74,2.07-2.15.03-.01.31.37.28.52-.2.9-.29,1.43.89,1.98.91.42,1.34,1.86,1.98,2.85-.67,1.33.77,1.24,1.23,1.79.18.22.3.15.29-.58,0-.66.56-1.03.81-.7.29.38,2.11.37.66,1.51.01,1.2.06,2.4,0,3.6-.01.28-.36.54-.56.81-.21-.27-.53-.51-.59-.8-.07-.31.26-.89-.44-.55-.38.19-.87.65-.86.97.01.42.44.86.76,1.23.62.71.94,1.66.5,2.44-.66,1.2-.96,2.52-1.92,3.65-1.09,1.29-1.48,3.15-2.37,4.65-.69,1.16-.82,2.82-2.5,3.25-.09.02-.23.1-.24.16-.13,2.15-2.32,2.41-3.34,3.68-1.7,2.13-3.97,3.48-6.24,4.59-2.44,1.19-4.71,2.58-6.99,4-.36.22-.88.24-1.33.28-.37.03-.87-.2-1.1-.03-1.2.88-2.45,1.43-3.97,1.15-1.68,1.41-3.91.91-5.81,1.65-1.78.7-3.7.9-5.61,1.16-1.79.24-3.52.89-5.37.99-1.72.1-3.43.49-5.14.7-1.72.21-3.47.61-5.17.5-3.53-.23-7.04.51-10.59.07-2.04-.26-4.14-.1-6.19-.49-1.16-.22-2.31-.52-3.48-.71-4.94-.78-9.65-2.31-14.19-4.39-.34-1.02-1.81.76-2.09-.86-.06-.34-1.41-.36-2.08-.71-1.05-.54-2.11-1.12-3.01-1.87-.99-.82-2.67-.73-3.04-2.34-1.81.72-2.08-2.05-3.8-1.69-.19.04-.48-.88-.86-1.08-.52-.27-1.21-.44-1.77-.34-.6.11-1.03.61-.4,1.28-.7,2.79-.24,5.67-.79,8.52-.88,4.54-2.63,8.6-4.88,12.56-1.02,1.8-2.69,3-3.85,4.64-.73,1.03-1.61,1.82-2.69,2.47-1.27.76-2.48,1.61-3.9,2.62-.1-.04-.03-.23.04-.42-.17-.01-.4-.1-.5-.02-.2.15-.33.39-.48.59.22.02.45.03.95-.14.35.2,1.04.59.45,1.02-.82.6-1.6,1.38-2.8,1.17-.24-.04-.5.06-.75.09.16-.21.4-.41.48-.65.28-.88-.52-1.32-.86-1.95-.15.14-.43.29-.43.43-.01.45.19.92.09,1.34-.07.3-.49.52-.76.77-.22-.33-.37-.74-.67-.96-.22-.16-.89-.15-.9-.09-.21.73-.72,1.82-.41,2.17,1.08,1.21-.5,1.88-.36,2.85.03.21-.44.49-.68.74-.05-.31-.02-.66-.17-.91-.18-.3-.45-1.09-.81-.03-.24.69-.82,1.12-1.59.82-.37-.15-.86-.5-.9-.82-.06-.42-.13-1.22.88-.9.4.13.9-.05,1.35-.14.05-.01.11-.44.07-.45-.69-.29-1.39-.63-2.11-.74-.22-.03-.53.59-.82.9-.55.57-.98,1.16-.58,2.01.16.33.46.88.34,1-.38.42-.93.7-1.43,1.01-.02.01-.29-.28-.33-.45-.04-.17.05-.39.1-.57.31-1.05-.49-1.57-1.09-2.15-.06-.05-.57.18-.66.37-.49,1.08-.29,1.89.56,2.56.42.33.76.68.14,1.1-1.06.72-2.12,1.43-3.21,2.11-.97.6-1.84.1-2.68-.35-.1-.06-.17-.42-.1-.5.17-.19.52-.47.65-.41,1.32.62,2.23-.17,3.2-.83.65-.45.16-.81-.05-1.21-.33-.62-.74-.5-1.16-.12-.2.18-.48.39-.53.62-.15.79-.6.89-1.27.71-.47-.13-.96-.22-1.45-.3-.57-.1-.93.09-.89.74.03.46.14.93.05,1.37-.15.78.67,2.28-1.31,1.84-.24-.05-.81.39-.86.67-.12.67-.39.69-.94.54-.93-.24-1.87-.54-2.73.29-.6.58-1.28.3-1.81-.16-.7-.6-1.38-.67-2.06-.09-.77.66-1.35.73-1.79-.33-.05-.13-.3-.2-.47-.27-.88-.35-.2,1.47-1.21.9-.47-.27-.86-.67-1.31-.98-.12-.08-.33-.04-.5-.01-.03,0-.08.2-.05.27.07.18.22.32.29.5.33.85,1.72,1.51,1.03,2.41-.37.48-1.75.32-2.65.22-.94-.1-1.86-.48-2.78-.73-.52-.14-1.05-.28-1.57-.41-.31-.07-.63-.12-.94-.18.06-.24.04-.63.19-.7.38-.19.94-.45,1.22-.3.43.23.67.83.82-.16.06-.38.22-.72-.39-.76-.39-.03-.77-.15-1.16-.23-1.39-.27-1.42-.28-1.91,1.2-.3.9-.5,1.09-1.36.35-.67-.57-1.7-.73-2.58-1.05-.36-.13-.95-.12-1.06-.35-.57-1.24-1.34-1-1.98-.24-.6.71-.2,1.54.9,2.28.15.1.3.2.45.31-.86.23-1.42,1.86-2.65.56-.09-.09-.65.28-.99.42-.34.14-.69.27-1.03.41.26-.32.5-.67.8-.95.57-.53.07-.94-.22-1.2-.32-.29-.82-.46-1.27-.53-.91-.15-1.65-.43-2.08-1.34-.11-.22-.69-.45-.84-.36-.35.22-.86.76-.78.96.63,1.6-.66,1.97-1.54,2.64-.48.36-.7.14-1.18-.15-2.26-1.35-3.23-1.08-4.97,1-.34.4-.78.86-1.25.96-.7.16-1.47.05-2.21-.03-.06,0,.02-.67-.1-.97-.4-.99-1.04-1.13-1.72-.37-.23.26-.24.72-.48.98-.48.51-1.13.19-1.5-.58-.23-.47-.57-.94-.98-1.24-.23-.17-.63-.4-1.03.32-.67,1.21-1.05,1.13-1.8.17-.42-.54-.61-1.1-1.56-.64-.52.25-1.34-.13-1.92-1.39-.21-.32-.13-.13,0,0,.15.14.36.22.54.33-.05-.26-.04-.54-.15-.76-.16-.34-.39-.65-.62-.95-.1-.13-.3-.17-.45-.26.02.23,0,.48.06.7.05.17.2.32.61.95-1.53,1.45-2.86.42-4.01-.79-.66-.69-.96-.15-1.41.08-.37-.43-.73-.86-1.1-1.29-.78.86-1.64-1.05-2.44.07-.67.93-1.33.35-1.9-.13-.5-.42-.89-.95-1.35-1.41-.55-.55-.46.03-.64.32-.38.6-.39.55-.8-.27-.13-.26-.73-.58-.79-.52-1.24,1.13-1.62.02-2.13-.77.16-.11.34-.19.48-.32.13-.12.21-.29.32-.43-.21-.02-.43-.09-.63-.04-.18.04-.33.2-.49.3-.14-.34-.41-.69-.41-1.03.03-1.5.06-1.48-1.45-1.3-.68.08-1.56-.74-1.95.48-.43-.17-1.02-.22-1.27-.54-.64-.81-1.43-1.63-.93-2.88.11-.26-.14-.71-.29-1.03-.3-.62-1-.56-1.09-.1-.22,1.09-.73,1.1-1.66.95-.88-.14-1.76-.55-1.68-1.29.21-1.96-1.35-2.02-2.44-2.54-.53-.25-1.04-.18-.77-1.05.18-.59.08-1.29,0-1.92-.1-.74-1.63-1.42-2.33-1.1-.43.19-.84.48-1.28.55-.86.14-1.28-.47-.79-1.28.79-1.29-.41-2.3-.35-3.47,0-.02-.46-.1-.71-.1-2.24-.08-2.88-.69-3.34-2.77-.08-.35.56-1.33-.56-1.19-.54.06-1.06.29-1.56.51-.11.05-.07.37-.15.54-.41.8-1.18.66-1.89.86-1.5.42-1.19-.34-1.06-1.17,0-.03-.59-.06-.78-.23-.17-.16-.32-.65-.23-.74.42-.39.89-.83,1.42-.98.24-.07.64.54,1.01.77.19.12.49.15.73.11.13-.02.31-.26.32-.41.03-.64.02-1.29-.02-1.94-.02-.27-.1-.74-.21-.76-1.37-.24-1.45-1.27-1.53-2.33,0-.11-.29-.26-.45-.27-.17,0-.38.12-.49.25-.11.13-.12.35-.19.53-.55,1.5-.54,1.46-1.9,1.25-.69-.11-1.07-.27-.71-1.05.2-.42.2-1.16.49-1.29,1.68-.72,2.03-2.18,2.35-3.71.05-.24.31-.44.47-.66-.26.05-.54.05-.78.16-1.2.53-2.34,1.25-3.59,1.58-.94.25-1.84-.55-2.77-.85-.25-.08-.54-.94-.39-1.19.31-.51.68-.25,1.12.17,1.07,1.02,1.94,1.14,2.37.23.51-1.09,1.44-1.48,2.25-2.11.22-.17.57-.37.59-.57.03-.54.09-1.22-.2-1.59-.29-.38-.96-.6-1.48-.62-.81-.03-1.62.21-2.44.26-.24.01-.68-.22-.69-.36-.02-.29.11-.68.32-.89.33-.33.95-.54.43-1.1-.4-.43-.32-1.46-1.37-1.16-.34.1-.82-.1-1.09.06-.67.41-1.17.37-1.18-.44,0-.57-.05-1.57,1.05-1.28.56.15,1.32-.8,1.74.31.02.06.7-.24,1.02-.17,1.06.24,1.56-.52,2.15-1.11.06-.06-.08-.46-.18-.48-.82-.16-1.64-.28-2.47-.36-.15-.02-.33.2-.49.31-.49.34-.96.75-1.39-.11-.33-.66-.16-.51.62-1.64.81-1.17,2.13-2.12,2.18-3.75.03-.99.57-1.58,1.4-2.03.18-.1.25-.41.37-.63-.29-.06-.59-.21-.87-.16-.63.1-1.23.36-1.86.44-.82.11-.91.38-.58,1.13.4.88-.33,2.37-1.21,2.64-.19.06-.57-.07-.69-.24-.43-.61-1.1-1.19-.65-2.09.25-.49.65-.98.69-1.49.06-.88-.46-1.97-.1-2.63.42-.76,1.55-1.12,2.31-1.72.26-.21.32-.65.53-.95.39-.57.17-.93-.41-1.04-.44-.08-.93.13-1.36.04-.29-.06-.78-.49-.74-.6.6-1.74-.75-3.02-.97-4.55-.13-.9-.09-1.83-.12-2.75,1.03.35,1.19-.53,1.02-1.02-.39-1.11-.2-1.35.98-1.25.8.07.9-.52.42-1.15-.3-.39-.55-.82-1.03-1.34.19-.07.36,0,.44-.05.21-.15.38-.35.56-.53-.1-.09-.26-.27-.29-.26-.26.18-.51.39-.71.84-.35.46-1.1,1.09-1.16-.15-.03-.6-.65-1.43.31-2.03.18-.11-1.04-.49-.57-1.34.26-.47.3-1.14.23-1.69-.22-1.73.16-3,2.14-3.29.15-.02.39-.25.4-.39.04-.55-.21-1.31.07-1.6.27-.29,1.05-.17,1.59-.12.58.06.61-.06.43-.58-.08-.24.22-.87.26-.86,1.02.18,2.27-.86,3.08.59.64,1.15,1.52-.22,2.26.11.13-.35.3-.7.35-1.06.02-.11-.3-.36-.49-.39-.85-.13-1.71-.16-2.55-.33-.69-.14-1.46-.75-2.01-.57-1.47.48-.99-.33-.85-1.02.1-.48.15-.98.31-1.44.18-.54.49-.75,1.07-.35.58.4,1.22.86,1.88.96.54.08,1.15-.33,1.73-.53-.32-.43-.63-.86-.95-1.29-.13-.17-.26-.33-.39-.49.16-.11.32-.31.49-.31.74-.03,1.49-.06,2.23.03.61.07,1.02.16,1.35-.6.48-1.11-.61-.97-.96-1.29-.59-.54-1.43-.79-2.13-1.23-.11-.07-.03-.45-.04-.68,1.14.51,1.17-.52,1.56-1.09.74-1.1,1.84.02,3.4-.61.21-.15-.02-.13-.23-.05-.17.06-.31.19-.46.29.22.09.47.29.66.24.21-.06.36-.34.03-.48-1-1.02-2.31-.58-3.08-1.1-.81-.54-1.35-.78-1.04-1.92.27-.96.89-2.01.02-3.06-.1-.11.14-.69.36-.85,1.15-.83,2.48-1.45,2.83-3.04.07-.3.48-.56.79-.77,1.67-1.16,1.69-1.15,1.96-2.4.14-.67.25-1.25.93-1.7.38-.25.44-1,.59-1.55.14-.52-.43-1.05-.96-.84-.53.21-1,.58-1.51.85-.13.06-.33-.02-.5-.04.09-.16.13-.41.26-.47,1.36-.65,2.29-2.07,4.06-2.06.79,0,1.48-.87,1.21-1.69-.72-2.25.73-3.11,2.26-4.06.82-.5,1.51-.8,2.33,0,.16.16.63,0,.96-.02-.09-.34-.16-.7-.29-1.03-.06-.16-.22-.36-.37-.4-.59-.14-1.35-.39-.82-1.04.35-.44.92-1.15,1.92-.76,1.2.47,1.24.34,1.36-1.1.03-.39.08-.79.23-1.15.25-.62,1.27-.74,1.74-.08.57.79.95.33,1.43.03.66-.41.28-.86-.03-1.18-.91-.95-.41-1.44.48-1.98.45-.27.73-.82,1.13-1.19.41-.39.84-.99,1.32-1.04,2.59-.31,4.14-2.41,6.28-3.47.25-.13.64-.33.66-.52.07-.84.64-1.22,1.3-1.32.63-.09,1.24.15,1.03,1.03,1-.1,2.04-.05,2.99-.33,1.15-.34,2.26-.89,3.33-1.46.6-.32.75.04,1.17.3.67.41,1.34.48,1.48-.78.11-1,.36-.71,1.72-.77,1.84-.08,3.99.19,5.14-1.85.3-.53.58-.77,1.09-.55.38.17,1.02.62.98.75-.42,1.2.66,1.19,1.2,1.55.83.54,1.11.45.94-.58-.15-.93.48-1.04.89-1.21.59-.25.83.22.75.8-.01.1-.07.27-.05.28,1.33.62,2.28,1.71,3.39,2.6.16.13.5.04.76.06-.03-.18-.03-.38-.11-.53-.35-.68-.76-1.33-1.05-2.03-.09-.22.01-.64.18-.83.11-.12.54-.04.77.07.32.17.65.4.84.69.38.59.71.41,1.19.13.96-.56,1.72-1.61,3.14-1.1.64.23.87.28.73,1.08-.23,1.37.19,1.83,1.4,1.92.26.02.78-.33.79-.54.06-.82.07-1.67-.11-2.47-.24-1.05.19-1.66,1.03-2.08.48-.24,1.27-.67,1.46-.5.58.52.3,1.21-.18,1.76-.7.81-.52,1.63.14,2.3.52.53,1.43.17,2.33-.76.12-.13.38-.25.52-.2.13.04.3.35.25.47-.25.7-.37,1.57-.87,2.02-.83.75-.18,1.57-.39,2.31-.03.12.36.37.56.56.23-.24.69-.67.66-.7-.61-.74,0-.98.46-1.35.31-.25.51-.64.75-.97.53.46.86.92.71,1.73-.1.57-1.57,1.28-.16,1.72.93.29.66-.92.92-1.47.47-.99.89-1.06,2.53-.42.17.07.34.15.5.22,0-.18.05-.4-.02-.55-.37-.68-.78-1.33-1.14-2.01-.03-.07.18-.36.32-.4.17-.04.38.09.57.14-.35,1.1.67.77,1.01.78.51.02.72-.33.52-.99-.14-.44.2-1.03.33-1.56.44.3.86.67,1.34.9,1.07.51,1.58.26,1.85-.84.07-.28.09-.58.18-.85.24-.69.04-1.5.86-2.03.93-.59,1.6,1.01,2.46.15.81.78,1.73,1,2.83.7.22-.06.63.27.83.51.42.53.76,1.12,1.62,2.7.5.97.67.78.63.72-.35-.59-.74-1.16-1.13-1.72,0,0-.21.09-.23.16-.25,1.26-.81,1.07-.8.03,0-1.27-.34-1.07-1.31-.96-.98.12-2.22.68-3-.8-.4-.77-1.3.11-1.37.36-.43,1.49-.69,3.03-.94,4.57-.01.08.6.41.84.35.32-.09.65-.41.83-.72.33-.55.51-1.18.85-1.73.11-.18.5-.23.76-.24.12,0,.31.24.35.41.15.52.19,1.08.38,1.58.06.17.47.36.66.31,1.31-.35,2.07-2.38,3.45-2.33.05-1.06-.5-2.2.57-1.92.97.26,1.99.9,3.1.33.12-.06.54.2.63.4.08.17-.06.61-.22.68-.77.32-.96.98-.93,1.67.01.31,1.86-.24,2.25-.76.05-.07.02-.26.07-.27.31-.11.64-.19.96-.28,0,.33.08.68-.02.97-.33,1.01-.35,1.06.62,1.01,1.03-.05,1.99-.2,1.69,1.4-.05.29.56.7.86,1.06.41-.35.92-.63,1.19-1.07.25-.39.23-.94.33-1.43.22-1.06.73-2.16.58-3.17-.19-1.24.67-2.05.75-3.14.08-1.07.33-2.14.64-3.17.38-1.27.57-2.58,1.05-3.85.44-1.19.08-2.66.91-3.98.68-1.09.27-2.68,1.27-3.75-.45-1.55,1.05-2.59,1.07-4,.02-1.54,1.05-2.68,1.49-4.05.45-1.38,1.29-2.62,1.93-3.94.16-.34.19-.75.34-1.09.47-1,1.34-1.97,1.37-2.97.04-1.45,1.46-1.94,1.66-3.24.16-1.06,1.54-1.67,1.45-2.94,1.52-.45.95-2.34,2.24-3.14.91-.56,1.29-1.93,1.97-2.9.26-.37.7-.62,1.03-.95.59-.57,2.02-.63,1.29-2.05-.03-.07.18-.33.32-.41.69-.36,1.66-.5,2.02-1.05.52-.78,1.08-.77,1.84-.98,1.08-.29,2.01-1.16,3-1.79,1.04-.65,2.04-1.27,3.32-1.53,2.24-.47,4.33-1.38,5.55-3.56.1-.17.53-.28.76-.23,1.48.34,2.72-.31,4.02-.8.42-.16.89-.2,1.34-.23.29-.02.75.25.84.14,1.45-1.67,3.87-.79,5.47-2.09.32-.26.86-.29,1.31-.32,1.19-.07,2.42-.25,3.58-.08,1.15.17,2.16-1.05,3.31-.22.55-1.26,1.49-.51,2.24-.37,2.15.41,4.32.38,6.49.52,1.9.12,3.76.66,5.7.76,1.31.07,2.68.18,3.97.57.15.04.46-.18.51-.12,1.39,1.74,3.52.78,5.23,1.43,1.49.56,3.08.8,4.29,1.97.17.16.47.29.7.28.72-.06,1.47-.1,2.16-.31.79-.24,1.09,1.43,1.98.44.24.24.56.45.7.74.35.76.59.87.76.32.3-.97.51-.84.94-.14,1.7-.6,2.83,1.53,4.53.94.08-.03.28.05.28.05-.43,2.53,3.5,2.67,2.96,5.34-.06.3,1.28.81,1.26,1.19-.03.86.13,1.17.97,1.43.33.1.68.96.61,1.42-.17,1.16-.59,2.3.49,3.25-.76,1.64,1.12,2.98.53,4.63-.15.44,1.34,2.69,1.87,3.34.28.35.52.84.53,1.27.01.55.05.65.58.42.68-.29,1.27-.15,1.79.45.1.11.62-.13.94-.21-.17-.29-.29-.78-.51-.84-.5-.12-.42-.32-.5-.73-.14-.66.17-1.67-.95-1.89-.03,0,.07-.6.11-.91.25.04.59-.02.73.12.52.53.67,1.34,1.64,1.54.29.06.3,1.16.57,1.72.29.62.74,1.16.98,1.8-.69.58-1.57.68-.94,1.45.12.15.65.11.91,0,.39-.18.93-.43.48-1.02-.14-.18-.42-.26-.44-.42.31-.17.47-.38.63-.37,1.51.06,2.31-.6,2.38-2.15.01-.31.24-.62.37-.93.25.28.55.53.73.85.28.48.59.99.69,1.53.12.68.08.75.33.54.65-.57,1.32-.68,2.16-.43.51.15,1.11.09,1.66.05.94-.08.91.49.73,1.09-.1.34-.31.7-.57.92-.39.32-.72.48-.42,1.14.38.85.96,1.73.09,2.76-.24.28.58,1.37.35,1.77-.8,1.38-.06,2.58.11,3.86.25,1.81.52,3.62.55,5.44.01.8.47,1.22.99,2.5.15.21.13-.02.05-.23-.06-.17-.19-.31-.3-.46-.09.22-.29.47-.24.66.06.21.34.36.48.03.89-1.51,1.69-1.12,2.35-.03.06.1.5.03.73-.05.07-.03.12-.46.03-.54-2.78-2.44-2.74-2.88-2.9-5.85-.12-2.09-.74-4.12-.64-6.24.03-.65.24-1.01.71-.84,1.08.38,1.64-1.33,2.54-.64.66.51,1.02,1.41,1.48,2.16.43.7,1.45,1.01,1.34,2.04-.03.24-.16.56-.34.66-.17.09-.59,0-.69-.15-.42-.63-1.11-1.34-1.07-1.97.07-1.11-.75-.55-1.08-.83-.21.26-.67.64-.61.75.65,1.14,1.62,2.13,1.63,3.57,0,.04.46.12.71.11.45-.03.9-.11,1.35-.17-.02.25.04.55-.08.74-.24.37-.86.7-.83,1.01.05.71.35,1.42.65,2.08.05.11.77.11.91-.06.22-.27.26-.73.29-1.11.07-.93.51-1.6,1.28-2.1.21-.14-.09-.85.58-.59.32.12.64,1.38.37,1.44-1.39.37-.69,1.47-.63,2.12.06.74.13,1.15-.59,1.59-.84.51.03.98.24,1.42.41.89.76.85,1.09-.09.05-.14.69-.03,1.05-.11.62-.14,1.46-.14,1.79-.55.35-.44-.21-1.38.54-1.87-.22-.25-.58-.76-.65-.73-1.48.76-1.51-.49-1.46-1.21.07-1.01.3-1.89-.95-2.36-.12-.04.07-.88.11-1.35.31.06.79.02.91.21.59.95,1.38,1.74,1.43,3.05.04.91.86.25,1.32-.01ZM13.81,158c-.14-.04-.28-.09-.42-.13-.03.12-.05.24-.08.36.15.01.3.04.44.02.02,0,.04-.16-.81-.1l.22-.14c-.13-.1-.25-.22-.4-.28-.04-.02-.16.18-.25.28.14.05.28.1,1.28-.01ZM213.47,11.95c-.14-.04-.28-.09-.42-.13-.03.12-.05.24-.08.36.15.01.3.04.44.02.02,0,.04-.16-.81-.1l.22-.14c-.13-.1-.25-.22-.4-.28-.04-.02-.16.18-.25.28.14.05.28.1,1.28-.01ZM53.82,105.84c-.06.27-.11.55-.17.82-.14.51-.51,1.11-.36,1.52.5,1.38-.43,1.84-1.52,2.55l.22-.14c-.13-.1-.25-.22-.4-.28-.04-.02-.16.18-.25.28.14.05.28.1.64,0,.09.81,1.39.64,1.3,1.82-.04.51,1.13,1.09,1.7,1.69.16.17.24.59.13.76-.12.18-.49.25-.75.26-.56.02-1.54-.19-1.61-.01-.44,1.14-1.43.77-2.2.94-1.01.22-1.52,1.58-1.18,2.48.53,1.4,2.22.61,2.83,1.71.57-.46,1.15-.91,1.71-1.38.35-.3.76-.59.97-.98.56-1.05,2.53-1.61,1.23-3.36-.04-.05.16-.31.29-.44.67-.7.2-.96-.44-1.17-.45-.15-.97-.21-1.31-.49-.37-.29-.76-.79-.77-1.21,0-.32.49-.78.86-.98.89-.47.72-.95.22-1.6-.48-.62-.88-1.31-1.31-1.96.06-.27.11-.55-.22-1.2.24.09.43.16.62.23.01-.17.1-.4.02-.5-.15-.2-.39-.33-.59-.48-.02.22-.03.45.33,1.13ZM243.22,53.76c.21.32.4.65.64.94.1.12.32.14.49.21-.03-.21-.05-.42-.08-.63-.05-.44,0-.93-.19-1.29-.18-.34-.63-.55-.97-.8-.03-.02-.16.09-.23.15-.56.49,0,.81.18,1.19.04.09.1.16,2.16,1.22-.14-.04-.28-.09-.42-.13-.03.12-.05.24-.08.36.15.01.3.04.44.02.02,0,.04-.16-1.95-1.24ZM72.44,71.53c.1-.05.21-.11.21-.11-.35-.67-.71-1.34-1.07-2.01-.1.15-.29.3-.29.45,0,.45-.03.97.17,1.33.13.23.66.24-.24-2.01.33.04.52.12.6.06.63-.54.73-2.03.14-2.44-.17-.12-.73,0-.73.03-.03.78-.02,1.55,1.21,4.7ZM11.21,128.32c-.57-1.35-1.14-.84-1.66-.45-.16.12-.35.4-.3.53.2.62,1.37.96,1.86.52.18-.16.11-.59-2.26-.32.04-.4.12-.57.06-.65-.15-.21-.35-.38-.54-.56-.09.1-.27.26-.26.29.18.26.39.5,3.1.65ZM173.01,64.95c.04-.14.09-.28.13-.42-.12-.03-.24-.05-.37-.08-.01.15-.04.3-.02.44,0,.02.16.04.15-.87-.06-.02.19.17.33.1.23-.11.56-.41.53-.57-.11-.71-.33-1.41-.54-2.09-.05-.15-.24-.28-.4-.36-.04-.02-.27.17-.28.28-.1.82-.72,1.68.46,3.58ZM78.5,91.72c.31.47.48.7.62.95.37.62.74.27,1.15.03.51-.29.7-.65.26-1.09-.31-.3-.69-.6-1.09-.72-.3-.09-.74.04-1,.23-.12.09.05.56.53-2.37-1.39.51-1.73,1.26-1.79,2.18-.02.28-.43.78.26.77.25,0,.59-.24.71-.47.31-.6.51-1.26.77-1.89.09-.23.24-.43.36-.64-.26.04-.53.09-.79,3.02ZM248.26,53.88c.06.07.28.38.54.66.02.02.23-.12.35-.19-.84-1.1-.56-1.87.7-2.35-.05-.08-.09-.21-.16-.24-.57-.23-1.15-.43-1.72-.64-.12.59-.29,1.19-.32,1.79-.01.24.29.49,2.34-.62.52.55.62,1.43,1.38.8.15-.12.11-.64,0-.91-.18-.39-.43-.93-1.02-.48-.18.14-.26.42-2.07,2.18ZM230.91,55.55c.21-.02.55.06.69-.07,1.07-.96,2.08-.95,3.14.01.33.3.78.46,1.18.68.11-.47.3-.94.3-1.4,0-.44-.1-.93-.32-1.31-.48-.85-1.15-1.61-1.57-2.49-.27-.55-.48-1.34-.28-1.84.3-.72.99-1.29,1.56-1.88.06-.06.44.19.67.31.16.08.32.18.48.26.03-.16.14-.41.07-.48-.4-.37-.81-.95-1.27-1-1.27-.16-1.52-.82-1.03-1.79.65-1.28.46-2.68.79-4,.06-.22.06-.63-.05-.69-1.33-.71-2.16-2.08-3.39-2.76-1.06-.59-1.95-.73-1.94-2.28,0-.95-1.4-1.55-2.09-1.5-1.16.09-.17,1.23-.31,1.9-.3,1.38-.13,1.39,1.8,2.13.31.12.63.5.72.82.07.24-.17.63-.36.87-.17.22-.46.38-.73.49-1.01.42-1.08,1-.35,1.76.65.68.29,1.02-.32,1.58-.8.73-.7,1.36.24,1.93.8.49.96,1.01.85,1.89-.18,1.46-.7,2.58-2.13,3.19-.53.23-.99.64-1.49.95-.65.41-.31.85.02,1.18.38.38.9.62,1.31.97.41.35.77.77,1.15,1.16.24-.49.48-.99.73-1.47.13-.24.27-.48.45-.67.04-.04.41.12.46.26.14.32.14.97.28.99,1.46.23,1.16.88.49,1.69-.06.07.12.33.23.62ZM74.07,159.44c1.25,1.43,2.6,2.78,3.72,4.3.81,1.1,1.7,1.9,2.96,2.49,1.56.73,3.23,1.36,4.5,2.6,1.46,1.42,3.21,2.51,4.42,4.21,1.21,1.71,2.6,3.29,3.93,4.91.16.2.45.31.71.4,1.25.44,1.97,1.41,2.61,2.49.35.59.65,1.31,1.17,1.67,1.33.89,2.36,2.06,3.5,3.13,1.28,1.21,2.26,2.57,3.24,3.97.12.18.42.24.63.35.04-.19.15-.4.11-.58-.49-2.32.48-4.84-1.21-7.02-.62-.81-.51-2.14-.99-3.11-1.03-2.09-2.38-4.04-2.57-6.47-1.1-1.14-1.56-2.64-1.92-4.08-.41-1.64-1.77-2.85-2.06-4.33-.27-1.36-1.52-2.19-1.52-3.3,0-1.51-1.1-2.21-1.59-3.32-.16-.35-.61-.67-.6-.99.06-1.7-.91-2.99-1.47-4.47-.59-1.55-1.36-2.92-2.22-4.28-.15-.24-.34-.51-.35-.76-.05-2.34-1.41-4.08-2.63-5.89-.6-.9-1.21-1.8-1.79-2.72-.3-.47,0-1.02.54-.96,3.81.42,7.64.2,11.45.19,3.03,0,6.15.15,9.08-.49,3.85-.84,7.84-.67,11.61-1.86,3.8.41,7.53-.85,11.33-.44.6.06,1.26-.22,1.84-.48.24-.11.54-.69.45-.83-.91-1.43-1.63-3.02-3.48-3.62-3.71-1.2-7.05-3.23-10.57-4.86-.9-.41-1.95-1.25-2.71-1.05-1.3.35-1.87-.9-2.9-.82-.18.01-.37.14-.53.11-.82-.15-1.64-.31-2.44-.53-.91-.25-1.8-.59-2.71-.87-.8-.25-1.79-.88-2.36-.62-1.16.54-1.68-.55-2.58-.58-2.89-.1-5.77-.48-8.68-.24-1.03.09-1.19-.38-.75-1.32.57-1.2,1.39-2.11,2.33-3.06,1.25-1.26,2.05-3,2.87-4.62.87-1.74,1.67-3.53,2.27-5.38.96-2.98,2.63-5.74,2.74-8.98,2.35-4.28,2.98-9.22,5.27-13.56,1.28-2.43,3.17-4.57,3.78-7.36.06-.28.71-.4.87-.71.19-.36.15-.85.2-1.28-.46,0-.98-.15-1.38.01-.63.24-1.13.83-1.76,1-.51.14-1.13-.14-1.7-.17-.62-.04-.12.93-1.02,1.02-.96.1-1.82,1.02-2.78,1.43-.94.4-1.98.47-2.84,1.16-2.17,1.74-4.61,3.06-6.71,4.98-2.14,1.96-4.39,3.84-6.5,5.86-.53.5-.93,1.14-1.46,1.64-.55.51-1.46.68-1.44,1.67-2.15,0-3.31,1.17-3.75,3.18-1.7.78-1.68,2.6-2.44,3.96-.82,1.47-1.27,3.11-2.03,4.57-.67,1.29-1.14,2.58-1.42,3.97-.26,1.29-1.74,2.18-1.22,3.76.06.17-.25.67-.38.66-.3-.01-.72-.15-.88-.38-1.77-2.61-3.55-5.21-5.21-7.89-1.68-2.72-4.3-4.7-5.78-7.59-.45-.88-.79-2.08-2.11-2.2-.97-1.62-2.09-3.06-2.41-5.1-.56-3.61-.34-7.21-.16-10.78.13-2.71-.52-5.44.18-8.13.03-.1-.22-.3-.37-.39-.05-.03-.31.12-.32.22-.14.95-.19,1.91-.38,2.84-.2.98-.85,1.96-.76,2.89.33,3.2-.96,6.31-.33,9.51.03.18-.3.44-.48.64-.23.25-.07,1.6-.87.39-1.31-1.99-3.47-3.11-4.91-4.94-1.72-.33-2.36-1.8-3.21-3.05-.16-.24-.31-.51-.53-.69-.1-.08-.38-.03-.52.05-.15.08-.37.33-.34.4,1.02,2.09,1.37,4.55,3.47,6.05,1.05.75,2.35,1.4,2.74,2.69.22.72,1.43.18,1.17,1.28-.1.42.45,1.01.75,1.5.36.59.76,1.15,1.13,1.73.1.16.26.33.27.5.03,3.1,2,5.67,2.4,8.72.17,1.27-.43,2.93.96,3.99.07.05-.05.37-.11.56-.17.58-.22,1.12.25,1.62.84.89.85,2.03.91,3.16.05,1.01.38,2.06.17,3-.29,1.38,1.27,1.87,1.17,3.15-.05.61,1.39.65.97,1.89-.18.54,1.09,1.29.67,2.32-.59,1.47-1.68.2-2.53.42-2.23.58-4.57.59-6.88.36-.57-.05-1.27-.47-1.65-.25-1.04.59-2.03.8-3.23.73-.98-.06-2.12.03-2.93.5-1.14.66-2.28.73-3.49.8-2.56.14-5.17-.2-7.64.77-.16.06-.37.02-.55,0-1.67-.22-3.14.29-4.5,1.21-.65.44-1.32.87-1.97,1.3-.58.38-1.36.63-1.68,1.17-.42.7-.93.83-1.6,1.04-.72.23-1.33.82-1.99,1.25-.58.38-1.15.76-1.73,1.14l-1.73,1.14c-.66.43-1.37.81-1.96,1.32-.48.41-.8,1.38-1.22,1.39-.8.02-.92.56-1.34.93-1.16,1.06-2.57,1.03-4.03.73-.2-.04-.59.2-.65.39-.07.21.13.74.22.74.84.02,1.02.91,1.54,1.14.63.28,1.48-.03,2.2.11,4.27.84,8.55.26,12.82.05,1.09-.05,2.32-.04,3.2-.55,1.09-.63,2.39.61,3.25-.62,1.31.71,2.56-.21,3.88-.18,2.46.06,4.97-.12,7.38-.6,1.73-.34,3.45-.41,5.18-.55,1.38-.12,2.97.28,4.08-.28,1.05-.53,1.87.06,2.78-.22.95-.29,1.96.19,3.01-.39.71-.39,1.73.56,2.8.15.64-.24,1.05.73.7,1.58-.39.94-.81,1.87-1.19,2.82-.35.87-.66,1.76-.97,2.64-.35.97-.41,2.35-1.1,2.83-1.01.7-.86,1.7-1.17,2.48-1.98,5.03-4.09,10.04-5,15.42-.07.39-.11.79-.24,1.15-1.57,4.37-2.46,8.95-2.66,12.97-.07,1.47.05,2.91.31,4.38.32,1.87,1.12,4.69,2.11,5.71.5.51,1.6.61,2.06,0,1.2-1.6,2.44-3.2,3.38-4.95,1.21-2.26,1.8-4.85,3.58-6.81-.26-1.27,1.14-1.7,1.39-2.68.66-2.65,2.23-4.89,3.4-7.28,1.85-3.79,4.16-7.35,5.58-11.36.03-.09.03-.22.1-.26.32-.22.66-.58.99-.57.28,0,.65.4.79.71.21.49.17,1.48.39,1.52,1.55.33,1.56,1.92,2.32,2.87ZM113.48,138.79c-.14.2-.61.75-.97,1.37-.14.24-.04.91-.02.91,1.06.06,1.43,1.83,2.81,1.14.21-.11.72.18.99.4.83.72,1.26-.05,1.57-.5.39-.57.21-.99-.58-1.39-.6-.3-.8-1.41-1.75-.47-.24.23-.65.46-.63-.27.01-.35-.24-.73-.17-1.05.24-1.2-.29-.78-1.24-.15ZM49.16,138.66c-1.12.56-1.55.9-.85,1.92.4.57.12,1.59.21,2.4.06.53.23,1.06.4,1.57.04.12.37.27.46.22.23-.13.56-.37.55-.56-.04-1.51-.64-3.06.48-4.47.11-.14-.16-.79-.41-.96-.29-.19-.76-.11-.85-.12ZM234.65,38.32c1.31-.68.37-2.09,1.3-2.83-.38-.67-.68-1.4-1.17-1.97-.27-.3-.93-.52-1.3-.4-.32.1-.53.71-.67,1.13-.07.22.06.55.19.78.58.97,1.44,1.8,1.33,3.08,0,.1.34.24.31.22ZM198.9,42.66c-.29-.57-.41-.93-.63-1.21-.65-.81-2.23-.26-2.51-1.66,0-.04-.24-.09-.27-.05-.09.12-.21.37-.18.4.92.85.37,1.81.25,2.74-.13.96.43,1.96,1.32,2.22.37.1.83-.16,1.26-.26-.14-.34-.23-.73-.45-1.01-.15-.2-.53-.21-.71-.39-.22-.24-.35-.57-.51-.87.34-.1.68-.28,1.01-.27.37,0,.75.18,1.41.36ZM114.78,155.68c.14-.21.44-.45.42-.65-.14-1.16-.35-2.32-.55-3.47-.04-.21-.08-.47-.22-.59-.71-.56-1.44-1.08-2.18-1.61-.15-.1-.33-.16-.49-.24,0,.18-.06.37,0,.53.67,2.02,2.12,3.71,2.54,5.85.01.08.28.11.5.18ZM18.58,101.14c-.5.68-.96,1.25-1.35,1.86-.49.78-.29,1.92.19,2.23.73.46,1.28-.26,1.55-1.12.18-.58.83-1,1.04-1.58.12-.33-.14-.89-.38-1.23-.13-.18-.61-.11-1.05-.16ZM119.41,149.22c.1-.48.17-.67.17-.86,0-1.38-.85-2.31-1.82-3.07-.6-.48-1.43-.16-1.78.42-.16.27.29,1.32.55,1.35,1.11.14,1.11,1.3,1.84,1.72.32.18.69.3,1.04.44ZM247.2,47.99c-.16-.25-.38-.47-.48-.74-.32-.88-1.04-1.09-1.85-1.18.12.72.21,1.44.37,2.15.06.27.31.5.47.74.48.71.82,1.65,1.94,1.5.55-.08.34-1.25-.45-2.48ZM105.14,146.38c.33-.22.68-.4.98-.66.2-.17.32-.43.48-.66-.3-.2-.58-.52-.91-.59-.94-.2-2.07.54-2.86-.59-.04-.06-.61.1-.71.28-.1.18.02.69.15.75.77.28,1.51.5,1.07,1.6-.02.06.55.51.8.47.35-.05.66-.39.99-.6ZM202.32,45c.95-.76.74-3.47-.31-4.31-.27-.22-.96-.38-1.07-.24-.25.31-.5.96-.34,1.2.6.93,1.14,1.79.59,2.92.39.15.78.29,1.13.42ZM230.69,84.09c-.31-.06-.5-.14-.69-.13-.22,0-.55,0-.63.13-.48.75-.97,1.51-1.34,2.32-.45.99.08,1.7,1.15,1.63.17-.01.47-.07.49-.16.36-1.25.68-2.52,1.01-3.78ZM98.85,141.91c.84,1.38,2.28,1.14,3.57,1.3.11.01.37-.26.35-.38-.03-.26-.12-.62-.31-.72-1.05-.55-2.13-1.04-3.22-1.52-.13-.06-.43.02-.5.13-.13.2-.2.47-.19.71,0,.17.2.33.3.49ZM138.96,189.11c.04-.28.18-.74.11-1.16-.03-.15-.61-.38-.85-.3-.86.29-1.4,1.4-2.59.99-.09-.03-.42.54-.59.85-.52.95.58.65.84,1.01.13.18.59.17.9.16.08,0,.27-.36.22-.45-.32-.58-.62-1.04.49-.82.41.08.88-.15,1.46-.26ZM237.46,82.12c-.05-.24,0-.71-.19-.82-1.25-.81-3.32,0-3.78,1.44-.05.14.05.38.16.51.11.13.35.29.47.25,1.04-.4,2.06-.84,3.34-1.38ZM42.27,80.2c.22-.21.48-.39.46-.45-.51-1.37-.6-2.93-1.71-4.04-.09-.09-.41-.09-.52,0-.19.16-.47.58-.43.62.92,1.01,1.1,2.34,1.61,3.53.07.18.41.24.6.34ZM224.88,32.41s-.33-.17-.61-.31c-.08.38-.17.76-.22,1.15-.01.07.1.16.15.24.39.68,1.3,1.31.2,2.12.19.13.36.32.57.36.2.04.62-.02.64-.11.25-1.13.18-2.22-.72-3.45ZM186.57,7.99c.27-.18.43-.24.42-.28-.09-.7-.18-1.4-.33-2.09-.02-.07-.55-.15-.69-.04-.34.27-.65.62-.84,1.01-.09.18.08.61.26.75.38.29.85.47,1.18.64ZM265.94,70.41c-.05-.2-.04-.61-.18-.67-.6-.24-1.23-.42-1.87-.54-.23-.04-.61.08-.72.26-.1.16,0,.53.11.74.37.68,1.96.83,2.66.21ZM179.04,6.9c.82,1.22.89,1.22,1.67.71.54-.35.55-.69.18-1.15-.56-.69-1.54-1.01-1.9-.51-.18.25.04.8.06.95ZM244,143.48c-.18-.8-.3-1.62-.59-2.38-.09-.24-.64-.32-1-.43-.11-.03-.36.05-.39.13-.29.98.48,2.34,1.48,2.63.16.05.35.03.5.04ZM74.59,75.92c.6-.43.77-2.25.22-2.61-.16-.1-.83.18-.86.35-.1.61.07,1.26-.02,1.87-.16,1.04.35.5.66.39ZM93.35,143.52c-.24.16-.55.27-.71.49-.18.25-.21.59-.31.89.32.03.69.17.94.05.52-.24,1.02-.58,1.46-.96.13-.11.15-.54.04-.71-.11-.16-.47-.28-.68-.23-.27.06-.49.3-.74.46ZM78.57,67.64c.18-.12.3-.15.34-.23.29-.49-.1-2.39-.59-2.77-.12-.09-.41-.1-.52-.01-.2.16-.47.59-.45.61.64.57.48,1.36.64,2.06.04.16.4.24.57.33ZM253.39,132.99c.14-.99.35-1.6.23-2.14-.05-.24-1-.59-1.16-.45-.49.42-.57,1.08-.09,1.65.2.24.47.43,1.02.93ZM256.16,140.5c-.06-.67,0-1.09-.15-1.41-.1-.22-.51-.46-.75-.43-.43.05-.86.24-1.23.47-.13.08-.14.64-.07.67.54.22,1.11.37,2.2.7ZM265.2,65.97c-.32.21-.4.26-.48.32-.34.27-.96.42-.51,1.05.21.29.49.53.74.79.26-.33.54-.64.77-.98.1-.15.09-.37.12-.56.05-.27.08-.54.12-.81-.35.09-.69.17-.78.19ZM111.64,139.35c.18-.2.35-.4.53-.61-.27,0-.55.02-.82.03-.62.03-1.25.04-1.87.09-.12,0-.34.13-.34.18.01.17.06.41.18.49.81.55,1.57.46,2.32-.18ZM234.03,144.87c1.01.12,1.6.19,2.19.26.02-.31.14-.67.04-.94-.24-.6-.65-.97-1.28-.37-.23.22-.44.47-.96,1.04ZM111.37,153.53c1.2-.51.96-1.03.51-1.48-.2-.2-.68-.39-.86-.28-.49.28-.65,1.43-.25,1.72.22.16.64.04.6.04ZM12.36,123.59c-.15-.04-.35-.16-.44-.11-.65.4-1.29.82-1.92,1.26-.05.04.02.4.06.41.45.04,1.07.23,1.32.01.44-.39.66-1.03.98-1.57ZM226.7,90.43c.49.05.87.2,1.1.08.69-.37.2-.83-.08-1.14-.18-.2-.58-.22-.88-.32-.04.39-.08.78-.14,1.38ZM15.89,173.37c.21-.36.35-.59.48-.81-.27-.06-.58-.24-.81-.17-.5.15-.95.43-1.43.65.07.12.13.33.2.34.52.02,1.05,0,1.56,0ZM13.73,162.59c.16-.11.36-.18.47-.32.18-.23.3-.5.45-.75-.09-.02-.19-.05-.28-.06-.39-.04-.86-.44-.98.42-.05.34-.65.6-.98.91-.06.05-.08.25-.06.26.13.08.32.2.42.16.34-.17.65-.41.97-.62ZM92.58,142.95c.18-.58.3-.95.42-1.33-.32-.03-.68-.17-.93-.05-.38.17-1.01.41-.52,1.02.16.2.57.21,1.04.36ZM54.05,202.4c-.45.05-.86,0-.9.11-.19.44-.26.93-.38,1.41.36.07.73.14,1.09.2.06-.52.12-1.05.19-1.72ZM72.29,207.94c-.19-.04-.39-.14-.56-.1-.52.11-1.03.25-1.53.43-.12.04-.15.31-.22.48.19.04.39.14.56.1.52-.11,1.03-.25,1.53-.43.12-.04.15-.31.22-.48ZM99.92,207.29c.72.07,1.18.2,1.61.13.14-.02.2-.55.29-.85-.31-.03-.66-.17-.92-.07-.31.11-.55.43-.99.79ZM215.09,11.35c.38.28.59.44.8.6.07-.49.16-.99.17-1.48,0-.06-.44-.13-.67-.2-.1.36-.2.72-.3,1.07ZM185.79,11.24c.52.03.87.15,1.11.04.31-.14.54-.47.8-.72-.49-.08-.98-.19-1.46-.19-.11,0-.21.4-.45.88ZM56.71,119.27c.52.04.89.07,1.26.1.02-.25.13-.65.03-.71-.39-.23-.83-.35-1.26-.51,0,.3-.02.59-.03,1.11ZM56.75,141.96c-.52.05-.93.01-.97.11-.18.45-.24.94-.35,1.41.33-.15.73-.23.97-.47.19-.19.2-.56.35-1.05ZM83.62,78.02c.22.33.3.52.44.65.19.18.42.32.64.48-.04-.25-.07-.5-.12-.75-.09-.44-.16-.88-.31-1.29-.03-.09-.41-.13-.59-.07-.13.04-.31.29-.29.41.04.26.2.51.23.57ZM77.2,176.17c-.52-.03-.86-.13-1.12-.04-.14.05-.17.43-.25.67.3.09.6.26.9.24.12,0,.23-.4.47-.87ZM11.75,156.12c.16-.11.35-.19.48-.32.18-.19.31-.43.47-.65-.26.05-.55.06-.78.17-.34.17-.67.39-.97.64-.13.1-.16.32-.23.49.18,0,.38.04.54-.02.18-.06.33-.2.49-.31ZM30.55,91.79c-.09-.53-.06-.87-.21-1.11-.08-.13-.65-.13-.68-.06-.11.28-.16.63-.1.92.02.11.44.12.99.26ZM115.65,204.41c-.53.09-.87.06-1.11.21-.13.08-.13.65-.06.68.28.11.63.16.92.1.11-.02.12-.44.25-.99ZM111.1,143.55c.09-.56.24-.94.16-1.01-.24-.18-.58-.26-.88-.27-.07,0-.29.52-.21.65.15.23.48.35.93.63ZM247.93,127.3c-.29-.2-.57-.41-.86-.61-.08.36-.34.91-.2,1.05.27.26.77.28,1.17.4-.03-.26-.07-.52-.11-.85ZM175.05,17.53c.56.1.94.24,1.01.16.18-.24.26-.58.27-.88,0-.07-.52-.29-.65-.21-.23.15-.35.48-.63.93ZM77.18,183.71c.56.1.94.24,1.01.16.18-.24.26-.58.27-.88,0-.07-.52-.29-.65-.21-.23.15-.35.48-.63.93ZM98.19,144.7c.53-.04.94.02.99-.09.13-.26.1-.61.13-.92-.25-.02-.61-.15-.71-.04-.19.21-.23.55-.41,1.05ZM74.59,170.47c-.39-.04-.89-.1-1.38-.15.03.17.02.46.11.49.46.17.94.27,1.42.4-.03-.17-.07-.34-.14-.74ZM89.56,77.99c.05-.1.18-.34.15-.36-.26-.18-.54-.41-.84-.45-.11-.02-.3.39-.45.61.37.07.74.14,1.13.21ZM33.29,191.54c-.36-.16-.52-.24-.68-.31-.04.42-.08.84-.12,1.25.17-.04.43-.02.5-.12.15-.25.22-.56.31-.83ZM50,201.89c.81-.16,1.1-.15,1.13-.23.1-.29.1-.61.14-.91-.19,0-.46-.07-.54.03-.24.26-.39.59-.72,1.12ZM225.19,37.44c.52.47.79.71,1.06.96.01-.22.11-.49.02-.64-.19-.3-.49-.53-.74-.79-.14.19-.27.38-.34.47ZM33.49,92.05c.39.08.76.16,1.13.23-.05-.26-.05-.7-.16-.73-.29-.08-.64.01-.95.07-.03,0-.01.28-.01.43ZM108.64,150.84c.28-.77.39-.95.41-1.15.03-.23,0-.47-.01-.7-.25.09-.68.16-.71.29-.05.3.1.63.31,1.56ZM227.37,85.53c-.21,0-.5-.06-.55.02-.15.26-.24.57-.28.88,0,.04.37.14.58.21.08-.37.17-.73.25-1.11ZM233.43,143.58c.27-.41.37-.55.47-.7-.21-.02-.44-.09-.63-.03-.13.04-.2.27-.3.42.19.13.38.25.46.31ZM116.86,152.18c.11-.19.24-.42.37-.65-.18,0-.42-.07-.52.02-.2.16-.31.42-.46.63.18,0,.36,0,.62,0ZM66.36,76.75c.41.27.55.37.7.47.02-.21.09-.44.03-.63-.04-.13-.27-.2-.42-.3-.13.19-.25.38-.31.46ZM16.94,175.32c.11-.23.26-.43.22-.49-.16-.21-.38-.37-.58-.55-.07.13-.23.32-.19.39.13.22.33.41.55.65ZM81.52,70.32c-.1.02-.32.06-.55.1.03.17,0,.41.11.5.15.13.39.16.59.23-.03-.17-.07-.35-.16-.83ZM87.67,82.86c.11-.23.26-.43.22-.49-.16-.21-.38-.37-.58-.55-.07.13-.23.32-.19.39.13.22.33.41.55.65ZM244.55,43.12c.41.27.55.37.7.47.02-.21.09-.44.03-.63-.04-.13-.27-.2-.42-.3-.13.19-.25.38-.31.46ZM202.28,37.7c-.28,0-.52-.07-.62.02-.2.16-.31.42-.46.63.18,0,.41.07.53-.01.21-.15.35-.39.56-.63ZM234.79,32.16c.11-.23.26-.43.22-.49-.16-.21-.38-.37-.58-.55-.07.13-.23.32-.19.39.13.22.33.41.55.65ZM68.61,205.67c.19.11.42.24.65.37,0-.18.07-.42-.02-.52-.16-.2-.42-.31-.64-.46,0,.18,0,.36,0,.62ZM145.66,185.21c.41.27.55.37.7.47.02-.21.09-.44.03-.63-.04-.13-.27-.2-.42-.3-.13.19-.25.38-.31.46ZM144.34,187.5c.41.27.55.37.7.47.02-.21.09-.44.03-.63-.04-.13-.27-.2-.42-.3-.13.19-.25.38-.31.46ZM17.86,110.45c.24.1.41.17.57.24-.05-.26-.06-.54-.18-.77-.06-.12-.31-.15-.48-.22.03.26.06.52.08.74ZM26.09,90.67c-.23-.11-.44-.26-.49-.22-.21.16-.37.38-.55.58.13.07.32.23.39.19.22-.13.41-.33.65-.55ZM46.46,144.29c.41.27.55.37.7.47.02-.21.09-.44.03-.63-.04-.13-.27-.2-.42-.3-.13.19-.25.38-.31.46ZM49.77,145.65c-.1.02-.32.06-.55.1.03.17,0,.41.11.5.15.13.39.16.59.23-.03-.17-.07-.35-.16-.83ZM54.05,147.56c-.02-.1-.06-.32-.1-.55-.17.03-.41,0-.5.11-.13.15-.16.39-.23.59.17-.03.35-.07.83-.16ZM143.21,189.18c.02-.11.04-.2.06-.29-.15.02-.3.01-.43.06-.05.02-.04.17-.06.26.15-.01.29-.02.43-.03ZM224.98,31.31c.11.02.2.04.29.06-.02-.15-.01-.3-.06-.43-.02-.05-.17-.04-.26-.06.01.15.02.29.03.43ZM79.88,86.69c-.07.13-.13.25-.2.38.09.02.23.08.26.05.1-.1.16-.25.23-.37-.09-.02-.18-.04-.29-.06ZM175.77,62.23c-.13-.07-.26-.13-.39-.2-.02.09-.08.23-.05.26.1.1.25.16.37.23l.06-.29ZM118.82,153.56c.07-.13.13-.25.2-.38-.09-.02-.23-.08-.26-.05-.1.1-.16.25-.23.37.09.02.18.04.29.06ZM220.3,17.55c.07-.13.13-.25.2-.38-.09-.02-.23-.08-.26-.05-.1.1-.16.25-.23.37.09.02.18.04.29.06ZM36.82,143.79c.02-.11.04-.2.06-.29-.15.02-.3.01-.43.06-.05.02-.04.17-.06.26.15-.01.29-.02.43-.03ZM238.52,44.34c.11.02.2.04.29.06-.02-.15-.01-.3-.06-.43-.02-.05-.17-.04-.26-.06.01.15.02.29.03.43ZM117.33,202.85c-.02.11-.04.2-.06.29.15-.02.3-.01.43-.06.05-.02.04-.17.06-.26-.15.01-.29.02-.43.03ZM43.28,73.05c.02-.11.04-.2.06-.29-.15.02-.3.01-.43.06-.05.02-.04.17-.06.26.15-.01.29-.02.43-.03ZM89.84,142.9c.07-.13.13-.25.2-.38-.09-.02-.23-.08-.26-.05-.1.1-.16.25-.23.37.09.02.18.04.29.06ZM48.3,69.39c.13.07.26.13.39.2.02-.09.08-.23.05-.26-.1-.1-.25-.16-.37-.23-.02.09-.04.18-.06.29ZM230.1,82.56c.02-.11.04-.2.06-.29-.15.02-.3.01-.43.06-.05.02-.04.17-.06.26.15-.01.29-.02.43-.03ZM155.45,21.97c.02-.11.04-.2.06-.29-.15.02-.3.01-.43.06-.05.02-.04.17-.06.26.15-.01.29-.02.43-.03ZM117.36,157.1c-.09-.02-.23-.08-.26-.05-.1.1-.16.25-.23.37.09.02.23.08.26.05.1-.1.16-.25.23-.37ZM33.07,195.16c.02-.09.08-.23.05-.26-.1-.1-.25-.16-.37-.23-.02.09-.08.23-.05.26.1.1.25.16.37.23ZM261.76,145.08c.11.02.2.04.29.06-.02-.15-.01-.3-.06-.43-.02-.05-.17-.04-.26-.06.01.15.02.29.03.43ZM174.27,30.12l.06-.29c-.15.02-.3.01-.43.06-.05.02-.04.17-.06.26.15-.01.29-.02.43-.03Z"/>
        <path class="cls-2" d="M272.91,96.53c.31-.52.56-.81.66-1.15.26-.87.86-.56,1.41-.46.61.11.66.49.64,1.05-.04,1.19.08,2.39.08,3.59,0,.93-.04,1.88-.16,2.8-.11.88-.4,1.73-.51,2.6-.1.81-.03,1.65-.12,2.46-.02.21-.33.44-.56.57-.09.05-.43-.11-.47-.23-.31-1.05.33-2.24-.46-3.26-.06-.08,1.3.53.71-.68-.23-.47-.32-1.09-.24-1.6.21-1.31-.41-.63-.85-.4-.26.14-.49.45-.74.45-.3,0-.74-.16-.86-.39-.15-.29.07-.79-.08-1.07-.27-.49-.71-.88-1.07-1.31-.37.59-.38,1.11-.04,1.79.39.8-.53,2.19-1.51,2.67-.44.21-.84.51-1.23.81-.13.1-.27.39-.22.48.14.23.35.46.59.56.56.22,1.12.26,1.63-.21.13-.12.46-.04.69-.05-.18.21-.52.44-.5.62.07.62.31,1.22.4,1.84.04.25-.07.69-.22.75-.23.09-.63,0-.84-.16-.37-.28-.69-.64-.94-1.03-.31-.48-.56-.72-1.14-.34-.58.38-.89.69-.36,1.36.17.21.05.64.07.97-.37.02-.77.13-1.09.02-.3-.1-.66-.42-.72-.7-.08-.35.31-.88.16-1.13-.46-.77.61-2.25-1.21-2.44-.45-.05-.37-.76.17-1.11.11-.07.07-.56-.06-.73-.12-.14-.48-.18-.71-.13-.61.14-1.01,1.22-1.73.6-.84-.73-2.42-.35-2.71-1.87-.06-.33-.36-.45.27-.68,1.66-.6,3.39-1.07,4.9-2.06.37-.24.87-.45,1.29-.42.89.06.93-.55.99-1.11.07-.74.22-1.54,0-2.21-.33-1-.52-1.86.15-2.79.14-.19-.19-.68-.22-1.04-.05-.55-.09-1.11,0-1.65.02-.13.8-.29.83-.23.96,1.89,2.56,2.04,4.4,1.77.54-.08.95.54.54.96-1.1,1.13-.41,2.26-.11,3.37.06.24.64.33,1.09.54ZM273.29,98.89c.27-.26.4-.38.53-.5-.17-.13-.34-.25-.5-.39-.2-.17-.36-.45-.59-.52-.22-.07-.66,0-.74.14-.21.39-.28.86-.4,1.3.28.06.56.17.84.16.35-.02.69-.14.87-.19ZM266.84,103.39c-.34-.25-.48-.35-.62-.46-.14.4-.28.8-.41,1.19.18,0,.43.08.52-.01.21-.2.35-.48.51-.72ZM268.44,101.68c-.09-.02-.23-.08-.26-.05-.1.1-.16.25-.23.37.09.02.23.08.26.05.1-.1.16-.25.23-.37Z"/>
        <path class="cls-2" d="M264.79,84.62c.72-.69,1.36-.74,1.91.38.11.23.69.26,1.06.32.8.12,1.21.67,1.18,1.36-.05,1.07.4,1.61,1.4,1.74.9.11,1.48.58,1.35,1.48-.07.53-1.66,1.11-2.21.89-.33-.13-.58-.44-.9-.59-.7-.32-1.41-.74-2.15-.84-.96-.14-1.38-.51-1.45-1.47-.02-.26-.52-.47-.77-.73-.79-.83-.59-1.75.59-2.53ZM267.33,88.05c.01-.28.07-.59.02-.88-.02-.12-.27-.2-.41-.3-.12.4-.24.8-.35,1.21.18,0,.35-.01.75-.03Z"/>
        <path class="cls-2" d="M228.24,19.19c-.82-1.04-.74-2.16.15-3.29.27-.34.87-.43.5-1.11-.1-.18.2-.83.34-.83.42-.02.89.11,1.25.32.12.07-.32.81.33.73,1.72-.21,2.49,1.71,4.09,1.74.18,0,.54.46.49.57-.35.78.37,1.24.49,1.85.1.52.06,1.07.09,1.61-.65-.13-1.34-.16-1.67-.93-.19-.44-1.73-.44-.44-1.4.02-.02-.55-.83-.84-1.27-.76.52-1.04-.03-1.57-.51-1.01-.93-1.67-.66-2,.62-.15.56-.2,1.16-.44,1.67-.08.18-.57.17-.78.23Z"/>
        <path class="cls-2" d="M87.15,62.02c-1.11-1.04.44-1.69.38-2.56-.05-.73.4-1.02,1.15-.82,1,.28,2.12.23,2.93,1.04.15.15.31.3.46.45-.24.12-.48.33-.73.33-2.05,0-2.03,0-2.67,1.55-.12.3-.5.74-.68.71-.31-.06-.56-.45-.84-.69Z"/>
        <path class="cls-2" d="M255.85,94.74c-.69.68-1.09.28-1.48-.42-.68-1.21-.57-1.73.62-2.56.52-.36.97-.65,1.36.16.59,1.23.44,2.22-.5,2.82Z"/>
        <path class="cls-2" d="M256.01,104.29s-.34-.36-.32-.68c.04-.64.11-1.64.49-1.82.49-.23,1.3.16,1.94.38.15.05.29.53.22.74-.17.51-.45.99-.71,1.47-.63,1.15-.82,1.18-1.62-.09Z"/>
        <path class="cls-2" d="M12.9,111.42c.32.64-.93,2.54-1.66,2.46-.22-.02-.55-.32-.59-.53-.16-.89-.23-1.8-.3-2.7,0-.08.23-.28.3-.25.79.26,1.83-.02,2.25,1.03Z"/>
        <path class="cls-2" d="M4.45,140.48c.06.15.41.62.34,1-.13.71-.52,1.37-.81,2.05-.19-.11-.48-.18-.55-.34-.37-.84-.56-1.78-1.04-2.54-.49-.78-.05-.99.45-1.34.6-.41.85-.03,1.11.41.1.17.21.33.49.75Z"/>
        <path class="cls-2" d="M95.07,63.17c-1.54-.32-1.09-1.91-1.75-2.8-.04-.06.3-.57.48-.59.82-.05,1.66-.04,2.48.04.15.01.27.43.41.65-.13.06-.25.15-.38.17-.95.15-.69.79-.58,1.38-.22.38-.44.76-.66,1.14Z"/>
        <path class="cls-2" d="M13.21,103.26c.1.29.25.58.2.61-.76.54-.35,1.29-.41,1.97-.07.89-.57,1.41-1.53,1.28-.43-.06-1.06-.04-.68-.78.54-1.04,1.13-2.06,1.74-3.06.07-.11.47-.02.67-.02Z"/>
        <path class="cls-2" d="M260.19,42.86c.19.79,1.35,1.29.6,1.88-1.1.85-1.19-.58-1.51-1.08-.42-.65-1.67-1.55-.89-2.1,1.48-1.04.8,1.47,1.81,1.29Z"/>
        <path class="cls-2" d="M256.37,53.05c.34.31.09.95-.43,1.73-.3.44-.58.9-1,.55-.32-.27-.99-.72-.46-1.42.21-.28.42-.61.49-.94.09-.45.05-.92.07-1.38.31.34.62.68,1.33,1.47Z"/>
        <path class="cls-2" d="M265.6,52.27c.54.82,1.1,1.63,1.61,2.47.1.17.06.43.09.65-.22-.16-.48-.29-.66-.48-1.25-1.31-1.5-3.42-3.4-4.24-.09-.04.07-.68.12-1.05.2.06.5.06.6.2.57.8,1.1,1.63,1.64,2.45Z"/>
        <path class="cls-2" d="M260.03,52.42c0-.09-.12-.58.04-.71.23-.19.75-.26,1.01-.13.46.24.95.61,1.16,1.06.14.29-.09.89-.35,1.18-.13.14-.76-.03-1.05-.23-.29-.2-.44-.61-.8-1.17Z"/>
        <path class="cls-2" d="M9.73,166.78c-.09.19-.18.65-.45.83-.73.49-1.75.34-1.96-.25-.3-.83.56-.87.96-1.15.71-.51.87-.43,1.45.58Z"/>
        <path class="cls-2" d="M268.46,132.98s.23.51.06.79c-.31.5-1.34.19-1.9-.49-.37-.44-.38-.75.14-1.16.79-.62,1.18-.27,1.7.86Z"/>
        <path class="cls-2" d="M2.89,133.83c.32.48.59.71.61.96.04.45-.08.91-.13,1.37-.29-.2-.57-.42-.87-.6-.3-.19-.88-.35-.88-.51.01-.51.24-1.02.39-1.52.37.13.74.26.89.31Z"/>
        <path class="cls-2" d="M258.71,50.26c-.87-.95-.99-1.43-.13-1.91.58-.32.86-.17,1.12.34.4.79.27,1.87-.31,1.94-.33.04-.72-.39-.68-.37Z"/>
        <path class="cls-2" d="M221.41,12.66c-.16-.08-.44-.12-.47-.23-.24-.85-.44-1.7-.6-2.57,0-.04.55-.31.71-.23.71.36.94,2.6.36,3.03Z"/>
        <path class="cls-2" d="M268.58,61.09c-.16-.24-.4-.47-.46-.74-.04-.21.08-.56.24-.67.16-.11.59-.08.71.05.38.44.72.93.96,1.45.11.25-.03.62-.06.94-.3-.1-.65-.14-.89-.32-.22-.16-.33-.47-.49-.71Z"/>
        <path class="cls-2" d="M242.26,35.22c-.31-.08-.75-.16-.75-.21.06-.79.17-1.58.27-2.37.48.24.98.46,1.44.76.07.05-.03.46-.14.65-.22.39-.51.74-.81,1.17Z"/>
        <path class="cls-2" d="M12.33,179.42c-.69-.2-1.5-.34-1.5-.44.03-.66.24-1.31.39-1.96.44.15,1.2.22,1.26.47.14.54-.07,1.18-.15,1.93Z"/>
        <path class="cls-2" d="M264.19,55.52c-.03.12,0,.44-.15.57-.62.53-2.07-.11-2.2-.99-.03-.19.24-.56.44-.62.74-.22,1.4.14,1.92,1.04Z"/>
        <path class="cls-2" d="M30.57,196.83c-.27.12-.51.3-.59.24-.65-.45-1.29-.93-1.89-1.44-.1-.09-.04-.58.02-.6.61-.17,2.08.52,2.4,1.13.1.2.05.48.07.68Z"/>
        <path class="cls-2" d="M4.22,146.15c-.36-.1-.93-.08-1.18-.36-.52-.58-.29-1.24.22-1.76.12-.12.52-.17.62-.07.55.52.77,1.75.35,2.19Z"/>
        <path class="cls-2" d="M271.27,65.17c.19.63,1.1.99.77,1.85-.41-.5-.79-1.04-1.25-1.49-.31-.3-.87-.4-1.09-.74-.15-.23.09-.71.16-1.09.2.08.48.1.6.25.31.37.54.79.82,1.21Z"/>
        <path class="cls-2" d="M269.8,77.17c-.41.87-.67,1.4-.92,1.93-.38-.34-.76-.69-1.14-1.03.26-.29.48-.64.8-.83.23-.13.59-.04,1.26-.06Z"/>
        <path class="cls-2" d="M264,131.46c-.2-.3-.25-.39-.31-.46-.47-.58-.34-1.18.07-1.69.08-.1.74.04.77.16.15.6.2,1.23.21,1.85,0,.05-.56.11-.74.14Z"/>
        <path class="cls-2" d="M92.83,207.93c-.16.21-.27.47-.46.59-.73.46-2.01.4-2-.06.01-.39.42-1.1.64-1.1.57,0,1.14.33,1.81.57Z"/>
        <path class="cls-2" d="M271.53,78.44c-.33-.49-.59-.73-.61-.98-.02-.21.23-.48.42-.65.1-.09.42-.09.52,0,.21.19.35.46.49.72.25.45.94.97.03,1.35-.24.1-.71-.37-.84-.44Z"/>
        <path class="cls-2" d="M1.44,144.72c.09.51.21,1,.26,1.51.01.13-.17.37-.3.4-.23.05-.65.05-.69-.06-.21-.48-.35-1-.43-1.52-.02-.14.22-.45.37-.47.27-.04.55.09.79.14Z"/>
        <path class="cls-2" d="M273.58,111.57c-.58-.74-.86-1.24-.02-1.56.27-.11.59-.09.89-.13-.05.59-.1,1.17-.15,1.76-.31-.03-.61-.06-.71-.06Z"/>
        <path class="cls-2" d="M271.65,116.23c-.61.2-1.22-.39-1.24-1.18,0-.32.21-.64.32-.96.2.18.42.34.59.55.24.3.5.61.61.97.06.18-.2.46-.28.62Z"/>
        <path class="cls-2" d="M75.27,60.18c.1.46.2.88.28,1.31.05.29.07.58.1.87-.42-.16-1.2-.31-1.2-.48-.01-.57.24-1.15.43-1.71.02-.05.33,0,.38,0Z"/>
        <path class="cls-2" d="M80.31,61.63c-.59-.34-1.16-.57-1.57-.96-.13-.12.16-.68.26-1.03.44.16,1.05.2,1.27.52.22.31.04.9.03,1.47Z"/>
        <path class="cls-2" d="M237.02,19.66c-.03-.06-.19-.31-.23-.57-.02-.12.16-.33.3-.42.14-.09.47-.15.5-.1.26.45.53.92.69,1.42.07.23-.11.53-.17.81-.21-.16-.45-.3-.64-.48-.14-.13-.22-.31-.44-.65Z"/>
        <path class="cls-2" d="M4.59,157.5c-1.25-.54-1.79-.76-2.32-1.03-.02-.01.2-.64.25-.63.58.11,1.17.24,1.71.48.16.07.16.5.36,1.18Z"/>
        <path class="cls-2" d="M1.66,139.15c-.54,1.24-.76,1.79-1.03,2.31-.01.02-.64-.2-.63-.25.11-.58.24-1.17.48-1.71.07-.16.5-.16,1.19-.36Z"/>
        <path class="cls-2" d="M232.05,21.24c-.18-.03-.41-.01-.55-.11-.44-.31-.87-.63-1.23-1.02-.08-.08.11-.48.25-.66.08-.11.44-.16.49-.1.39.52.74,1.06,1.09,1.61.04.06-.03.18-.05.28Z"/>
        <path class="cls-2" d="M222.73,11.11c.68-.28,2.11,0,2.63.54.06.06.07.17.07.26,0,.1-.05.28-.05.27-.96-.18-1.91-.38-2.87-.57.02-.1.02-.2.06-.28.04-.08.11-.14.16-.22Z"/>
        <path class="cls-2" d="M226.67,16.36c-.16.68-.26,1.13-.37,1.58-.49-.24-1.06-.41-1.45-.77-.15-.14.08-.71.14-1.08.5.08,1,.16,1.67.27Z"/>
        <path class="cls-2" d="M83.45,208.75c.11.16.31.33.3.48-.02.3-.1.65-.27.88-.15.2-.47.28-.72.41-.05-.29-.11-.59-.13-.88-.02-.36-.02-.72,0-1.08,0-.2.06-.41.09-.61.14.11.3.2.42.32.13.14.22.31.32.47Z"/>
        <path class="cls-2" d="M230.38,27.4c.14-.71.22-1.15.31-1.59.58.28,1.17.55,1.73.87.1.06.08.33.12.5-.63.07-1.26.13-2.16.23Z"/>
        <path class="cls-2" d="M269.16,83.98c-.89-.37-1.27-.41-1.43-.62-.25-.32-.86-.79-.26-1.15.39-.23,1.12-.18,1.53.05.23.13.1.88.15,1.72Z"/>
        <path class="cls-2" d="M257.34,127.77c0-.05,0-.36-.01-.67.38.08.82.06,1.11.26.29.2.51.59.62.95.05.16-.21.47-.4.64-.1.09-.43.1-.51.01-.25-.28-.44-.63-.81-1.19Z"/>
        <path class="cls-2" d="M256.93,49.84c-.13.19-.29.59-.42.58-.53-.05-1.06-.2-1.57-.37-.15-.05-.22-.31-.32-.48,0,0,.15-.14.24-.15.55-.04,1.1-.09,1.64-.07.13,0,.24.27.43.49Z"/>
        <path class="cls-2" d="M271.78,124.89c-.27.53-.47.96-.72,1.36-.14.23-.37.4-.56.59-.08-.28-.22-.57-.21-.85.01-.39.03-.87.26-1.12.15-.17.67,0,1.23.02Z"/>
        <path class="cls-2" d="M269.95,129.5c-.3.58-.59,1.15-.89,1.73-.15-.1-.34-.17-.44-.31-.35-.5.05-1.65.62-1.77.14-.03.32.15.71.35Z"/>
        <path class="cls-2" d="M136.98,196.59c-.48-.26-.91-.35-.98-.56-.11-.32-.01-.74.07-1.09.02-.1.33-.23.44-.19.27.11.68.27.72.48.07.33-.11.71-.25,1.36Z"/>
        <path class="cls-2" d="M275.06,93.92c.01-.52.02-.81.03-1.11.43.16.87.28,1.26.51.1.06-.02.46-.03.71-.37-.03-.74-.06-1.26-.1Z"/>
        <path class="cls-2" d="M271.59,119.43c-.49-.22-.89-.32-.9-.42,0-.49.1-.99.17-1.48.25.26.58.48.73.79.12.24.01.59,0,1.11Z"/>
        <path class="cls-2" d="M258.19,44.87c-.44.7-.72,1.15-1.01,1.6-.22-.15-.54-.25-.64-.45-.31-.66.37-.74.71-.99.15-.11.41-.08.93-.16Z"/>
        <path class="cls-2" d="M272.1,71.73c.31-.39.44-.72.65-.79.27-.09.77-.1.9.06.22.29.24.74.34,1.12-.44-.09-.88-.18-1.89-.39Z"/>
        <path class="cls-2" d="M270.09,67.96c-.68-.22-1.16-.3-1.53-.54-.12-.07.05-.58.08-.89.3.1.67.12.87.32.24.23.33.61.58,1.11Z"/>
        <path class="cls-2" d="M267.8,131.09c-.5-.44-.87-.72-1.16-1.06-.08-.09.07-.37.11-.56.46.24.93.47,1.37.75.04.02-.13.37-.32.87Z"/>
        <path class="cls-2" d="M265.87,128.64c-.58-.33-.86-.49-1.14-.66.25-.28-.22-1.1.64-.9.27.06.61.29.69.52.09.24-.09.58-.19,1.04Z"/>
        <path class="cls-2" d="M228.1,14.04c-.58-.12-1.09-.08-1.27-.31-.15-.19.09-.69.15-1.05.25.14.56.22.73.43.18.22.24.55.39.93Z"/>
        <path class="cls-2" d="M260.35,55.08c-.25-.01-.6.01-.94-.06-.19-.04-.34-.24-.5-.38.13-.12.25-.34.39-.35.36-.02.73.03,1.08.1.09.02.17.2.21.32.02.05-.09.14-.24.36Z"/>
        <path class="cls-2" d="M240.4,21.8c-.45-.29-.78-.4-.93-.63-.08-.12.14-.65.21-.65.3.01.64.1.88.27.09.06-.06.45-.16,1.01Z"/>
        <path class="cls-2" d="M246.9,107.1c-.25.47-.35.87-.47.87-.29.01-.6-.15-.9-.24.08-.23.11-.62.25-.67.26-.09.6,0,1.12.04Z"/>
        <path class="cls-2" d="M271.38,122.4c-.48-.25-.87-.35-.87-.47-.02-.29.15-.6.24-.9.23.08.62.11.67.25.09.26,0,.6-.04,1.12Z"/>
        <path class="cls-2" d="M25.72,194c-.55-.13-.96-.15-.99-.26-.07-.29-.01-.63.1-.92.03-.07.59-.06.68.06.15.23.13.58.21,1.11Z"/>
        <path class="cls-2" d="M21.37,191.31c.01-.52.02-.81.03-1.11.48.24.96.48,1.42.74.02.01-.12.44-.19.45-.36.02-.73-.04-1.26-.08Z"/>
        <path class="cls-2" d="M17.29,185.52c-.02.26-.04.54-.07.83-.2-.18-.47-.33-.57-.56-.12-.25-.09-.57-.12-.86.21.17.42.33.76.59Z"/>
        <path class="cls-2" d="M275.09,77.57c-.07.39-.14.76-.21,1.13-.22-.15-.62-.33-.61-.45.05-.3.27-.58.45-.84.02-.02.26.11.36.15Z"/>
        <path class="cls-2" d="M37.9,202.25c.07-.09.2-.28.34-.47.25.26.55.49.74.79.09.15,0,.42-.02.64-.27-.24-.54-.49-1.06-.96Z"/>
        <path class="cls-2" d="M42.46,202.43c-.41.27-.8.55-1.23.79-.07.04-.27-.11-.38-.21-.03-.03,0-.22.07-.26.4-.28.81-.54,1.21-.81l.33.49Z"/>
        <path class="cls-2" d="M47.53,206.68c-.02.26-.04.54-.07.83-.2-.18-.47-.33-.57-.56-.12-.25-.09-.57-.12-.86.21.17.42.33.76.59Z"/>
        <path class="cls-2" d="M51.77,67c-.26-.02-.54-.04-.83-.07.18-.2.33-.47.56-.57.25-.12.57-.09.87-.12-.17.21-.33.42-.59.76Z"/>
        <path class="cls-2" d="M255.1,37.2c-.21-.24-.42-.42-.55-.65-.04-.07.12-.26.19-.39.2.18.42.34.58.55.04.06-.11.26-.22.49Z"/>
        <path class="cls-2" d="M276.19,83.21c-.21.25-.35.49-.56.63-.12.08-.35.01-.53.01.15-.22.27-.47.46-.63.11-.09.35-.02.62-.02Z"/>
        <path class="cls-2" d="M274.67,85.58c.06-.08.18-.27.31-.46.15.1.37.17.42.3.06.19-.01.42-.03.63-.15-.1-.29-.2-.7-.47Z"/>
        <path class="cls-2" d="M73.02,59.83c-.24.21-.42.42-.65.55-.07.04-.26-.12-.39-.19.18-.2.34-.42.55-.58.06-.04.26.11.49.22Z"/>
        <path class="cls-2" d="M4.4,131.61c.09.48.12.65.16.83-.2-.07-.44-.09-.59-.23-.1-.09-.08-.33-.11-.5.22-.04.45-.08.55-.1Z"/>
        <path class="cls-2" d="M275.67,89.87c.09.48.12.65.16.83-.2-.07-.44-.09-.59-.23-.1-.09-.08-.33-.11-.5.22-.04.45-.08.55-.1Z"/>
        <path class="cls-2" d="M223.48,14.24c-.02-.22-.05-.48-.08-.74.16.07.41.1.48.22.12.23.12.51.18.77-.16-.07-.33-.14-.57-.24Z"/>
        <path class="cls-2" d="M255.01,110.52c.06-.08.18-.27.31-.46.15.1.37.17.42.3.06.19-.01.42-.03.63-.15-.1-.29-.2-.7-.47Z"/>
        <path class="cls-2" d="M7.13,116.77c-.26,0-.44,0-.62,0,.15-.22.27-.47.46-.63.11-.09.35-.02.52-.02-.13.23-.26.46-.37.65Z"/>
        <path class="cls-2" d="M260.19,74.26c-.26,0-.44,0-.62,0,.15-.22.27-.47.46-.63.11-.09.35-.02.52-.02-.13.23-.26.46-.37.65Z"/>
        <path class="cls-2" d="M267.95,117.89c-.21-.24-.42-.42-.55-.65-.04-.07.12-.26.19-.39.2.18.42.34.58.55.04.06-.11.26-.22.49Z"/>
        <path class="cls-2" d="M259.84,104.52c.09.48.12.65.16.83-.2-.07-.44-.09-.59-.23-.1-.09-.08-.33-.11-.5.22-.04.45-.08.55-.1Z"/>
        <path class="cls-2" d="M272.88,112.93c.06-.08.18-.27.31-.46.15.1.37.17.42.3.06.19-.01.42-.03.63-.15-.1-.29-.2-.7-.47Z"/>
        <path class="cls-2" d="M273.43,114.77c-.02.11-.04.2-.06.29-.13-.07-.27-.13-.37-.23-.04-.03.03-.17.05-.26.13.07.26.14.39.2Z"/>
        <path class="cls-2" d="M254.73,99.83c.14-.01.29-.02.43-.03-.02.09-.01.24-.06.26-.13.05-.29.05-.43.06.02-.09.04-.18.06-.29Z"/>
        <path class="cls-2" d="M218.45,9.07c.11.02.2.04.29.06-.07.13-.13.27-.23.37-.03.04-.17-.03-.26-.05.07-.13.14-.26.2-.38Z"/>
        <path class="cls-2" d="M263.19,124.48c-.11-.02-.2-.04-.29-.06.07-.13.13-.27.23-.37.03-.04.17.03.26.05-.07.13-.14.26-.2.38Z"/>
        <path class="cls-2" d="M268.36,135.23c-.14.01-.29.02-.43.03.02-.09.01-.24.06-.26.13-.05.29-.05.43-.06-.02.09-.04.18-.06.29Z"/>
        <path class="cls-2" d="M258.29,121.33c-.11-.02-.2-.04-.29-.06.07-.13.13-.27.23-.37.03-.04.17.03.26.05-.07.13-.14.26-.2.38Z"/>
        <path class="cls-2" d="M53.61,207.07c-.09-.02-.25-.03-.26-.06-.01-.15.01-.29.02-.44.12.03.24.05.37.08-.04.14-.09.28-.13.42Z"/>
        <path class="cls-2" d="M275.84,88.58c-.14.01-.29.02-.43.03.02-.09.01-.24.06-.26.13-.05.29-.05.43-.06-.02.09-.04.18-.06.29Z"/>
        <path class="cls-2" d="M96.38,62.01c-.02.09-.03.25-.06.25-.15.01-.29-.01-.44-.02.03-.12.05-.24.08-.36.14.04.28.09.42.13Z"/>
        <path class="cls-2" d="M247.13,41.44c.05-.14.09-.28.14-.42.1.08.29.2.28.25-.05.15-.18.27-.28.4-.05-.07-.1-.15-.15-.22Z"/>
        <path class="cls-2" d="M81.12,59.35c-.02.11-.04.2-.06.29-.13-.07-.27-.13-.37-.23-.04-.03.03-.17.05-.26.13.07.26.14.39.2Z"/>
        <path class="cls-2" d="M244.03,33.6c-.02.09-.03.25-.06.25-.15.01-.29-.01-.44-.02.03-.12.05-.24.08-.36.14.04.28.09.42.13Z"/>
        <path class="cls-2" d="M66.99,61c-.11-.02-.2-.04-.29-.06.07-.13.13-.27.23-.37.03-.04.17.03.26.05-.07.13-.14.26-.2.38Z"/>
        <path class="cls-2" d="M271.98,74.14c-.14.01-.29.02-.43.03.02-.09.01-.24.06-.26.13-.05.29-.05.43-.06-.02.09-.04.18-.06.29Z"/>
        <path class="cls-2" d="M231.5,96.5c-.14.01-.29.02-.43.03.02-.09.01-.24.06-.26.13-.05.29-.05.43-.06-.02.09-.04.18-.06.29Z"/>
        <path class="cls-2" d="M273.56,74.16c.01.14.02.29.03.43-.09-.02-.24-.01-.26-.06-.05-.13-.05-.29-.06-.43.09.02.18.04.29.06Z"/>
        <path class="cls-2" d="M254.51,42.96c.05-.14.09-.28.14-.42.1.08.29.2.28.25-.05.15-.18.27-.28.4-.05-.07-.1-.15-.15-.22Z"/>
        <path class="cls-2" d="M268.53,62.46c.11.02.2.04.29.06-.07.13-.13.27-.23.37-.03.04-.17-.03-.26-.05.07-.13.14-.26.2-.38Z"/>
        <path class="cls-2" d="M247.48,28.7c-.11-.02-.2-.04-.29-.06.07-.13.13-.27.23-.37.03-.04.17.03.26.05-.07.13-.14.26-.2.38Z"/>
        <path class="cls-2" d="M23.92,191.88c-.14.01-.29.02-.43.03.02-.09.01-.24.06-.26.13-.05.29-.05.43-.06-.02.09-.04.18-.06.29Z"/>
        <path class="cls-2" d="M268.19,55.21c-.02.09-.03.25-.06.25-.15.01-.29-.01-.44-.02.03-.12.05-.24.08-.36.14.04.28.09.42.13Z"/>
        <path class="cls-2" d="M254.19,34.04c-.02.11-.04.2-.06.29-.13-.07-.27-.13-.37-.23-.04-.03.03-.17.05-.26.13.07.26.14.39.2Z"/>
        <path class="cls-2" d="M178.97,64.78c.04.08.23.41.38.76.03.07-.04.27-.05.27-.14,0-.27-.07-.41-.07-.68.01-1.14-.38-1.3-.96-.12-.43.04-.93.08-1.4.27.22.56.42.81.66.14.13.22.32.49.73Z"/>
        <path class="cls-2" d="M253.11,65.12c-.62-.1-1.06-.12-1.07-.18-.06-.53-.03-1.07-.04-1.61.17.07.42.1.48.22.21.42.35.87.63,1.58Z"/>
        <path class="cls-2" d="M189.43,101.1c-.21-.57-1.01-.98-.17-1.48.16-.1.67.03.67.08.04.52,0,1.05,0,1.58-.2-.07-.4-.15-.49-.18Z"/>
        <path class="cls-2" d="M189.54,92.93c.33-.04.58-.07.84-.1-.13.4-.16.89-.42,1.16-.13.14-.68-.13-1.04-.21.21-.28.41-.57.62-.85Z"/>
        <path class="cls-2" d="M224.55,121.93c.02-.11.04-.2.06-.29.13.07.27.13.37.23.04.03-.03.17-.05.26-.13-.07-.26-.14-.39-.2Z"/>
        <path class="cls-2" d="M232.43,53.82c.04-.34.07-.63.1-.92.35.1.92.11,1,.32.12.3-.11.75-.19,1.13-.27-.16-.53-.31-.91-.53Z"/>
      </g>
    </g>
  </g>
</svg>