<?xml version="1.0" encoding="UTF-8"?>
<svg id="_图层_1" data-name="图层_1" xmlns="http://www.w3.org/2000/svg" viewBox="0 0 229.29 321.58">
  <defs>
    <style>
      .cls-1 {
        fill: #c23d31;
      }

      .cls-2 {
        fill: #fffcf8;
      }
    </style>
  </defs>
  <path class="cls-2" d="M209.62,192.42c-.19.43-.28.7-.43.93-.13.21-.35.36-.59.15-1-.93-2.45-1.19-3.31-2.36-.27-.37-.6-.72-.83-1.12-2.1-3.7-4.63-7.11-7.32-10.39-2.17-2.65-4.47-5.23-7.05-7.53-2.54-2.27-4.89-4.74-6.5-7.78-.49-.92-1.36-1.43-2.04-2.14-.94-.99-1.92-1.96-3.04-2.75-1.88-1.33-3.35-3.03-4.6-4.93-.62-.95-1.32-1.85-2.12-2.65-.74-.73-1.41-.64-1.73.34-.56,1.69-1.93,2.75-2.9,4.12-.21.3-.52.33-.85.4-.93.19-1.2.58-1.12,1.53.03.41-.08.72-.32,1.04-1.59,2.09-3.04,4.31-5.16,5.94-.26.2-.48.47-.63.76-.4.79-.91,1.41-1.79,1.71-.36.12-.57.45-.72.83-.8,2.02-1.97,3.84-2.96,5.76-.33.64-.8,1.16-1.31,1.65-.75.72-1.87,1.15-2,2.4,0,.04-.05.09-.09.11-1.48.69-2.06,2.27-3.24,3.22-.67.53-1.55.9-2.39,1.06-.56.1-.84.29-1.24.65-1.1.99-1.87,2.44-3.52,2.72-.09.01-.19.07-.24.14-1.31,1.87-3.48,1.57-5.32,1.99-1.51.35-2.85.7-3.99,1.86-.77.78-1.79,1.35-2.99,1.48-.95.11-1.96.1-2.77.83-.22.2-.79.21-1.09.07-1.12-.52-2.31-.26-3.46-.4-.66-.08-1.3-.2-1.93-.4-.54-.17-1.15-.29-.81-1.14.11-.26-.17-.47-.43-.37-1.13.42-1.84-.01-2.47-.96-.64-.97-.71-.92-1.74-.21-.97.68-1.53.43-1.62-.76-.06-.83-.16-1.53-1.3-1.3-.29.06-.44-.25-.63-.48-.85-1.05-2.63-1.55-3.79-1.01-.57.27-1.09.17-1.65.11-.87-.09-1.76-.14-2.96-.23.69-.54,1.27-.61,1.62-1.02-.01-.08,0-.2-.04-.24-.93-.75-2.04-1.23-3.33-1.45-.28-.05-.63-.03-.81-.2-1.43-1.26-3.2-.89-4.84-.96-1.33-.05-2.59-.49-3.91-.56-.29-.02-.56-.14-.68-.43-.12-.28-.11-.74.15-.71.71.1,1.33-.47,2.03-.2.98.38,1.92.47,2.8-.26.24-.2.55-.09.82-.15.66-.14.79-.65.29-1.13-.16-.16-.39-.27-.6-.36-.7-.31-.12-.81-.2-1.29-.98.05-1.69-.38-2.02-1.33-.09-.25-.19-.58.12-.77.22-.14.49-.08.66.09.7.69,1.45.44,2.23.18.28-.09.55-.2.63-.5.25-.86.8-.57,1.35-.39.68.22,1.01.84,1.49,1.28.14.13.24.3.58.27-.3-.91-.68-1.74-1.24-2.48-.44-.59-.77-1.17-.32-1.94.21-.37.07-.83-.05-1.24-.09-.3-.29-.61,0-.95.44.12.44.56.6.87,1.48,2.99,3.77,5.02,6.97,6.01.83.26,1.7.33,2.53.22,2.53-.35,5.08-.34,7.62-.36,2.58-.02,4.81-.92,6.79-2.45,2.77-2.13,5.68-4.06,8.34-6.35.66-.57,1.12-1.27,1.71-1.88.34-.35.61-.82,1.35-.9-.37.87-1.07,1.36-1.25,2.12.34.23.63.12.82-.08.94-.99,2.36-1.72,1.88-3.48-.09-.33.23-.48.42-.67,1.91-1.91,3.56-4.04,5.2-6.17.46-.59.78-1.29,1.18-1.93,1.92-3.08,3.79-6.19,5.78-9.23,2.1-3.21,3.9-6.58,5.78-9.91.98-1.74,1.63-3.71,1.96-5.73.15-.93.31-1.87.36-2.81.04-.84-.16-.99-1-.91-1.09.11-2.17.12-3.22-.22-.81-.26-1.38.01-1.76.75-.37.73-.75,1.43-1.78,1.27-.3-.05-.5.18-.66.45-.88,1.5-2.69,1.77-3.87,2.87-.25.24-.55.11-.78-.07-.55-.44-1.11-.51-1.51.03-.77,1.02-1.76,1.47-2.98,1.7-.93.18-1.7.81-2.42,1.41-.7.58-1.41.77-2.34.67-1.03-.11-2-.1-3.05-.43-.98-.31-2.19-.49-3.33-.29-1.18.21-2.01,1.01-2.98,1.57-.38.22-.59.91-1.14.61-.41-.22-.07-.79-.21-1.19-.37-.09-.7.15-1.1-.05-.91-.45-.98-.41-.99.52,0,.86-.25,1.48-1.16,1.66-.88.17-1.17.83-1.43,1.58-.45,1.26-.49,1.32-1.78,1.09-.46-.08-.95.58-1.29-.02-.22-.39-.25-.89-.47-1.33-.12.85-.74,1.66.09,2.55.31.33-.28.49-.56.58-.44.14-.76-.07-.81-.52-.04-.37-.02-.75.04-1.12.1-.64-.35-.76-.77-.71-.42.05-.63.4-.46.84.06.16.34.36.11.46-.9.38-.96,1.18-1.14,1.96-.05.22-.21.46-.47.47-.35.01-.47-.29-.54-.56-.08-.31-.13-.65-.11-.98.04-.79.24-1.57-.52-2.2-.32-.27-.04-.57.24-.81.83-.7,1.67-1.39,2.45-2.15.66-.65.65-1.08.15-1.74-.24-.33-.54-.55-.96-.45-.85.19-1.7-.07-2.54,0-.47.04-1.04-.41-1.35-.01-.39.5-.65,1.15-.8,1.77-.14.58-.19,1.2.05,1.81.34.85-.54.96-.91,1.38-.36.41-.77.29-1.14.04-1.14-.76-2.23-2.15-1.5-3.96.35-.87.78-1.68,1.22-2.5.56-1.06,1.28-1.98,1.91-2.97.93-1.47,1.65-3.08,2.32-4.69.39-.95.08-2.02.01-3.1-.87,1.37-2.45,1.29-3.69,2.08.16.41.67.96-.11,1.34-.16.08-.44.24-.5.18-.78-.75-1.08.05-1.66.36-1.81.97-2.45,3.04-4.15,4.11-.75.47-1.55.88-2.29,1.37-.35.24-.75.26-1.04-.04-.4-.41.45-.51.28-.93-.71.06-1.28.96-2.08.36-.02-.02-.1,0-.13.03-1.51,1.31-3.72,1.39-5.09,2.94-.3.34-.69.44-1.1.57-.92.3-1.75.77-1.97,1.83-.13.63-.77.84-1.02,1.3-.69,1.29-1.87,2.16-2.71,3.32-.33.45-.87.86-1.56.85-.37,0-.75.07-1.16.11-.15.56.44.99.19,1.51-.32.04-.61-.46-.97-.02-.25.31-.68.25-.85-.05-.19-.33.28-.39.44-.59.05-.06.06-.15.14-.41-.86.44-1.62.78-2.33,1.21-.6.37-.55.59.1.91.7.35.77.5.19.92-.53.39-.67.85-.73,1.44-.16,1.73-.73,3.38-.87,5.13-.06.82.22,1.59,0,2.47,1.57.02,3.03.21,4.49-.31,1.11-.39,2.29-.52,3.47-.62,1.43-.12,2.78-.62,4.09-1.24.84-.39,1.81-.49,2.73-.72.67-.17.78-.46.32-.95-.36-.38-.8-.65-1.29-.85-.84-.36-.84-.38-1.67-1.56,1.31-.06,2.49.94,3.91.33-.84-.95-2.06-.79-2.91-1.5-.77-.64-1.85-.91-2.8-1.33-.95-.43-2.14-.37-2.79-1.46,4.66,1.18,9.17,2.93,13.96,3.65-.52-.81-1.2-1.35-2.29-1.8-.65-.27-1.26-.52-1.82-1.03-.54-.49-1.9.07-2.06-.75-.19-1-.96-1.21-1.46-1.77-.33-.37-.96-.4-1.18-.92.18-.33.43-.25.61-.12,1.72,1.19,3.76,1.72,5.54,2.78.26.15.54.15.82.18,1.51.16,2.86.88,4.31,1.23,2.71.65,5.29,1.89,8.17,1.72.47-.03.95-.03,1.41-.13.82-.18,1.79-.2,1.54-1.75.87,1.02,1.78,1.07,2.62,1.2.64.1,1.32.03,1.98.01.61-.01,1.13-.24,1.36-.84.27-.71.83-.85,1.48-.83,1.16.04,2.26-.08,3.3.86.76.7,1.94.28,2.77-.3.61-.42,1.08-.42,1.68-.09.82.46,1.91.69,2.45,1.36.95,1.19,2.36,1.19,3.5,1.81,1.11.6,2.22,1.27,3.14,2.11.69.64,1.38,1.62.83,2.63-.51.93-.26,1.74,0,2.56.19.59.51,1.05-.35,1.29-.08.02-.15.12-.19.21-.35.87-1.05,1.27-1.85,1.74-.74.43-1.19,1.41-1.66,2.21-.06.1.41.48.06,1-.97,1.44-2.27.76-3.42.62-.6-.08-1.15-.35-1.77-.11-.43.16-.7-.19-1.04-.32-.38-.15-.76-.12-1.04.2-.33.37.05.57.22.83.74,1.19,1.04,1.25,1.86.14.42-.57.78-.42,1.17-.1.54.44.66,1.22.25,1.79-.38.53-.82,1.03-1.26,1.51-.36.4-.81-.04-1.2.09-.46.15-.64.04-.71-.5-.04-.31-.45-.57-.7-.85-.62-.67-.79-.66-1.42.08-.75.88-.73.85-1.8.25-.8-.45-1.67-.61-2.59-.31-.62.2-1.11.24-1.48-.55-.37-.79-1.25-1.03-2.07-.83-.57.14-1.01.2-1.38-.3-.43-.59-.92-.42-1.33-.04-.5.45-1.05.47-1.58.26-1.73-.7-3.5-.51-5.26-.24-1.4.21-2.78.52-4.18.73-.81.12-1.19.7-1.6,1.46-.75-.84-1.5-.89-2.26-.1-.17.18-.44.12-.68.09-.19-.02-.47-.1-.55-.01-1.09,1.25-2.97.37-4.08,1.54-.23.25-.53.18-.79.07-.46-.2-.81-.19-1.02.35-.11.28-.35.2-.59.2-.89,0-1.27.29-1.32,1.17-.02.39-.13.72-.39.83-1.32.56-2.54,1.66-4.09,1.26-.71-.18-.86.31-1.12.58-.36.37.45.36.37.82-.52.09-1.02.64-1.6-.02-.24-.28-.53-.09-.78.02-.3.14-.59.31-.94.15-1.1-.53-1.96-.18-2.67.73-.28.36-.71.46-1.14.48-.68.03-1.33.1-1.74.74-.4.62-.18,1.19,0,1.86.38,1.48.18,3.01-.08,4.49-.2,1.14-.5,2.25-.26,3.43.1.51-.14,1.02-.24,1.52-.12.59-.63,1.24.1,1.81.17.13.02.31-.05.49-.22.59-.2,1.23,0,1.79.63,1.74.92,3.44-.07,5.14-.15.26-.05.55.09.81.15.28.1.52-.08.78-.49.69-.42,1.41.03,2.09.38.57.46,1.23.6,1.88.09.42.12.84-.24,1.19-.32.31-.41.51.2.53.48.02.58.53.59.86.02.91.27,1.76.47,2.63.03.13-.01.28-.17.35-.15.07-.25-.04-.37-.12-.36-.24-.5-.91-1.13-.61-.41.2-.59,1.28-.33,1.82.04.08.12.15.17.23q.5.82-.35,1.68c1.27.3,1.34,1.23,1.29,2.26-.06,1.23.22,2.43.36,3.64.16,1.4.37,2.89-.61,4.15-.17.22-.07.45-.05.68.1,1.07.13,2.14.06,3.22-.04.6.51.85.73,1.3.11.23.48.26.44.65-.16,1.68.17,3.39-.39,5.04-.15.43-.1.96-.74,1.07-.34.06-.43.36-.44.65,0,.57-.47,1.1.11,1.72.29.31-.49,1.09.24,1.54.1.06.17.26.15.38-.23,1.37.08,2.83-.81,4.09-.66.93-1.05,1.93-.72,3.16.21.79.08,1.64-.38,2.44-.44.76-.82,1.55-1.03,2.46-.17.76-.75,1.53-1.26,2.12-.94,1.08-.86,2.23-.79,3.44.03.48.34.99-.26,1.36-.1.06-.18.28-.15.38.56,1.57-.76,2.87-.57,4.46.19,1.56.16,3.17.13,4.77-.02.98-.07,1.99.06,2.97.11.81-.02,1.41-.95,1.56-.25.04-.49.13-.32.45.14.25.35.28.58.09.66-.53.73.02.72.45-.01.7-.12,1.4-.19,2.1-.03.32-.2.5-.51.6-.78.25-.61.83-.24,1.2.4.4.45.72.34,1.23-.09.4-.01.84,0,1.27.05,1.7.04,1.69-.58,3.34-.13.35-.24.73-.25,1.1-.04,1.54-.44,2.92-1.19,4.3-.39.72-.73,1.57-1.05,2.37-.09.22-.18.44-.3.64-.24.4-.5.99-1,.82-.57-.19-.28-.81-.19-1.24.13-.66.14-1.3.02-1.99-.45.59-.39,1.43-1.02,1.9-.64.47-.69,1.2-.78,1.9-.02.13-.09.3-.19.36-1.85,1.13-1.62,3.14-2.04,4.87-.1.41-.03.85-.08,1.27-.05.38-.21.68-.55.94-1.28.95-1.62,2.55-.78,3.95.28.47.36.9.21,1.33-.51,1.52-.23,3.1-.26,4.63-.02,1.12-.27,2.14-.57,3.16-.31,1.05-.46,2.06-.34,3.19.19,1.78.12,3.59.15,5.38,0,.28.01.65-.29.74-.91.27-.79.92-.68,1.6.06.37.11.75-.09,1.11-.54.29-.45-.54-.84-.49-.5.07-.1.72-.58.89-.36-.51-.52-1.1-.62-1.69-.24-1.54-.48-3.08-.65-4.63-.12-1.17-.13-2.35,0-3.54.13-1.12.16-2.26.18-3.39.02-1.23.03-2.46.42-3.65.3-.92.04-1.81-.17-2.73-.62.65-.97,1.43-1.73,1.85-.07.04-.15.17-.13.24.23,1.26-.82,2.29-.53,3.64.4,1.91-.22,3.7-1.48,5.24-.45-.21-.3-.58-.31-.88-.1-2.97.02-5.95-.23-8.92-.16-1.93.33-3.86.2-5.8-.52-7.7-.02-15.41-.31-23.1-.06-1.55-.25-3.1-.45-4.64-.19-1.46-.07-2.92-.26-4.38-.34-2.52-.48-5.07-.73-7.61-.33-3.35-.13-6.7-.08-10.05.03-2.12.23-4.23.17-6.35-.03-1-.05-1.98.31-2.94.13-.35.21-.73.07-1.11-.65-1.82-.31-3.66,0-5.47.22-1.31.32-2.63.39-3.94.14-2.89.64-5.72,1-8.57.08-.61.16-1.22.23-1.83.03-.23-.05-.5.04-.7,1.2-2.87.39-5.97,1.04-8.9.08-.37.07-.78.35-1.06.68-.68.68-1.56.67-2.39-.03-1.76.13-3.47.5-5.19.27-1.24.25-2.54.45-3.79.58-3.74.83-7.51,1.02-11.28.09-1.79.33-3.56.38-5.34.01-.43.2-1-.47-1.17-.66-.17-1.58.09-1.74.6-.53,1.72-1.87,2.02-3.39,2.04-.31,0-.56.07-.68.38-.02.04-.03.09-.05.13-.61,1.43-1.86,1.84-3.24,1.93-.45.03-.7.06-.85.49-.1.29-.35.48-.65.49-.53.01-.71.36-.89.77-.25.57-.63.91-1.32.64-.4-.15-.82-.02-1.04.28-.52.69-1.29.8-1.99,1.14-1.61.8-3.18,1.67-4.38,3.13-.73.89-1.69,1.75-2.73,2.2-1.96.83-3.13,2.29-4.13,4.04-.77,1.34-1.9,2.21-3.54,2.17-.75-.02-1.36.28-1.94.73-.86.66-1.72,1.31-2.9,1.32-.56,0-.97.38-1.22.86-.53,1-1.64,1-2.48,1.46-.11.06-.27-.02-.32-.17-.03-.1-.93-1.09-.99-1.09-.4-.02-.57.28-.75.55-.7,1.01-1.31,1.17-2.28.44-2.65-1.99-4.61-4.49-5.64-7.69-.27-.85-.63-1.67-.96-2.5-.07-.16-.2-.37-.36-.42-1.55-.51-1.16-1.77-1-2.81.17-1.17.62-2.29,1.5-3.14.37-.35.36-.61.27-1.09-.13-.67-.09-1.41.05-2.09.1-.49.16-.91-.11-1.35-.13-.22-.14-.46.09-.63.23-.18.48-.1.62.11.32.49.72.37,1.22.35.56-.02.82-.19.83-.67.03-1.22,1.23-1.74,1.58-2.76.06-.18.32-.25.49-.2.81.25,1.43-.13,2.11-.48.3-.16.8-.19,1.1-.05,1.3.6,2.36-.09,3.28-.72,4.59-3.16,9.42-5.94,14.17-8.84,1.96-1.2,4.03-2.25,6.06-3.34,1.13-.61,2.47-.84,3.64-1.45,1.05-.54,2.12-1.03,3.15-1.6.9-.49,1.47-1.31,1.94-2.2.11-.2.14-.5.44-.46.36.06.68.23,1.06-.05,1.1-.82,2.25-1.56,3.34-2.39.38-.29.11-.63-.27-.7-.36-.06-.75.03-1.13,0-.97-.06-1.33-.46-1.4-1.61-.89.58-1.61.45-2.11-.49-.1-.19-.29-.42-.56-.22-.18.13-.14.33-.05.52.06.13.15.25.18.38.1.4.38.92-.01,1.18-.51.33-.69-.26-.92-.59-.26-.36-.58-.62-1.05-.64-.14,0-.29-.07-.42-.04-.8.16-.92-1.33-1.66-.83-.77.52-1.28-.08-1.84-.18-.94-.17-1.82-.69-2.74-1.04-.39-.15-.61-.42-.71-.81-.05-.19-.15-.33-.35-.4-.91-.29-1.84-.9-2.51-1.69-.25-.29-.45-.64-.81-.77-1.84-.67-2.85-2.26-4.12-3.58-1.39-1.45-2.63-3.06-4.61-3.85-.77-.31-1.22-1.16-1.59-1.93-.33-.68-.91-1.34-.35-2.23.24-.38-.09-.81-.34-1.16-.38-.54-.75-1.09-1.16-1.61-.18-.23-.41-.45-.38-.73.12-.95-.5-1.45-1.1-2-.93-.86-1.68-1.91-2.43-2.91-.73-.97-1.57-1.89-2.14-2.98-.19-.36-.5-.57-.83-.74-1.36-.72-2.02-1.93-2.33-3.37-1.06-4.89-2.11-9.8-1.89-14.84.14-3.12.89-6.15,1.68-9.17.98-3.75,3.16-6.82,5.3-9.93,2.07-3.03,5-5.07,8.1-6.89.37-.22.68-.5.96-.83.21-.26.47-.53.82-.49,1.31.14,2.16-.72,3.09-1.37.58-.41,1.16-.81,1.81-1.1.3-.13.64-.35.94-.23,1.52.61,2.56-.5,3.61-1.14,1.51-.92,3.01-1.94,4.31-3.18.33-.32.76-.55.98-1.14-1.09-.13-1.72.9-2.64.97-.33-.42.1-.51.25-.69.18-.22.45-.42.22-.72-.19-.25-.48-.26-.78-.16-.36.11-.73.21-1.09.32-.42.13-.92.21-1.24-.02-.89-.64-1.93-.79-2.91-1.15-.54-.2-.95-.4-1.35.17-.36.5-.76.28-1.07-.04-1.33-1.37-3.04-2.22-4.49-3.41-1.29-1.06-2.15-2.5-3.09-3.83-.48-.68-.98-1.38-1.41-2.11-.39-.66-.81-1.25-.82-2.05-.01-.64-.62-.91-.94-1.36-.29-.41-.18-1.41.2-1.71.24-.19.44.04.66.07.63.1.99-.05,1.26-.76.33-.88.66-1.78,1.84-2.13,1.05-.31,1.92,0,2.67.42,1.91,1.05,3.91.95,5.92.69,2.35-.31,4.6-1.07,6.79-1.95,1.57-.63,3.04-1.53,4.5-2.39,1.46-.87,3.1-1.36,4.52-2.33,3.09-2.09,6.37-3.87,9.63-5.66,1.08-.59,1.65-1.39,1.79-2.67.16-1.46.2-2.92.3-4.38.26-3.78.85-7.5,1.42-11.24.35-2.32.48-4.68.7-6.97-.38-.26-.67-.16-.91-.05-2.19,1-4.51,1.71-6.81,2.34-1.43.39-2.44,1.1-3.39,2.09-.1.1-.21.19-.33.27-.07.05-.17.05-.36.1-.03-.63.26-1.17.45-1.98-.88.46-1.01,1.43-1.83,1.73-.33-.53-.05-1.01.03-1.49.12-.74.11-.77-.65-.52-.3.1-.76.07-.77-.04-.13-1.09-1.22-1.34-1.77-2.07-.72-.95-.75-1.85-.33-2.76.38-.82.78-1.74,1.88-1.98.46-.1.78-.52,1.09-.87,2.75-3.08,5.84-5.77,9.22-8.14.58-.41,1.1-.89,1.68-1.3.67-.48,1.33-.56,2.1-.09.77.47,1.55.91,2.14,1.6.46.54,1.04.77,1.74.8,1.22.05,2.45,0,3.65.03,1.83.05,3.78-.04,5.46,1.07.73.48,1.61.44,2.46.52,1.77.17,3.39.68,4.81,1.92,2.07,1.81,3.31,4.06,4.17,6.6.08.22.13.47.26.66.64.96.64,1.83-.24,2.65-.34.31-.33.77-.38,1.19-.04.42-.02.86-.14,1.26-.6,1.92-.99,3.96-1.93,5.69-.88,1.61-1.35,3.42-2.43,4.92-.46.64-.32,1,.48,1.22,1.46.4,2.88.45,4.16-.6.58-.47,1.25-.83,1.88-1.25.28-.19.57-.32.93-.23.32.08.68.14.97-.03,1.01-.57,2.06-.36,3,.04.86.37,1.32-.6,1.86-.44.63.18,1.18.97,1.9.46.79-.56,1.2-.1,1.68.38.14.14.29.3.21.49-.38.95.29,1.07.92,1.08.62.01.79.44,1.01.84.23.42-.48.58-.29,1.08.82.4,1.7.84,2.6,1.24.36.16.64.37.84.72.64,1.13,1.49,2.04,2.66,2.63.4.2.63.5.77.95.26.82.76,1.5,1.32,2.16.54.64.96,1.39,1.41,2.1.13.2.17.45.07.68-.64,1.44-.33,2.81.26,4.18.33.78.12,1.08-.72.91-.39-.08-.71-.1-1.09.04-1.37.5-2.71,1.09-4.21,1.08-.2,0-.41.03-.38.29.02.24.13.39.45.41,1.05.08,1.28.43,1.17,1.65-.08.95-.36,1.18-1.39,1.14-1.43-.06-1.68-.28-2.01-1.86-.08-.37-.32-.43-.62-.43-.5,0-.91.25-1.29.53-.35.25-.65.55-.99.8-.47.34-.93.59-1.55.21-.43-.26-.98-.28-1.46-.51-.56-.27-1.23-.31-1.77.06-.63.43-1.18.32-1.66-.13-.91-.83-1.85-1.01-2.73-.08-.43.45-.94-.14-1.28.29-.04.55.69.47.74.94-.21.63-.86.19-1.19.49-.16.42.51.6.26,1.03-.09.03-.2.1-.25.07-1.25-.61-2.49-.78-3.75-.03-.32.19-.62.1-.96.03-1.54-.32-2.92-.07-4.21.93-.64.5-.9,1.05-.97,1.77-.1,1.06.14,2.17-.54,3.13-.14.2-.05.44.06.67.59,1.19.49,2.28-.27,3.42-.77,1.15-.69,2,.21,2.26.88.25.78.74.79,1.31.06,2.02.09,4.03-.07,6.04-.1,1.2.2,1.46,1.37,1.12,1.77-.52,3.51-1.1,5.27-1.65,3.48-1.09,7.04-1.77,10.65-2.25.47-.06.94-.14,1.39-.27,1.29-.38,2.6-.46,3.91-.16.92.21,1.82.05,2.61-.35,1.39-.72,2.83-.66,4.29-.43,2.26.35,4.26,1.47,6.37,2.25,1.71.63,3.23,1.54,4.6,2.66,1.12.92,2.19,1.93,3.22,2.97,1.21,1.21,1.89,2.81,2.74,4.28.16.28.27.59.5.84,1.08,1.16,1.51,2.52,1.29,4.09-.07.48.12.92.28,1.37.28.8.56,1.59-.24,2.33-.36.33-.39.86.1,1.24.19.15.39.36.3.6-.52,1.27-.05,2.63-.41,3.92-.24.87-.53,1.69-.94,2.5-.87,1.72-1.81,3.41-2.47,5.23-.22.62-.52,1.2-.83,1.79-.76,1.43-1.45,2.91-2.08,4.41-.24.58-.64,1.03-.93,1.57-.71,1.36-1.12,2.9-2.36,3.95-.19.16-.39.49-.08.73.2.16.49.03.65-.12.72-.68,1.52-1.31,2.1-2.1,1.66-2.28,3.93-3.95,5.79-6.01,3.03-3.35,6.68-5.99,10.27-8.66,3.29-2.45,6.28-5.3,9.84-7.39.6-.35.9-.91,1.21-1.52,1.35-2.67,2.21-5.52,3.02-8.38.61-2.14,1.39-4.22,2.1-6.32.7-2.06,1.26-4.16,1.84-6.25.51-1.86,1.23-3.67,1.9-5.49,1.51-4.07,2.07-8.33,2.56-12.61.5-4.36.95-8.73,1.35-13.1.21-2.39.39-4.8.1-7.21-.05-.43.08-1.11-.6-1.07-.61.04-.79.64-.74,1.19.06.78-.13,1.48-.49,2.16-.12.22-.2.45-.49.39-.27-.05-.41-.34-.39-.53.11-1.13-.31-2.22-.29-3.34.03-1.4-.13-1.63-1.46-1.99-.5-.14-1.01-.26-1.52-.32-1.63-.18-2.12.11-2.86,1.59-.08.17-.18.34-.32.46-.25.23-.61.26-.64-.11-.04-.65-.46-1.02-.74-1.52-.41-.73-.64-1.59-.38-2.46.33-1.1-.12-2.26.29-3.35.42-1.1,1.6-1.55,2.18-2.56.32-.56.81-1.01.84-1.78,1.32.27,2.46,0,3.55-.67.87-.54,1.93-.64,2.74-1.39.37-.34,1.18.03,1.79-.16,2.08-.66,4.08-.36,6.07.47,1.06.44,2.2.71,3.31,1.03.31.09.68.17.97.08.7-.2,1.28-.28,1.6.56.07.18.32.17.51.15.29-.03.57.01.8.2,2.28,1.88,4.88,3.43,6.34,6.16.09.16.19.34.34.45,2.31,1.72,3.14,4.44,4.43,6.8,1.03,1.88,1.51,4.09,1.75,6.23.23,1.99.12,4.04-1.59,5.62-.88.81-1.13,2-1.34,3.2-.23,1.35-.52,2.66-.37,4.06.06.59.21,1.45-.06,1.87-.43.66-.05,1.17-.13,1.73-.12.84-.11,1.74-.36,2.5-.37,1.15-.18,2.44-.95,3.48-.13.17-.16.45-.17.68-.04,1.42-.82,2.61-1.23,3.9-.09.27-.27.56-.23.81.19,1.27-.11,2.42-.63,3.56-.24.52.09.82.56,1.11.75.47.74.61.08,1.23-.38.35-.66.66-.35,1.21.15.26.11.53-.14.76-.66.62-.66.63-.61,1.82,1.03-.68,1.99-1.33,2.96-1.95,2.02-1.3,4.03-2.6,6.56-2.63.17,0,.46-.06.51-.17.54-1.21,2.09-1.65,2.24-3.08.36-.05.49.71.59.35.37-1.45,1.71-1.11,2.6-1.53.48-.23,1.08-.24,1.53-.63.26-.23.6-.24.93-.3,3.87-.6,7.72-1.3,11.66-1.28.89,0,1.7-.46,2.65-.29.93.17,1.62.53,1.95,1.4.33.87.93,1.32,1.8,1.63.96.34,1.91.78,2.62,1.59.73.83,1.71,1.33,2.69,1.8.38.19.83.3.85.83.03.69.51,1.04,1.07,1.16,1.46.32,2.12,1.68,3.26,2.42.21.13.31.46.12.63-.9.81-.15,1.29.39,1.64,1.2.77,2.33,1.63,3.33,2.62.73.72,1.68,1.2,2.2,2.13.62,1.11.62,1.12-.38,1.96-.1.09-.18.2-.29.33.22.51.68.96,1.08,1.05.87.19.93.6.72,1.3-.15.47-.07.9.23,1.33.32.46.47,1.05.82,1.48.75.94.34,2.09.66,3.11.1.32-.24.87-.53.93-.96.19-1.02.94-1.25,1.63-.24.73-.5,1.43-1.46,1.51-.34.03-.53.36-.75.61-.15.17-.37.4-.56.4-1.41.03-1.77,1.21-2.4,2.11-2.44,3.52-4.37,7.37-6.74,10.93-1,1.49-2.1,2.84-3.79,3.7-1.01.51-2.08,1.07-2.79,2.1-.44.62-1.33.72-1.99.95-.61.21-1.08.47-1.48.91-.72.78-1.41,1.16-2.59.82-.83-.24-1.96-.23-2.55.86-.44.81-1.34,1.11-2.11,1.25-.57.1-1.1.3-1.61.53-.28-.72.52-.92.52-1.48-.39-.43-1-.11-1.44-.39-.44-.28-.47-.78-.69-1.28-.47,1.18-1.54,1.2-2.46,1.44-.68.18-1.4.23-2.1.25-.64.02-1.22.14-1.74.49-.63.42-1.16.4-1.49-.35-.21-.47-.63-.69-1-.98-.24-.18-.52-.18-.81-.21-.68-.05-1.09.84-1.44.74-.51-.15-.93-.55-1.55-.4-.73.18-1.37.4-2.02.89-.99.76-2.1,1.45-3.39,1.66-.71.12-.98.46-.99,1.23,0,.82.14,1.6.24,2.39.32,2.44.59,4.86,0,7.31-.18.76-.13,1.6-.08,2.4.07,1.05-.12,1.93-.88,2.72-.48.5-.81,1.15-1.12,1.78-.54,1.09-.21,1.79.91,2.27.82.36,1.62.74,2.56.7.75-.04,1.2.69,1.93.8.84.12,1.67.33,2.49.55.5.13,1.04.24,1.46.52,1.98,1.32,4.28,1.64,6.49,2.27.18.05.43-.01.55.09,1.21,1.12,2.8.97,4.24,1.28.74.16,1.47.3,2.15.68.24.14.52.27.79.27,2.46.04,4.85.67,7.29.84.94.07,1.87-.1,2.82,0,1.69.17,2.97,1.11,4.27,2,.56.38.98.62,1.65.42,1.63-.48,2.85.2,3.8,1.47.29.38.58.74.94,1.05.34.29.62.66.46,1.11-.24.67.12,1.05.51,1.49.38.42.73.9.66,1.52-.11,1,.13,1.94.51,2.95.58-.51,1.06-.34,1.41.31.09.16.23.3.34.46.9,1.41.83,1.99-.55,2.87-.62.4-.9.75-.63,1.47.2.55-.06.94-.49,1.35-.89.85-.93,2.04-.23,3.06.55.81.51,1.43-.14,2.32.41.12,1.21-.1.65.81-.27.45.04.81.23,1.18.86,1.63,1.79,3.22,2.58,4.88.76,1.6.91,3.37,1.09,5.1.25,2.36.02,4.69-.68,6.97-.15.49-.3,1.01-.34,1.52-.05.8-.26,1.42-.94,1.94-.52.4-.64,1.13-.85,1.76-.57,1.75-1.77,2-3.02.64-.1-.1-.19-.21-.29-.31q-.81-.89-1.54.06c-.59.78-.79.78-1.3-.03-.2-.32-.35-.67-.5-1.01-.59-1.29-1.68-2.12-2.76-2.95-.19-.15-.46-.24-.67-.15-.88.4-1.3-.16-1.73-.76-.19-.26-.41-.5-.71-.87ZM37.45,115.57c.02,1-.77,1.44-1.4,1.95-.32.25-.69.46-1.01.73-.18.15-.36.36-.18.6.2.27.44.09.6-.07.84-.8,1.67-1.62,2.5-2.44.19-.19.48-.4.28-.7-.19-.28-.52-.06-.78-.08-.05-.36.22-.71,0-1.07-.81-.2-1.3.36-1.84.78-.32.25-.8.52-.38.99.39.43.83.07,1.19-.16.18-.11.23-.4.39-.57.2-.21.43-.06.63.03ZM162.22,107.62c.34.63.72.91,1.23,1.12,1.53.64,3.1,1.37,4.09,2.7.86,1.16,1.94,1.88,3.13,2.55.49.27.97.6,1.39.97.58.51,1.18.54,1.83.22.46-.23.95-.46,1.34-.79,1.12-.95,2.42-1.64,3.64-2.44,1.94-1.26,3.89-2.47,5.62-4.03,2.53-2.27,4.97-4.63,7.19-7.19,1.95-2.24,3.82-4.54,5.75-6.8,1.33-1.57,2.13-3.44,3.11-5.22.73-1.32,1.43-2.66,2.09-4.02.34-.7.17-1.02-.58-1.04-1.64-.04-3.23-.45-4.83-.62-1.36-.14-2.85.25-4.24.51-1.04.2-2.14.08-3.14.51-.09.04-.31-.05-.35-.14-.25-.56-.63-.27-.94-.13-1.72.76-3.5,1.43-5.14,2.34-5.34,2.98-11.05,5.29-16.05,8.9-.46.33-.78.63-.94,1.13-.46,1.44-.91,2.87-1.36,4.31-.02.07.05.16.07.24.24.05.32-.37.67-.18.02.54-.27,1.04-.45,1.55-.06.16-.26.39-.37.38-.87-.13-.66.24-.41.74.25.5.12.96-.47,1.07-.51.09-.68.42-.59.79.34,1.24-.35,1.94-1.32,2.55ZM37.67,72.26c-.11.82-.58,1.33-1.14,1.79-.84.69-1.52,1.52-2.13,2.43-.57.84-.62,1.89-1.19,2.71-.58.84-1.36,1.57-1.25,2.74.03.3-.3.56-.52.82-1.01,1.19-2.11,2.28-3.37,3.2-.3.22-.57.45-.75.82-.87,1.84-1.83,3.63-3.26,5.14-1.11,1.17-1.39,2.64-.96,4.21.09.31.15.72.53.77.69.1,1.4.11,2.1.14.15,0,.33-.08.3-.22-.22-1.1.57-.72,1.05-.7.7.04,1.41.11,2.1.25.7.15,1.3.05,1.86-.4.45-.35.92-.61,1.53-.65,1.75-.11,3.28-.83,4.68-1.83,2.07-1.48,4.18-2.89,6.39-4.16,2.24-1.3,4.27-2.97,6.62-4.07,1.68-.78,2.49-1.9,2.4-3.72-.01-.23.04-.47.05-.71.01-1.84.06-3.68.02-5.51-.07-3.17.22-6.32.26-9.48.02-1.15-.17-1.27-1.23-.92-1.49.49-2.54,1.51-3.32,2.83-.97,1.63-1.16,1.71-2.84.99-.35-.15-.8-.38-1.03,0-.45.74-1.29.74-1.91,1.14-1.31.85-2.65,1.7-4.26,1.94-.39-.43.48-.71.07-1.2-.85.32-1.55.82-2,1.65.47.44.72-.27,1.18,0ZM77.03,98.92c.52.21.92.11,1.29-.13.6-.39,1.27-.32,1.92-.32.4,0,.77.08.8.6.04.9.64,1.14,1.4,1.29.31.06.89-.06.87.49-.02.6.26.59.7.53,1.03-.13,2.06-.27,3.09-.33.65-.04,1.25.11.93,1.16.74-.39,1.08-.89,1.34-1.44.48-1.02.87-2.1,1.93-2.73.21-.12.33-.45.43-.71.41-1.1.96-2.18.57-3.42-.09-.29.09-.55.17-.82.81-2.57,1.63-5.13,2.43-7.7.52-1.67,1.02-3.34,1.48-5.02.36-1.29.21-1.6-1.08-1.94-1.36-.36-2.81-.48-4.18-.35-3.23.29-6.36,1.17-9.51,1.93-2.32.56-4.44,1.73-6.82,2.09-.62.09-.89.72-.44,1.12.39.34.45.53.18.9-.41.57-.44,1.23-.43,1.9.02,1.23.02,2.46.04,3.68.01.6-.01,1.15.64,1.6.59.41.45.87-.28,1.2-.43.19-.63.43-.53.85.09.39-.05.75-.05,1.12.01.92.32,1.3,1.25,1.39.66.06,1.32.08,1.98.05,1.01-.05,1.7.4,2.21,1.23.41.66.35.83-.4,1.07-.61.19-1.35,0-1.9.72ZM35.36,119.8c.55.42.81,1.01,1.52.8.33-.1.48.06.69.3.62.68,1.02.73,1.63.14.44-.43.96-.78,1.08-1.56.1-.7.73-1.24,1.38-1.63.17-.1.32-.23.5-.09.22.17.24.44.07.63-.53.6-.71,1.41-1.35,1.96-.51.44-1.04,1.01-.99,1.97.55-.47,1-.82,1.4-1.21,3.37-3.31,6.94-6.37,10.9-8.96.4-.26.77-.54,1.02-.96.17-.29.33-.6.11-.92-.24-.37-.55-.25-.87-.09-.2.11-.43.24-.56-.09,1.59-1.9,1.65-2.17.79-3.84-.22.01-.29.2-.41.34-.73.79-1.38,1.68-2.24,2.31-.7.52-1.55.83-2.22,1.46-.57.52-.71-.05-.79-.58-.56.38-1.1.75-1.65,1.1-.18.11-.49.29-.56-.07-.06-.29.03-.59-.42-.52-.47.07-.43.39-.41.75.05.67-.23,1.29-.82,1.48-.83.27-1.19.86-1.49,1.56-.22.52-.55.86-1.12.96-.22.04-.47.11-.65.25-1.7,1.28-2.86,3.07-4.52,4.53ZM49.27,128.55c.04,1.46-1.42,1.75-1.65,2.96,1.32-.9,2.45-1.67,2.18-3.41-.11-.69.58-1.5,1.2-1.47,1.52.08,2.32-.76,2.92-2.13-1.03.03-1.32,1.11-2.31,1.34.35-.74.71-1.21,1.13-1.66.57-.62,1.15-1.26,1.63-1.95.52-.75.45-.94-.4-1.54-.29-.2-.16-.38-.12-.6.09-.45.69-.8.28-1.46-.86.58-1.76,1.04-2.47,1.69-1.94,1.8-4.11,3.36-5.75,5.47-1.32,1.7-1.38,3.07-.19,4.63.66.88.89.9,1.6.08.55-.63.99-1.35,1.97-1.95ZM31.31,112.25c-.03,1.07.08,1.55.39,1.62.55.14,1.01-.17,1.42-.47.3-.22.54-.52.81-.78.23-.23.43-.51.7-.69,2.01-1.4,3.71-3.18,5.54-4.79.55-.49.52-.66-.15-1-.72-.36-1.47-.62-2.29-.7-.42-.04-.89-.02-1.24-.21-1.06-.54-2.22-.38-3.32-.59-.82-.16-1.3.25-1.34,1.06-.12,2.26-.17,4.52-.51,6.55ZM117.91,117.41c.37-.27.55-.36.67-.49,1.7-1.9,3.55-3.65,5.36-5.43,2.15-2.12,4.22-4.32,6.58-6.22,2.09-1.68,4.21-3.33,6.28-5.05,1.12-.93,1.84-2.16,2.24-3.58-1.72,1.09-3.45,2.17-4.99,3.46-1.07.9-2.63,1.22-3.24,2.68-.01.04-.08.05-.12.08-1.79,1.32-3.24,3.02-4.92,4.46-.58.5-1.09,1.17-1.55,1.81-1.24,1.71-2.62,3.31-4,4.9-.87.99-1.8,1.88-2.32,3.4ZM87.49,103.72c-.97.91-2.15,1.06-3.29,1.04-.65-.02-1.2,0-1.73.36-.28.19-.61.3-.94.26-1.23-.13-2.12.67-3.14,1.12-.31.13-.61.35-.45.76.17.41.47.35.82.18.25-.12.67-.21.65.21-.08,1.22.53.66,1.03.45.35-.15.7-.27,1.04-.43.57-.27.83-.04.79.52-.05.85-.25,1.64-.77,2.38-.79,1.11-1.88,1.89-2.99,2.54-1.16.68-1.35,1.74-1.61,2.79-.19.74-.12,1.53-1.17,1.61-.19.01-.3.25-.17.44.14.21.34.1.48-.01.55-.43,1.18-.74,1.61-1.34.64-.87,1.4-1.64,2.25-2.34.68-.57,1.43-1.14,1.85-1.93.83-1.56,2.06-2.82,3.22-4.08,1.23-1.33,1.68-2.97,2.51-4.53ZM27.95,109.91c.33-.3.36-.49.35-.68-.1-1.67.27-3.27.77-4.85.33-1.04.25-1.2-.64-1.72-.67-.39-1.28-.27-1.85.42-.39.48-.64,1.02-.75,1.65-.41,2.19.97,3.59,2.12,5.18ZM23.63,97.78c-.22,2.84.18,5.2,1.49,7.43.21-1.17.8-2.13,1.29-3.15.28-.57.24-1.09-.21-1.56-.78-.81-1.54-1.63-2.57-2.72ZM55.36,129.51c-1.78,1.6-3.65,2.82-4.78,4.99,1.54.06,2.75-.23,3.86-.9.57-.34,1.15-.73,1.14-1.51-.02-.79.02-1.59-.22-2.58ZM112.53,124.3c-1.12.41-2,1.12-2.96,1.7-1.34.8-1.87,2.78-1.32,3.95.15.32.36.55.75.54.32,0,.6-.16.65-.45.16-.98,1.17-1.63,1-2.74-.04-.27.21-.55.48-.65,1.12-.39.86-1.6,1.4-2.36ZM151.38,123.98c1.03.08,1.89.41,2.8.09.49-.17,1.07-.17,1.17-.84.1-.69-.05-1.3-.64-1.77-.5-.4-1.07-.6-1.52-.09-.68.76-1.53,1.41-1.8,2.61ZM45.68,157.9c.78-.07,1.35-.09,1.9-.18.51-.08,1.01-.21,1.49-.38.52-.19.55-.64.3-1.04-.21-.35-.37-.45-.93-.17-.93.46-1.67,1.14-2.76,1.78ZM53.94,155.58c-1.36.61-1.82.89-2.03,1.26-.17.31-.29.71.15.8.44.09.93.03,1.38-.07.47-.1.38-.59.46-.94.07-.31.26-.61.03-1.05ZM171.48,87.24c1.8.3,2.87-1.17,4.3-1.76-1.77-.24-2.96.96-4.3,1.76ZM151.83,23.37c-1.18-.36-2.11-.22-3.04-.17-.17,0-.36.12-.5.22-.16.11-.22.3-.12.49.08.14.26.23.36.14.57-.48,1.07-.21,1.65.01.57.22,1.06-.15,1.65-.7ZM112.17,129.17c1.11.23,2.52-.23,3.01-.98.12-.17.13-.35.02-.52-.12-.19-.31-.24-.49-.14-.87.49-1.88.78-2.54,1.63ZM177.94,86.71c-1.26.09-3.31,1.22-3.93,2.17,1.28-.87,2.81-.98,3.93-2.17ZM176.59,84.23c.03.09.06.17.1.26.77-.3,1.5-.72,2.37-.74.25,0,.51-.22.75-.38.21-.14.3-.38.18-.62-.13-.26-.36-.27-.6-.13-.93.53-1.86,1.07-2.79,1.61ZM50.75,100.19c.19.39.65.04.86.33.31.44.65.34.9-.03.31-.46.13-.94-.18-1.29-.3-.34-.61.01-.84.21-.27.23-.68.36-.74.78Z"/>
  <path class="cls-2" d="M127.19,164.85c-.42-.28-.38-.63-.42-.95-.04-.33-.11-.67.36-.77.22-.05.48-.19.61.11.13.28.4.58.17.91-.19.25-.35.55-.72.7Z"/>
  <path class="cls-2" d="M125.92,264.09s-.29,1.62.38,3.07c.33.72,1.68,1.77,2.68,1.35,1-.42,9.41-2.76,11.31-3.15s2.95-.75,3.28-3.14c.18-1.28-.09-2.49-.09-2.49,0,0-1.61.76-2.41.94-.8.18-10.75,2.88-13.55,3.49-1.16.25-1.6-.07-1.6-.07Z"/>
  <path class="cls-2" d="M182.64,230.4s.23.73.55,2.04c.21.88.25,7.93.2,11.09s.14,16.29-.04,17.49c-.19,1.2-.68,1.95-.56,2.06s4.67-.71,5.04-1.99c.38-1.28,0-16.3,0-18.21s-.24-5.48-.09-7.58c.15-2.1,1.16-3.23.39-3.85-.78-.63-3.32-1.28-5.49-1.05Z"/>
  <path class="cls-2" d="M199.2,238.12s.63,1.52.73,3.52c0,0,2.11,21.8-9.26,22.57,0,0,.57,1.7,2.64,3.33,2.08,1.62,2.79,1.16,5.27-1,2.48-2.16,5.59-6.18,5.88-14.79,0,0,.16-8.15.62-11.07,0,0,.33-1.18-1.1-1.8s-4.78-.76-4.78-.76Z"/>
  <path class="cls-2" d="M219.91,250c-.53-.45-3.1-2.54-3.52-2.64-.41-.1-1.49.23-1.64.29-.14.06-5.53-.11-12.37-.04.14,1.41.05,2.85-.27,4.23,3.08-.14,10.89-.11,12.06-.15,0,0,.1,5.18.14,7.29.04,2.1-.27,6.74-1.19,9.21,0,0,5.7,1.05,6-1.8,0,0-.05-7.22.25-10.98,0,0,.14-3.54.64-4.07,0,0,.41-.88-.11-1.33Z"/>
  <path class="cls-2" d="M191.47,241.43c-.42-.02-2.38-.02-5.52-.04,0,0,0,0,0,0-.17,0-.35,0-.52,0-.17,0-.35,0-.52,0,0,0,0,0,0,0-3.15.02-4.79,0-5.22.02-.83.04-2.9-.43-2.9-.43,0,0,.3,1.16.56,2.44.26,1.28,1.05,2.36,3.04,2.36.86,0,2.89-.23,5.01-.23,2.12,0,4.17.23,5.03.23,1.99,0,2.78-1.08,3.04-2.36.26-1.28.56-2.44.56-2.44,0,0-1.76.49-2.59.45ZM185.44,243.85c.01.23.01.47,0,.7-.01-.23-.01-.46,0-.7Z"/>
  <path class="cls-2" d="M176.61,260.25s-.01,1.46.19,2.23c.64,2.42,2.46,2.65,3.87,2.36,1.08-.22,7.38-2.65,9.3-3.05,1.91-.4,4.1-1.03,4.43-3.44.18-1.29-.09-2.51-.09-2.51,0,0-1.62.77-2.43.95s-10.83,2.9-13.66,3.52c-1.17.26-1.61-.07-1.61-.07Z"/>
  <path class="cls-2" d="M207.31,228.58s-3.27.79-3.47,2.43c-.22,1.73,1.11,4.13,4.1,4.8,2.99.67,4.9-.13,4.9-.13,0,0-3.53-1.75-5.53-7.1Z"/>
  <path class="cls-2" d="M210.14,241.22s.5,0,.51-.02c0-.04-.58-.1-.57-.14.03-.22.3-.54.33-.76.09-.83-.91-1.67-.91-2.51,0-.04,0-.12-1.09-.12-2.79,0-6.26-.02-10.62-.05-2.18-.01-3.32-.53-3.32-.53.05,3.91,1.39,4.79,1.39,4.79.52.59,1.95.46,2.85.3.59-.1,1.17-.18,1.76-.2,2.87-.11,7.05-.16,9.31-.17.03-.23.33-.37.37-.6Z"/>
  <path class="cls-2" d="M208.92,241.13s0-.04,0-.05c0-.04-.01-.08-.02-.12-.03-.22-.05-.44-.08-.66-.09-.83-.15-1.67-.15-2.51,0-.04,0-.08,0-.12,2.79,0,6.26-.02,10.62-.05,2.18-.01,3.32-.53,3.32-.53-.05,3.91-1.39,4.79-1.39,4.79-.52.59-1.95.46-2.85.3-.59-.1-1.17-.18-1.76-.2-2.87-.11-5.32-.16-7.59-.17-.03-.23-.07-.46-.1-.68Z"/>
  <path class="cls-2" d="M142.73,226.59s-9.61,11.77-27.56,13.56c0,0,1.64,3.87,3.78,4.56,2.14.69,6.28-1.68,6.28-1.68,0,0,18.86-10.1,20.2-14.19,0,0-.17-.62-1.51-1.64-.7-.54-1.19-.61-1.19-.61Z"/>
  <path class="cls-2" d="M142.13,231s5.98,3.57,9.68,6.03c6.62,4.41,9.48,6.93,11.32,6.78,1.84-.15,5.36-2.04,6.85-4.87,0,0-7.05-.68-14.77-4.22-5.31-2.43-10.96-5.88-10.96-5.88,0,0,.13.34-.79,1.04-.92.7-1.34,1.12-1.34,1.12Z"/>
  <path class="cls-2" d="M158.44,268.43c-1.8-.38-5.4-2.23-9.78-5.75-2.62-2.11-4.58-4.09-4.58-4.09,0,0,.77-.64,1.35-1.23,1.22-1.22,2.5.06,2.5.06,0,0,6.26,5.12,16.34,7.59,0,0-2.32,4.17-5.83,3.42Z"/>
  <path class="cls-2" d="M147.61,241.24c-.42-2.28-3.25-7.99-6.59-6.67-2.05.81-1.58,2.91-1.23,3.88.11.3.39.5.71.53.98.1,3.63.51,7.12,2.26h0Z"/>
  <path class="cls-2" d="M133.36,266.18c.26-2.3-.07-11.69-.07-13.46,0-1.9.37-5.44.52-7.52.15-2.09.55-2.66-.22-3.28-.77-.62-2.25-1.15-4.41-.93,0,0,.2.78.28,1.68s.43,7.23.38,10.35c-.05,3.13-.2,12.29-.38,13.48-.01.09-.03.16-.05.23.22.04.41.13.59.23.21-.17.48-.27.78-.34.24-.1.52-.16.83-.16.35,0,.66.08.92.2.22-.22.5-.39.84-.48Z"/>
  <path class="cls-2" d="M154.88,241.74c-8.15,0-22.93.02-22.93.02,0,0-.78.11-1.04-.52v.45s.34,3.89,1.53,3.84c1.19-.06,11.64,0,12.51,0h10.28c-.3-1.23-.41-2.51-.34-3.78Z"/>
  <path class="cls-2" d="M155.98,254.34c-.29-.65-.52-1.33-.81-2.05-8.19,0-22.73.02-22.73.02,0,0-.78.11-1.04-.52v.45s.34,3.89,1.53,3.84c1.19-.06,11.64,0,12.51,0h8.7c.15-.87.77-1.63,1.85-1.72Z"/>
  <path class="cls-2" d="M132.07,248.56s-.18,2.57.86,2.4c1.04-.17,10.06-.09,10.06-.09h5.89c.48,0,.95.01,1.42.05.61.04,1.5.08,1.65-.04.22-.18,1.79-1.78.94-3.57l-4.43.32c-1.16.08-2.32.12-3.48.12l-13.84-.08"/>
  <path class="cls-2" d="M160.01,255.1s.01.32-.26.96c-.59,1.36-3.13,4.05-4.96,4.52,0,0,1.73.95,3.07,1.02,2.3.12,3.84-.2,4.9-1.68.34-.48.39-1.11.22-1.68-.11-.4-.32-.81-.48-1.09-.46-.79-1.68-1.84-2.48-2.05Z"/>
  <path class="cls-2" d="M153.4,241.74c2.44-.68,2.31-.34,2.71-.06.79.57,2.04,1.51,2.15,1.84.15.5-.5.99-.6,1.44-.07.32-.32,5.87-.45,8.99-.05,1.18-1.03,2.11-2.22,2.1-.54,0-1.01-.01-1.15-.03-.4-.05.15-11.26.3-11.96"/>
  <path class="cls-2" d="M125.89,291.74c.69,1.63,1.34,2.78,1.67,3.37,0,0-.31.02-1.36.04-.67.02-1.32.06-1.69.1,0,0-.22-1.12-.51-3.62-.2-1.48-.85-2.09-1.4-2.09-.43,0-.77.3-.98.79-.06.35-.08.89-.08,1.69,0,1.44.04,2.32.08,2.78,0,0-.63-.04-1.14-.04-.57,0-1,0-1.28.02,0,0,.2-3.27.2-8.45,0-2.82-.16-5.97-.22-7.4-.02-.41-.14-.53-.18-.55.26-.02.79-.04,3.07-.04,3.19,0,4.94.93,4.94,4.69,0,2.78-.63,4.27-1.56,5.08-.26.35-.41.65-.41,1.04,0,.59.26,1.22.71,2.3l.16.3-.02-.02ZM121.56,282.92c0,3.74.57,4,1.67,4s1.81-1.3,1.81-3.68-.93-3.13-1.97-3.13c-1.12,0-1.5.51-1.5,2.8Z"/>
  <path class="cls-2" d="M130.37,289.75c0-.57.04-1.26.06-1.83.02-.55.04-1.08.04-1.54,0-3.37-.2-6.83-.26-7.7.3.08.43.04,1.14.04.57,0,1.02,0,1.34-.02,0,0-.24,2.58-.24,7.76,0,.49,0,.98-.02,1.5-.02.51-.02,1.02-.02,1.5,0,2.17.26,4.02,1.99,4.04,1.69,0,1.97-1.67,1.97-3.72,0-.51-.02-1.06-.04-1.58-.02-.53-.04-1.06-.04-1.56,0-3.37-.2-6.89-.24-7.76.3.12.45.1,1.12.1.57,0,1.02,0,1.34-.02,0,0-.22,2.58-.22,7.76,0,.37,0,.91.02,1.32.04.51.06,1.02.06,1.56,0,2.68-.47,5.43-3.92,5.41-3.54-.04-4.06-2.64-4.06-5.26Z"/>
  <path class="cls-2" d="M144.41,294.85s-.83-.06-1.65-.06c-.57,0-.96.02-1.24.04,0,0,.67-3.05,1.56-7.5,1.3-6.34,1.44-8.82,1.44-8.82,0,0,1.3.24,1.1.26.26.02.53.02.81.02.45,0,.91-.02,1.3-.04.12-.02.16-.02.24-.02,0,0,.79,4.13,1.69,8.74,1.38,7.07,1.87,7.68,1.93,7.74-.06-.02-2.42-.3-1.81-.35-.57,0-1,.04-1.28.06,0-.18,0,.1-.08-1.63-.06-1.71-.18-2.64-1.99-2.64s-2.03.89-2.03,2.66v1.52ZM147.81,287.88c0-.59-.12-1.5-.37-2.97-.37-2.11-.65-3.17-1.08-3.17s-.77,1.08-1.22,3.23c-.26,1.4-.43,2.28-.43,2.89,0,1.22.49,1.22,1.44,1.2h.24c.96,0,1.4.06,1.4-1.18Z"/>
  <path class="cls-2" d="M160.76,290.1c.35,0,.59-.77.59-2.32,0-1.36-.18-7.34-.22-8.98,0,0,.79.06,1.1.06s.87-.04,1.24-.06c0,0-.12,2.05-.12,7.42,0,4.41.08,7.48.12,8.47,0,0-.91-.06-1.87-.06-.67,0-1.32.04-1.71.06,0,0-.28-1.87-1.2-6.6-.59-2.97-.93-4.69-1.36-4.69-.35,0-.51.96-.51,3.01,0,3.72.22,7.44.33,8.58,0,0-.73-.06-1.26-.06-.57,0-1,0-1.3.02,0,0,.24-3.29.24-8.47,0-3.17-.22-6.5-.3-7.68,0,0,1.36.08,2.26.08s1.54-.08,1.93-.14c0,0,.98,7.82,1.16,9.06.22,1.52.57,2.32.89,2.32Z"/>
  <path class="cls-2" d="M220.74,278.54c-.12.95-.18,2.3-.18,4.37,0,2.22,0,10.74.06,12.01,0,0-7.65-.95-22.88-.95l-27,1.11s.18-9.15.18-11.3,0-3.89-.06-5.08c0,0,12.01.79,27.24.79,9.2,0,19.24-.71,22.64-.95Z"/>
  <path class="cls-1" d="M176.06,290.35s-.37-.03-.74-.03c-.26,0-.43,0-.56.02,0,0,.3-1.37.7-3.37.59-2.85.65-3.97.65-3.97,0,0,.59.11.49.12.12,0,.24,0,.37,0,.2,0,.41,0,.59-.02.06,0,.07,0,.11,0,0,0,.36,1.86.76,3.93.62,3.18.84,3.46.87,3.48-.03,0-1.09-.14-.81-.16-.26,0-.45.02-.58.03,0-.08,0,.05-.04-.73-.03-.77-.08-1.19-.9-1.19s-.91.4-.91,1.2v.69ZM177.59,287.21c0-.27-.05-.68-.16-1.34-.16-.95-.29-1.43-.48-1.43s-.35.48-.55,1.45c-.12.63-.19,1.02-.19,1.3,0,.55.22.55.65.54h.11c.43,0,.63.03.63-.53Z"/>
  <path class="cls-1" d="M180.65,288.05c0-.26.02-.57.03-.82,0-.25.02-.48.02-.7,0-1.52-.09-3.07-.12-3.47.14.04.19.02.51.02.26,0,.46,0,.6,0,0,0-.11,1.16-.11,3.49,0,.22,0,.44,0,.68,0,.23,0,.46,0,.68,0,.98.12,1.81.9,1.82.76,0,.89-.75.89-1.67,0-.23,0-.48-.02-.71,0-.24-.02-.48-.02-.7,0-1.52-.09-3.1-.11-3.49.14.05.2.05.5.05.26,0,.46,0,.6,0,0,0-.1,1.16-.1,3.49,0,.16,0,.41,0,.59.02.23.03.46.03.7,0,1.21-.21,2.44-1.77,2.43-1.59-.02-1.83-1.19-1.83-2.37Z"/>
  <path class="cls-1" d="M186.04,284.02c-.12,0-.46.15-.46.15,0,0,.12-.59.13-.51,0-.2,0-.38,0-.51,0,0,.14.02,1.76.03,1.14,0,1.56-.02,1.76-.03,0,0,0,.16,0,.53,0,.17,0,.3,0,.4-.16,0-.2-.03-.34-.05-.8-.05-.92.48-.92,2.52.06,1.26.12,2.52.16,3.79,0,0-.17,0-.61,0h-.64s.12-1.48.12-3.81c0-2.09-.18-2.53-.94-2.5Z"/>
  <path class="cls-1" d="M193.24,283.42c0-.15,0-.22,0-.31,0,0,.27.03.49.03.26,0,.47,0,.6,0,0,0-.14,1.65-.14,3.5l.1,3.78s-.28-.03-.53-.03-.44,0-.57,0c0,0,.1-1.15.1-2.41,0-.59-.4-.86-.79-.86-.42,0-.83.3-.83.88,0,.67.06,1.98.08,2.41,0,0-.3-.03-.5-.03-.26,0-.47,0-.59,0,0,0,.09-1.48.09-3.81,0-1.52-.09-3.11-.11-3.49.13.04.21.05.52.05.26,0,.46,0,.59,0,0,0-.07,1.66-.08,2.22,0,.46.41.7.82.7s.81-.24.79-.71c0-.12-.03-1.25-.05-1.92Z"/>
  <path class="cls-1" d="M198.74,289.52c-.02.13-.03.26-.03.44s0,.31.02.4c0,0-.57-.02-1.23-.02-.5,0-1.31.03-1.66.05,0,0,.1-1.48.1-3.81,0-1.73-.06-3.11-.08-3.52,0,0,.59.02,1.25.02h.38c.66-.02,1.01-.04,1.2-.05,0,0-.05.27-.05.44,0,.18.02.31.05.43,0,0-.39-.03-.69-.03-.11,0-.28,0-.41,0-.61.03-.76.19-.75,1.27,0,1.04.27,1.21.66,1.21.51,0,.82-.05,1.02-.09,0,0-.03.27-.03.42,0,.17,0,.31.03.43,0,0-.54-.1-1.02-.1-.53,0-.68.53-.68,1.36,0,.72.04,1.16.67,1.23.13,0,.25.02.37.02.37,0,.69-.05.88-.1Z"/>
  <path class="cls-1" d="M203.05,288.21c.16,0,.27-.35.27-1.04,0-.61-.08-3.3-.1-4.04,0,0,.36.03.49.03s.39-.02.56-.03c0,0-.05.92-.05,3.34,0,1.98.04,3.37.05,3.81,0,0-.41-.03-.84-.03-.3,0-.59.02-.77.03,0,0-.13-.84-.54-2.97-.27-1.34-.42-2.11-.61-2.11-.16,0-.23.43-.23,1.35,0,1.67.1,3.35.15,3.86,0,0-.33-.03-.57-.03-.26,0-.45,0-.59,0,0,0,.11-1.48.11-3.81,0-1.43-.1-2.93-.14-3.46,0,0,.61.04,1.01.04s.7-.04.87-.06c0,0,.44,3.52.52,4.08.1.69.26,1.04.4,1.04Z"/>
  <path class="cls-1" d="M206.03,284.02c-.12,0-.46.15-.46.15,0,0,.12-.59.13-.51,0-.2,0-.38,0-.51,0,0,.14.02,1.76.03,1.14,0,1.56-.02,1.76-.03,0,0,0,.16,0,.53,0,.17,0,.3,0,.4-.16,0-.2-.03-.34-.05-.8-.05-.92.48-.92,2.52.06,1.26.12,2.52.16,3.79,0,0-.17,0-.61,0h-.64s.12-1.48.12-3.81c0-2.09-.18-2.53-.94-2.5Z"/>
  <path class="cls-1" d="M210.67,283.11c.11.02.27.03.5.03.26,0,.46,0,.6,0,0,0-.11,1.17-.11,3.5l.13,3.78s-.27-.03-.52-.03-.45,0-.59,0c0,0,.09-1.48.09-3.81,0-1.41-.08-2.94-.11-3.47Z"/>
  <path class="cls-1" d="M214.98,283.07c1.55,0,1.66.5,1.64,1.16-.02.59.05,1.43.09,1.8,0,0-.3-.03-.53-.03s-.34,0-.46.03c0,0,.05-.48.05-.91,0-.14,0-.36,0-.52,0-.38-.1-.82-.71-.82s-.76.44-.78,1.99c0,.37,0,.7,0,1.02,0,2,.14,2.9.76,2.9.7,0,.83-.41.78-1.11-.02-.32-.16-.55-.18-.58.02,0,.22.1.5.1.19,0,.37,0,.49-.03,0,0,0,.12,0,.63,0,1.31-.23,1.69-1.55,1.69s-1.72-.46-1.72-4.55c0-1.63.09-2.78,1.66-2.78Z"/>
</svg>